<?xml version="1.0" encoding="utf-8"?>
<!-- Generator: Adobe Illustrator 25.2.3, SVG Export Plug-In . SVG Version: 6.00 Build 0)  -->
<svg version="1.1" xmlns="http://www.w3.org/2000/svg" xmlns:xlink="http://www.w3.org/1999/xlink" x="0px" y="0px"
	 viewBox="0 0 430 665" style="enable-background:new 0 0 430 665;" xml:space="preserve">
<style type="text/css">
	.st0{fill:#1E1B3C;}
	.st1{display:none;}
	.st2{fill:#B5A8F8;}
	.st3{fill:#FC5E61;}
	.st4{fill:#FFFFFF;}
	.st5{fill:#0072EB;}
	.st6{fill:url(#SVGID_1_);stroke:url(#SVGID_2_);stroke-miterlimit:10;}
	.st7{fill:url(#SVGID_3_);stroke:url(#SVGID_4_);stroke-miterlimit:10;}
	.st8{fill:url(#SVGID_5_);stroke:url(#SVGID_6_);stroke-miterlimit:10;}
	.st9{fill:url(#SVGID_7_);stroke:url(#SVGID_8_);stroke-miterlimit:10;}
	.st10{fill:url(#SVGID_9_);}
</style>
<g id="Hintergrund">
	<rect class="st0" width="430" height="665"/>
	<rect x="799.6" y="204.4" class="st0" width="430" height="665"/>
	<g>
		<path d="M-66.4-39.4v743.9h562.7V-39.4H-66.4z M430,613.2c0,28.6-23.2,51.8-51.8,51.8H51.8C23.2,665,0,641.8,0,613.2V51.8
			C0,23.2,23.2,0,51.8,0h326.5C406.8,0,430,23.2,430,51.8V613.2z"/>
	</g>
	<g>
		<path d="M733.3,165v743.9H1296V165H733.3z M1229.6,817.7c0,28.6-23.2,51.8-51.8,51.8H851.4c-28.6,0-51.8-23.2-51.8-51.8V256.2
			c0-28.6,23.2-51.8,51.8-51.8h326.5c28.6,0,51.8,23.2,51.8,51.8V817.7z"/>
	</g>
</g>
<g id="Ebene_1" class="st1">
</g>
<g id="Ebene_2">
	<g>
		<path class="st2" d="M-25.4,224.9c0-139.2,106.9-252.2,239.1-252.2S452.9,85.6,452.9,224.9"/>
		<ellipse class="st3" cx="213.5" cy="236.8" rx="239.3" ry="196.4"/>
		<polyline class="st0" points="-14.1,198 -29.1,178.7 -8.1,190 -21.4,161.4 2.1,179.5 -11.7,147.7 18.8,162.5 -1.5,130.3 36.2,150 
			14.3,112.4 57.9,138.3 30.3,92.6 75.7,128.2 53.2,70.6 103.3,118.2 80.7,48.3 120.5,107.9 114,38 149.7,101.7 152.4,29.5 
			180.4,96.6 189,27 209.4,92.2 231,27 241.5,93 276.9,34 276.9,97.8 319.7,51.3 305.8,108.6 353,68.8 339.2,120.7 385.1,81.7 
			360.9,133.6 400.7,103.5 380.7,144.4 419.9,125.1 402.5,159.3 434.1,142 417.8,173.5 447.5,160.3 430.2,185.1 450,179.8 
			441.5,198 		"/>
		<polyline class="st0" points="433.3,267.5 444,284.3 459.5,300.8 438.2,291.4 451.8,316 428,300.6 442.4,328 411.4,315.5 
			432.4,343.1 394,326.6 416.9,359.1 373,337.3 401.1,376.5 355.3,346.4 378.5,396 327.7,355.5 351.4,415.6 310.6,364.5 
			318.2,425.2 281.5,370.3 279.9,433.2 250.9,375.2 243.1,436 222.1,379.4 201.3,436.6 189.8,379.4 155.3,431.2 154.6,375.7 
			112.2,416.7 125.4,366.6 78.9,402.2 91.9,356.7 46.4,391.3 69.8,345.9 30.6,372.5 50,337 11,354.2 28.1,324.3 -3.4,339.6 
			12.6,312 -16.9,324 -0.1,302.2 -19.7,307 -11.4,291.2 -26.9,294.8 -14.2,285.9 -10.3,280.1 		"/>
		<ellipse class="st4" cx="213.5" cy="239.8" rx="239.3" ry="133.8"/>
		<ellipse class="st5" cx="213.8" cy="239.8" rx="107.5" ry="103.3"/>
		<circle cx="214.1" cy="239.8" r="35.9"/>
	</g>
	<g>
		<path class="st3" d="M402.5,414.7c2.4-8,10.1-37.7-5.4-67c-3.6-6.8-11.7-21.7-29.5-31c-18.2-9.5-35.7-7.8-42.2-6.8
			c-7.6,1.2-12.8,3.4-20.9,6.8c-18.2,7.8-22.9,13.6-37,21.2c-10.8,5.9-31,17.3-56.3,16.6c-9.9-0.3-17.3-2.7-32.1-7.3
			c-24.7-7.8-45.1-19.1-49.9-21.9c-16.3-9.2-19-13-29.5-14.9c-14.2-2.9-26.1,0.5-30.7,2c-5.8,1.8-18.5,6.3-29.5,18
			C25.2,345.2,22.1,362.5,20,374c-1.5,8.5-2.9,22.6,0.5,39.9"/>
		<path class="st2" d="M339.9,331.7c28,3.2,40.2,15.4,42.8,18.1c15.7,16.5,17.4,40.6,18,52.2c0.7,12.8-0.7,25.5-1.7,33.7
			c-2.3,19.9-5.3,23.5-3.6,34.9c0.8,5.1,2.2,8.3,11.8,17.8c4.8,4.8,6.9,4.3,11.2,9.4c1.6,2.1,8.4,11,7.7,22.7
			c-0.6,11-7.8,18.3-13.5,23.9c-13.6,13.7-29.3,18-33.8,19C311.9,581,279.7,584,279.7,584c-67.9,6.1-65.5,3.3-148,7.6
			c0,0-33.3,1.7-75.6-7.1c-2.2-0.4-10.2-2.3-19.9-6.9C27.1,573,5.7,562.6,4,545c-0.8-7.9,2.8-15,4.5-18.5c1-2,2-3.6,3.1-4.9
			c4.7-6.1,6.8-6,10.2-11.2c2.8-4.2,4-8.5,4.3-9.7c0.6-2,1-4.3,1.1-5c0.2-0.9,0.5-2.6,0.8-5.5c0.5-4.3,0.6-7.9,0.7-10.1
			c0.1-4.7,0.2-7.1-0.1-10.1c-0.6-5.7-2.5-9.7-3-11.4c-4.4-17.5-6.7-26.4-7.5-32.3c-0.8-7.9-2.6-23.8,4.2-41.2
			c7.2-18.5,21.1-28.4,26-31.7c14.6-9.8,29.6-11.9,40.9-12.5c58.9-3.2,80.9,31.3,130,28.6C271.5,366.5,284.3,325.4,339.9,331.7z"/>
		<path class="st0" d="M393.5,488.9c-0.3-6.1-2-10.7-2.5-12.4c-1-3.4-2.4,1.9-3.4-33.1c-0.5-21.9-0.9-32.8-0.9-38.5
			c0.2-14.9,0.9-20.4-2-29.4c-2-6.1-4.7-11.2-7.3-14.8c-1.8-1-3.4-2.2-4.9-3.1c-2.2,7.3-4.1,13.4-5.6,18.2
			c-0.7,2.2-3.9,11.7-10.5,30.7c-1.7,4.6-3.2,8.8-4.9,13.4c-1.5,4.1-4.4,13.4-9.9,21.1c-1,1.5-2.5,3.4-5.1,3.8
			c-3.1,0.5-5.6-1.8-6.5-2.5c-2.4-3.2-5.6-8.5-9-15.1c-5.9-11.9-7.8-20.5-12.2-35.5c-2-6.6-4.9-16.3-8.8-28
			c-5.4,2.2-12.1,5.1-21.9,9.5c-2.4,1-4.7,2-7,2.9c-0.3,1.8-0.7,3.6-1.2,5.6c-2.2,9.7-3.4,11-8.1,26.5c0,0-3.1,10.1-9.5,22.4
			c-0.7,1.2-2.2,3.9-4.6,4.4c-0.9,0.2-2.4,0-4.9-2.4c-4.1-3.9-5.6-9.2-6.1-11.2c-1.8-6.3-4.7-12.1-6.5-18.3
			c-1.7-5.4-3.9-12.8-7.6-21.9c-5.6-0.2-11.4-0.3-17.5-0.5c-0.9,0-1.8,0-2.7-0.2c-0.7,3.1-1.8,6.6-2.9,10.7
			c-1,3.4-4.4,14.4-10.1,27.8c-5.9,13.7-8.7,16.4-11.2,16.3c-1.5-0.2-2.5-1.2-3.6-2.5c-5.8-7-8.1-14.8-9.9-21.1
			c-4.7-15.9-4.6-13.4-5.9-19.5c-1.5-6.1-2.5-11.7-3.2-16.6c-5.9-1.7-12.1-3.6-18.2-6.3c-5.1-2.4-9-3.9-12.6-5.6
			c-4.1,13.9-7.3,25.1-9.3,32.6c-0.2,0.7-5.6,20.7-16.4,39.7c-2,3.6-5.6,9.5-9.5,9.2c-1.5-0.2-2.5-1.2-5.1-5.2
			c-7.9-11.9-11.6-21.3-11.8-22c-1.2-3.1-2.2-5.6-2.9-7.8c-7.6-21.7-12.4-39.5-13.4-43.3c-0.9-3.8-1.8-7.3-2.5-10.3
			c-3.2,2-6.1,4.1-8.5,6.3c0,0.2-0.2,0.2-0.2,0.3c-3.6,6.5-5.8,13.2-7.3,28.1c-2.7,26.3,1,28.7-0.5,56.1
			c-1.2,18.9-1.9,25.5-3.1,30.5c-0.2,0.8-1,2.7-1.6,5.5c0,0-1.3,5.7-1.2,10.7c0.1,6.1,4.3,15.9,12.2,22.9c10.8,9.5,25.7,9.7,48.3,13
			c1.5,0.2,2.7,0.3,3.8,0.3c13.5,1.7,26.9,3.3,40.4,5c51.4,3.2,76,0.7,150.4,0.7c0,0,1.5,0,4.6,0c13.2-1.6,26.5-3.2,39.7-4.9
			c11.4-2.2,24.4-5.4,39-9.9c6.1-2,17-5.8,21.2-15.3C394.2,499.3,393.7,490.6,393.5,488.9z"/>
		
			<radialGradient id="SVGID_1_" cx="182.6758" cy="-1939.9773" r="27.1902" gradientTransform="matrix(0.9628 0 0 -1 3.0017 -1534.8112)" gradientUnits="userSpaceOnUse">
			<stop  offset="0" style="stop-color:#FFFFFF"/>
			<stop  offset="0.1427" style="stop-color:#FFFAFA"/>
			<stop  offset="0.306" style="stop-color:#FFECED"/>
			<stop  offset="0.4794" style="stop-color:#FFD5D6"/>
			<stop  offset="0.66" style="stop-color:#FFB5B7"/>
			<stop  offset="0.8442" style="stop-color:#FF8D8F"/>
			<stop  offset="1" style="stop-color:#FF6467"/>
		</radialGradient>
		
			<radialGradient id="SVGID_2_" cx="182.6892" cy="-1939.8373" r="27.8325" gradientTransform="matrix(0.9628 0 0 -1 3.0017 -1534.8112)" gradientUnits="userSpaceOnUse">
			<stop  offset="0" style="stop-color:#FFFFFF"/>
			<stop  offset="1" style="stop-color:#FF6467"/>
		</radialGradient>
		<path class="st6" d="M158.7,392c1.5,6.1,1.2,3.6,5.9,19.5c1.8,6.3,4.1,14.1,9.9,21.1c1,1.2,2.2,2.4,3.6,2.5
			c2.4,0.2,5.2-2.5,11.2-16.3c5.9-13.4,9.2-24.4,10.1-27.8c1-3.9,2.2-7.6,2.9-10.7c-17.7-0.7-32.2-1.5-46.8-5.1
			C156.2,380.3,157.3,385.7,158.7,392z"/>
		
			<radialGradient id="SVGID_3_" cx="89.5205" cy="-1932.3456" r="42.4567" gradientTransform="matrix(0.9628 0 0 -1 3.0017 -1534.8112)" gradientUnits="userSpaceOnUse">
			<stop  offset="0" style="stop-color:#FFFFFF"/>
			<stop  offset="0.1427" style="stop-color:#FFFAFA"/>
			<stop  offset="0.306" style="stop-color:#FFECED"/>
			<stop  offset="0.4794" style="stop-color:#FFD5D6"/>
			<stop  offset="0.66" style="stop-color:#FFB5B7"/>
			<stop  offset="0.8442" style="stop-color:#FF8D8F"/>
			<stop  offset="1" style="stop-color:#FF6467"/>
		</radialGradient>
		
			<radialGradient id="SVGID_4_" cx="89.5393" cy="-1932.3456" r="42.9961" gradientTransform="matrix(0.9628 0 0 -1 3.0017 -1534.8112)" gradientUnits="userSpaceOnUse">
			<stop  offset="0" style="stop-color:#FFFFFF"/>
			<stop  offset="1" style="stop-color:#FF6467"/>
		</radialGradient>
		<path class="st7" d="M76.8,349.9c-11,0.5-19,4.7-21.1,5.8c-0.7,0.3-1.2,0.7-1.8,1c0.7,3.1,1.7,6.5,2.5,10.3
			c0.9,3.6,5.6,21.7,13.4,43.3c0.7,2.2,1.7,4.7,2.9,7.8c0.3,0.9,4.1,10.1,11.7,21.9c2.5,3.8,3.4,5.1,5.1,5.2
			c3.8,0.5,7.6-5.6,9.5-9.2c10.8-19,16.3-39,16.4-39.7c2.2-7.8,5.2-19,9.3-32.6c-5.6-2.4-10.7-4.1-17.7-6.6
			C91.8,351.1,85,349.4,76.8,349.9z"/>
		
			<radialGradient id="SVGID_5_" cx="253.1828" cy="-1940.1649" r="27.4377" gradientTransform="matrix(0.9628 0 0 -1 3.0017 -1534.8112)" gradientUnits="userSpaceOnUse">
			<stop  offset="0" style="stop-color:#FFFFFF"/>
			<stop  offset="0.1427" style="stop-color:#FFFAFA"/>
			<stop  offset="0.306" style="stop-color:#FFECED"/>
			<stop  offset="0.4794" style="stop-color:#FFD5D6"/>
			<stop  offset="0.66" style="stop-color:#FFB5B7"/>
			<stop  offset="0.8442" style="stop-color:#FF8D8F"/>
			<stop  offset="1" style="stop-color:#FF6467"/>
		</radialGradient>
		
			<radialGradient id="SVGID_6_" cx="253.1239" cy="-1940.045" r="28.095" gradientTransform="matrix(0.9628 0 0 -1 3.0017 -1534.8112)" gradientUnits="userSpaceOnUse">
			<stop  offset="0" style="stop-color:#FFFFFF"/>
			<stop  offset="1" style="stop-color:#FF6467"/>
		</radialGradient>
		<path class="st8" d="M222.4,381.1c3.6,8.8,5.9,16.4,7.6,21.9c1.8,6.3,4.9,12.1,6.5,18.3c0.5,2,2,7.3,6.1,11.2
			c2.4,2.2,3.9,2.4,4.9,2.4c2.4-0.3,3.9-3.1,4.6-4.4c6.5-12.2,9.5-22.4,9.5-22.4c4.9-15.3,5.9-16.8,8.1-26.5c0.5-2,0.9-3.9,1.2-5.6
			C256.6,380.9,241.2,381.5,222.4,381.1z"/>
		
			<radialGradient id="SVGID_7_" cx="346.1053" cy="-1932.1062" r="42.8905" gradientTransform="matrix(0.9628 0 0 -1 3.0017 -1534.8112)" gradientUnits="userSpaceOnUse">
			<stop  offset="0" style="stop-color:#FFFFFF"/>
			<stop  offset="0.1427" style="stop-color:#FFFAFA"/>
			<stop  offset="0.306" style="stop-color:#FFECED"/>
			<stop  offset="0.4794" style="stop-color:#FFD5D6"/>
			<stop  offset="0.66" style="stop-color:#FFB5B7"/>
			<stop  offset="0.8442" style="stop-color:#FF8D8F"/>
			<stop  offset="1" style="stop-color:#FF6467"/>
		</radialGradient>
		
			<radialGradient id="SVGID_8_" cx="346.0912" cy="-1932.1062" r="43.4377" gradientTransform="matrix(0.9628 0 0 -1 3.0017 -1534.8112)" gradientUnits="userSpaceOnUse">
			<stop  offset="0" style="stop-color:#FFFFFF"/>
			<stop  offset="1" style="stop-color:#FF6467"/>
		</radialGradient>
		<path class="st9" d="M348.1,349.9c-1.2,0-3.1,0.2-17.7,4.1c-2.5,0.7-8,2.2-10.7,2.9c-6.8,2-11.7,3.4-19.7,6.6
			c3.9,11.5,7,21.2,8.8,28c4.4,14.9,6.3,23.6,12.2,35.5c3.4,6.6,6.6,11.9,9,15.1c0.9,0.7,3.4,3.1,6.5,2.5c2.4-0.3,3.9-2.4,5.1-3.8
			c5.6-7.8,8.7-17,9.9-21.1c1.5-4.6,3.2-9,4.9-13.4c6.5-19,9.9-28.5,10.5-30.7c1.5-4.7,3.4-10.8,5.6-18.2c-2.4-1.2-4.6-2.4-6.3-3.1
			C360,351.8,354.9,349.6,348.1,349.9z"/>
		<g>
			
				<linearGradient id="SVGID_9_" gradientUnits="userSpaceOnUse" x1="209.382" y1="-2029.2418" x2="209.382" y2="-2141.9158" gradientTransform="matrix(1 0 0 -1 0 -1534.8112)">
				<stop  offset="0" style="stop-color:#3B65FF"/>
				<stop  offset="0.1304" style="stop-color:#5C77FD"/>
				<stop  offset="0.2863" style="stop-color:#7C89FB"/>
				<stop  offset="0.4481" style="stop-color:#9596FA"/>
				<stop  offset="0.6162" style="stop-color:#A7A0F9"/>
				<stop  offset="0.7944" style="stop-color:#B2A6F8"/>
				<stop  offset="1" style="stop-color:#B5A8F8"/>
			</linearGradient>
			<path class="st10" d="M343.2,529.8c-2.7-5.9-7.9-15.4-17.6-24.3c-5.5-5.1-13.2-11.7-25.1-14.9c-11.5-3.1-20.7-0.9-31.9,1.7
				c-17.1,3.9-15.5,7.6-32.2,11.2c-18.5,3.9-32.8,2.2-36.3,1.7c-2.9-0.3-6.5-1.2-13.9-2.9c-14.1-3.1-19.5-4.9-26.7-6.6
				c-17.1-4.1-25.8-6.1-37.1-4.6c-18.8,2.6-30.9,14.2-33,16.3c-8,7.9-11.9,16.4-13.8,21.5c13,2.5,26.9,4.7,41.8,6.2
				c7,0.7,13.7,1.3,20.3,1.7c3.4,5.6,8.2,14.3,11.8,25.9c1.3,4.3,2,7.3,2.5,9c3.1,12.1,7.8,21.4,17.5,40.6
				c9.5,18.8,23.1,41.7,36.5,44.8c0.9,0.2,2.7,0.5,5.1,0.3c7.4-1,11.5-8.3,16.8-16.3c11-16.8,11.4-12.1,20-26.3
				c6.5-10.5,9.9-19.3,12.6-25.8c3.6-8.7,7.3-19.3,10.3-31.9c0.2-3.1,0.7-7.1,2.2-11.5c1.1-3.4,2.5-6.3,3.8-8.5
				c2.8,0.1,6.9,0.1,11.7-0.1c6.7-0.2,11.8-0.7,15-1.1C319.4,534.1,339.8,530.4,343.2,529.8z"/>
		</g>
	</g>
	<g id="Ebene_2_2_">
		<path class="st4" d="M303.3,492.7c-1.2-1-2.9-2.2-4.7-2c-4,0.5-5.9,7.6-6.8,10.8c-2.4,8.3-6.2,19.6-12.9,36.5
			c6.9,0.2,13,0,18.1-0.4c2-0.1,3.5-0.3,4.6-0.4c6.8-0.6,12.8-1.4,17.7-2.1c-1.5-5-2.8-9.2-3.7-12.3c-0.4-1.2-0.9-3.1-1.5-5.7
			c-0.2-0.8-0.4-1.6-0.6-2.7C312.7,510.2,310.5,499,303.3,492.7z"/>
		<path class="st4" d="M121.4,491.1c-1.2-1-2.9-2.2-4.7-2c-3.9,0.5-5.9,7.8-6.8,10.8c-2.2,7.8-5.8,18-11.5,32.6
			c13.9,1.6,19.2,2.4,22.1,2.9c0.8,0.2,1.9,0.4,3.5,0.7c6.8,1.1,12.4,1,16.1,0.7c-4.2-9.8-6.8-18.1-8.3-24
			C130,506.1,128.2,496.8,121.4,491.1z"/>
	</g>
</g>
</svg>
