<?xml version="1.0" encoding="utf-8"?>
<!-- Generator: Adobe Illustrator 25.2.3, SVG Export Plug-In . SVG Version: 6.00 Build 0)  -->
<svg version="1.1" xmlns="http://www.w3.org/2000/svg" xmlns:xlink="http://www.w3.org/1999/xlink" x="0px" y="0px"
	 viewBox="0 0 426.6 479.7" style="enable-background:new 0 0 426.6 479.7;" xml:space="preserve">
<style type="text/css">
	.st0{fill:#F5F5F5;}
	.st1{fill:#1E1B3C;}
	.st2{fill:#FFFFFF;}
	.st3{fill:#3B65FF;}
	.st4{fill:#FC5E61;}
	.st5{fill:#B5A8F8;}
	.st6{fill:#0072EB;}
	.st7{fill:#1E1B3C;stroke:#1E1B3C;stroke-width:2;stroke-miterlimit:10;}
	.st8{fill:none;}
	.st9{fill:#FF6467;}
	.st10{fill:url(#SVGID_1_);stroke:url(#SVGID_2_);stroke-miterlimit:10;}
	.st11{fill:url(#SVGID_3_);stroke:url(#SVGID_4_);stroke-miterlimit:10;}
	.st12{fill:url(#SVGID_5_);stroke:url(#SVGID_6_);stroke-miterlimit:10;}
	.st13{fill:url(#SVGID_7_);stroke:url(#SVGID_8_);stroke-miterlimit:10;}
	.st14{fill:url(#SVGID_9_);}
</style>
<g id="Ebene_1">
	<rect x="-8.7" y="-10.5" class="st0" width="441.3" height="499"/>
	<g id="Ebene_6">
	</g>
	<path class="st1" d="M106.3,103.4L98.8,1.6c-42.5-17.7-85-35.5-127.5-53.2C-62.8-1.4-97,48.7-131.1,98.9l88.2,93.6l-6.6,83.7
		l-105.8,23c47,64.3,93.9,128.7,140.9,193c56.1,2.6,112.1,5.2,168.2,7.8l19.8-315L106.3,103.4z"/>
	<path class="st1" d="M481.3,276.2l-6.8-83.4l88.2-93.6C529.1,43.5,495.5-12.4,461.9-68.2c-43.6,18.5-87.1,37.1-130.7,55.6
		c-1.9,38.7-3.8,77.4-5.7,116L258.2,185l19.7,315c56.2-2.3,112.3-4.6,168.5-7c46.9-64.6,93.8-129.2,140.7-193.8L481.3,276.2z"/>
	<g>
		<path class="st2" d="M218.6,188.2c-3.1-2.2-13.9-5.7-19.2-10c-15.3-12.6-27-23.6-44.5-40.7c-34.7-33.9-33.8-34.4-41.5-39.3
			c-13.3-8.4-27.7-17.4-46.5-15.3c-24.4,2.8-38.8,22.1-40.7,24.7c-4.8,6.8-7.8,17.3-13.1,37.8c-5.9,22.9-9.8,34.1-10.2,42.1
			c-0.5,10.2,0.8,16.1-3.5,23.3c-5.9,9.6-16.3,11.1-15.7,14.6c0.8,4.5,17.1,0.2,30.2,8.7c12.7,8.3,8.1,19.6,21.2,35.7
			c1.5,1.8,19,23.1,44.5,24c13.7,0.5,23.9-4.8,37.1-12.4c20-11.5,45.6-26.6,74.9-45.8L218.6,188.2z"/>
		<path class="st3" d="M218.8,303.9h91c56.5,49.6,71.4,121.1,43.9,166.2c-20.7,33.8-71.8,54.2-111.3,39.4
			c-10.7-4.1-18.4-10.5-23.6-15.9h-0.3c-5.2,5.3-12.9,12-23.6,15.9c-39.4,14.8-90.6-5.6-111.3-39.4c-27.4-45.1-12.5-116.7,44-166.2
			H218.8L218.8,303.9z"/>
		<path class="st2" d="M218.6,188.2c3.1-2.2,13.9-5.7,19.2-10c15.3-12.6,27-23.6,44.5-40.7c34.7-33.9,33.8-34.4,41.5-39.3
			c13.3-8.4,27.7-17.4,46.5-15.3c24.4,2.8,38.8,22.1,40.7,24.7c4.8,6.8,7.8,17.3,13.1,37.8c5.9,22.9,9.8,34.1,10.2,42.1
			c0.5,10.2-0.8,16.1,3.5,23.3c5.9,9.6,16.3,11.1,15.7,14.6c-0.8,4.5-17.1,0.2-30.2,8.7c-12.7,8.3-8.1,19.6-21.2,35.7
			c-1.5,1.8-19,23.1-44.5,24c-13.7,0.5-23.9-4.8-37.1-12.4c-20-11.5-45.6-26.6-74.9-45.8L218.6,188.2z"/>
		<path class="st2" d="M126.5,322.2c-3.1,14.7-5.8,30.3-8.1,47.1c-2.8,20.2-4.2,38.9-5,56.5c1.5-1.6,3.7-3.9,6.5-7
			c2.9-3.4,5-5.8,5.7-6.6c7.6-8.4,16.6-16.6,16.6-16.6c5.5-3.2,13.1-5,22.1-7.8c12.7-3.9,18.6-4.4,26.6-4.4l-1.9-61.3L126.5,322.2
			L126.5,322.2z"/>
		<path class="st2" d="M311.1,322.2c3.1,14.7,5.8,30.3,8.1,47.1c2.8,20.2,4.2,39.1,5,56.7c-1.5-1.6-10.7-3.7-13.4-6.8
			c-2.9-3.2-4.1-4.2-5.8-6.1c-7.6-8.4-11.6-13.4-11.6-13.4c-5.5-3.2-10-6.1-18.9-8.9c-12.7-3.9-19.7-5.5-27.8-5.3l1.9-63.3
			L311.1,322.2L311.1,322.2z"/>
		<polyline class="st1" points="218.6,466.9 194.1,466.1 218.8,493 218.8,493.4 218.8,493.2 219,493.4 219,493 243.5,466.1 
			219,466.9 		"/>
		<path class="st3" d="M219.3-52.2c0.5,1.3,1.1,2.9,1.5,4.8c0.3,1.5,0.3,2.8,0.3,3.9c-0.3,5.8,0,16,6.3,25.1
			c1.9,2.9,5.3,6.8,20.7,15.2c17.2,9.3,21.6,9.2,35.4,16.8c11.5,6.3,17.9,9.8,24.9,17.3c13.6,14.4,17.4,30.8,18.6,36.4
			c1.5,7.2,1.5,13.4,1.3,17.7l-109.5,75.5l-108.2-75c-0.2-4.2-0.2-10.5,1.3-17.7c1.1-5.5,4.8-21.8,18.6-36.4
			c7-7.4,13.4-11,24.9-17.3c13.9-7.8,18.3-7.4,35.4-16.8c15.3-8.4,18.7-12.3,20.7-15.2c6.3-9,6.6-19.2,6.3-25.1
			c0-1.1,0.2-2.4,0.3-3.9c0.3-1.9,0.9-3.5,1.5-4.8"/>
		<ellipse class="st4" cx="218.8" cy="66.1" rx="30.3" ry="30.3"/>
		<path class="st5" d="M218.6,493.4c-4.5-2.6-11.3-6.3-20.2-10c-12.2-5-15.2-4.6-22.6-8.3c-9.4-4.5-15.2-0.9-26.2-12.7
			c-7.9-8.4-12.6-15.9-24.2-26.5c-5-4.5-9.4-8.1-12.2-10.2h211.1c-2.9,2.1-7.1,5.7-12.2,10.2c-11.6,10.7-16.3,18.1-24.2,26.5
			c-11,11.8-16.8,8.2-26.2,12.7c-7.4,3.5-10.5,3.2-22.6,8.3c-8.7,3.7-15.7,7.2-20.2,10"/>
		<path class="st6" d="M295.4,395.4c-20.2-13.1-40.2-14.4-48.6-14.6l-27.9-1.3l0,0l-27.9,1.3c-8.4,0-28.4,1.3-48.6,14.6
			c-15.9,10.2-24.6,23.1-28.9,30.2c12.9,6.5,23.3,12.3,30.5,16.4c22.5,12.9,29.5,18.6,43.3,22.3c12.7,3.5,24,3.1,31.6,2.2l0,0
			c7.6,0.8,18.9,1.1,31.6-2.2c13.7-3.7,20.7-9.6,43.3-22.3c7.2-4.2,17.7-10,30.5-16.4C319.9,418.7,311.3,405.8,295.4,395.4z"/>
		<path class="st1" d="M219.2,418c-42.8,0-78.6,3.7-105.8,7.6c27.1,3.9,62.6,7.8,105.6,7.8c42,0,78.5-3.9,105.3-7.8
			C297.3,421.7,261.1,418,219.2,418z"/>
		<path class="st5" d="M481.5,235.2c-1.3-0.2-2.6,20.8-14,49.6c0,0-3.7,9.8-23.8,33.9c-1.1,1.3-3.5,4.4-7,4.4c-1.8,0-4.1-0.8-10-8.4
			c-6.6-7.9-6.1-9.6-9.6-12c-4.1-2.9-9.8-4.2-15-2.9c-9,2.4-12.9,13.3-14.8,18.7c-6.3,18.3,1.5,34.7,3.4,38.9
			c3.4,7.4,7.6,16.1,17,19.9c9.6,3.7,18.7,0.2,22.9-1.5c3.4-1.3,16.4-7,29.7-30.7c4.5-8.1,10.7-21,16-48.8
			C482.6,263.5,482.9,235.2,481.5,235.2z"/>
		<path class="st5" d="M-43.9,235.2c1.3-0.2,2.6,20.8,14,49.6c0,0,3.7,9.8,23.8,33.9c1.1,1.3,3.5,4.4,7,4.4c1.8,0,4.1-0.8,10-8.4
			c6.6-7.9,6.1-9.6,9.6-12c4.1-2.9,9.8-4.2,15-2.9c9.4,2.4,12.9,13.3,14.8,18.7c6.3,18.3-1.5,34.7-3.4,38.9
			c-3.4,7.4-7.6,16.1-17,19.9c-9.6,3.7-18.7,0.2-22.9-1.5c-3.4-1.3-16.4-7-29.7-30.7c-4.5-8.1-10.7-21-16-48.8
			C-45.4,263.5-45.6,235.2-43.9,235.2z"/>
		<path class="st1" d="M129.4,468c1.1,0.9,2.6,2.1,4.4,1.8c3.7-0.5,5.5-7.1,6.3-9.8c2.1-7.1,5.3-16.4,10.7-29.9
			c-31-3.4-15.2-2.9-34.7-4.2c-0.8,0-1.6-0.2-2.4-0.2c3.5,8.9,5.7,16.4,6.8,22.3C121,452.1,122.9,462.4,129.4,468z"/>
		<path class="st1" d="M308.7,468c-1.1,0.9-2.6,2.1-4.4,1.8c-3.7-0.5-5.5-7.1-6.3-9.8c-2.1-7.1-5.3-16.4-10.7-29.9
			c31-3.4,15.2-2.9,34.7-4.2c0.8,0,1.6-0.2,2.4-0.2c-3.5,8.9-5.7,16.4-6.8,22.3C317,452.1,315.1,462.4,308.7,468z"/>
		<path class="st3" d="M60.9,207.1c-3.9,0.9-10.9,3.4-17.3,9.4c-9.8,8.9-12.3,20-12.9,23.8c-0.8,4.1-2.2,13.7,2.1,24.9
			c3.7,9.8,10,15.7,11.6,17.1c10.3,9.2,22.7,10.5,27,10.7l-8.3-8.1l-7.9-13.6l-10.1-25.8l12.6-17.1l9.2-10.9L60.9,207.1z"/>
		<path class="st5" d="M155.1,141.8c4.1,2.6,10.2,7.4,15.2,15.3c7.1,11.5,7.2,22.6,7.2,29.1c0,5.9-0.2,25.7-14.8,42.6
			c-13.1,15.3-29.9,19.2-35.5,20.5c-13.1,3.1-29.9,2.8-38.2-0.5c-0.8-0.3-2.8-1.1-5.7-1.3c-7.8-0.5-13.7,4.4-14.4,4.8
			c-6.6,5.7-7.1,14-7.2,17c-0.6,12.7,7.9,21.8,9.7,23.4c-3.9-1.5-13.4-5.7-20.5-16c-2.4-3.4-8.1-12-7.6-24.2
			c0.2-3.2,1.1-13.9,9.6-23.3c8.5-9.6,19.2-11.5,22.1-11.8L155.1,141.8z"/>
		<path class="st4" d="M-28.4,97.5c3.1-1.5,6.1-1.8,6.8-3.9c0.3-0.9,0-1.9-0.3-2.4c-2.4-4.1-25.8-1.6-33.2,10.3
			c-2.2,3.7-3.5,8.4-3.5,8.4c-0.6,2.2-1.5,5.2-0.9,9c0.5,4.5,2.4,7.6,3.4,9.4c3.9,6.5,9.6,9.6,12.2,11c3.5,1.9,9.4,4.4,20.8,5
			c4.1,0.2,13.9,0.5,32.9-3.9c9.6-2.2,18.9-4.4,30.7-9.6c11.3-4.8,18.6-9.7,34.5-15c4.1-1.3,6.8-2.1,10.3-2.8
			c4.5-0.8,13.7-1.9,24.9,0.8c9.7,2.2,16.3,6.5,20.8,9.4c6.8,4.4,13.7,11,27,23.8c7.2,7,9.4,9.4,14.2,11.1
			c2.2,0.8,11.6,4.5,21.2-0.2c11.8-5.8,13.6-19.4,13.7-20.8c1.1-10.9-4.8-18.9-7.8-22.7s-5.8-6.5-8.7-8.5
			c-17.6-13.3-38.1-17.7-40.8-18.3c-3.7-0.8-19.4-3.7-40.4-0.6c-7.1,0.9-16,2.9-37,11c0,0-70.5,27-92.3,29.5
			c-2.1,0.2-6.6,0.5-11.1-1.8c-1.5-0.8-5.3-2.6-7-6.8c-1.8-4.5,0.3-9,1.6-11.6C-36,105.2-33.6,100-28.4,97.5z"/>
		<g>
			<ellipse class="st7" cx="95.6" cy="173" rx="61.1" ry="61.1"/>
			<ellipse class="st2" cx="95.3" cy="173.4" rx="53" ry="53"/>
			<ellipse class="st5" cx="95.9" cy="173" rx="41" ry="41"/>
			<ellipse class="st3" cx="95.9" cy="172.1" rx="26.6" ry="26.6"/>
			<ellipse class="st1" cx="96.1" cy="172.1" rx="22.5" ry="22.5"/>
		</g>
		<path class="st3" d="M374.2,207.1c3.9,0.9,10.9,3.4,17.3,9.4c9.8,8.9,12.3,20,12.9,23.8c0.8,4.1,2.1,13.7-2.1,24.9
			c-3.7,9.8-10,15.7-11.6,17.1c-10.3,9.2-22.7,10.5-27,10.7l8.3-8.1l7.9-13.6l10-25.8l-12.6-17.1l-9.2-10.9L374.2,207.1z"/>
		<path class="st5" d="M279.9,141.8c-4.1,2.6-10.2,7.4-15.2,15.3c-7.1,11.5-7.2,22.6-7.2,29.1c0,5.9,0.2,25.7,14.8,42.6
			c13.1,15.3,29.9,19.2,35.7,20.5c13.1,3.1,29.9,2.8,38.2-0.5c0.8-0.3,2.8-1.1,5.7-1.3c7.8-0.5,13.7,4.4,14.4,4.8
			c6.6,5.7,7.1,14,7.2,17c0.6,12.7-7.9,21.8-9.7,23.4c3.9-1.5,13.4-5.7,20.5-16c2.4-3.4,8.1-12,7.6-24.2c-0.2-3.2-1.1-13.9-9.4-23.3
			c-8.5-9.6-19.2-11.5-22.1-11.8L279.9,141.8z"/>
		<g>
			<ellipse class="st7" cx="339.5" cy="173" rx="61.1" ry="61.1"/>
			<ellipse class="st2" cx="339.7" cy="173.4" rx="53" ry="53"/>
			<ellipse class="st5" cx="339.2" cy="173" rx="41" ry="41"/>
			<ellipse class="st3" cx="339.2" cy="172.1" rx="26.6" ry="26.6"/>
			<ellipse class="st1" cx="339.2" cy="172.1" rx="22.3" ry="22.3"/>
		</g>
		<path class="st4" d="M465.8,97.5c-3.1-1.5-6.1-1.8-6.8-3.9c-0.3-0.9,0-1.9,0.3-2.4c2.4-4.1,25.8-1.6,33.2,10.3
			c2.2,3.7,3.5,8.4,3.5,8.4c0.6,2.2,1.3,5.2,0.9,9c-0.5,4.5-2.4,7.6-3.4,9.4c-3.9,6.5-9.4,9.6-12.2,11c-3.5,1.9-9.4,4.4-20.8,5
			c-4.1,0.2-14,0.5-32.9-3.9c-9.6-2.2-18.9-4.4-30.7-9.6c-11.3-4.8-18.6-9.7-34.4-15c-4.1-1.3-6.8-2.1-10.3-2.8
			c-4.5-0.8-13.7-1.9-24.9,0.8c-9.7,2.2-16.3,6.5-20.8,9.4c-6.8,4.4-13.7,11-27,23.8c-7.2,7-9.4,9.4-14.2,11.1
			c-2.2,0.8-11.6,4.5-21.2-0.2c-11.8-5.8-13.6-19.4-13.7-20.8c-1.1-10.9,4.8-18.9,7.8-22.7c2.9-3.9,5.8-6.5,8.7-8.5
			c17.6-13.3,38.1-17.7,40.8-18.3c3.7-0.8,19.4-3.7,40.4-0.6c7.1,0.9,15.9,2.9,37,11c0,0,70.5,27,92.3,29.5
			c2.1,0.2,6.6,0.5,11.1-1.8c1.5-0.8,5.3-2.6,7-6.8c1.8-4.5-0.3-9-1.6-11.6C473.4,105.2,471,100,465.8,97.5z"/>
		<g>
			<g>
				<path class="st8" d="M179.1,234.9c-0.2,0-0.2,0-0.3,0C178.9,234.9,178.9,234.9,179.1,234.9L179.1,234.9z"/>
				<path class="st8" d="M260,234.9c-0.5,0-0.9,0-1.6,0l0,0C258.9,234.9,259.4,234.9,260,234.9z"/>
				<path class="st1" d="M191.1,255.5c8.4,1.9,17,4.1,22.9,11.6c2.6,3.2,3.9,6.6,4.6,9l0,0c0.6-2.4,2.1-5.7,4.6-9
					c5.9-7.6,14.6-9.7,22.9-11.6c3.1-0.8,13.3-2.9,26.8-1.3c8.7,1.1,15.7,3.2,20.3,5.2l0.2,0.2c-0.3-9.8-0.9-17.3-1.1-19.4
					c-4.6-1.8-11.3-3.9-19.6-4.8c-4.8-0.6-9.4-0.6-13.1-0.5c-0.5,0-1.1,0-1.6,0.2l0,0c-5.9,0.3-10.3,1.3-12.2,1.8
					c-8.4,1.9-17,4.1-22.9,11.6c-2.6,3.2-3.9,6.6-4.6,9l0,0c-0.6-2.4-2.1-5.7-4.6-9c-5.9-7.6-14.6-9.7-22.9-11.6
					c-1.8-0.5-5.9-1.3-12-1.8l0,0c-0.2,0-0.2,0-0.3,0c-4.2-0.3-9-0.2-14.6,0.5c-8.1,0.9-14.6,2.9-19.2,4.6
					c-0.2,1.9-0.6,9.6-1.1,19.4c4.6-1.9,11.6-4.1,20.3-5.2C177.8,252.6,188,254.9,191.1,255.5z"/>
				<path class="st1" d="M214,249.2c2.6,3.2,3.9,6.6,4.6,9l0,0c0.6-2.4,2.1-5.7,4.6-9c5.9-7.6,14.6-9.7,22.9-11.6
					c1.8-0.5,6.1-1.3,12.2-1.8c4.1-6.6,5.7-7.6,5.7-7.6c2.1-2.6,4.2-4.6,5.7-6.1c-3.7-3.1-9-8.3-13.1-15.9
					c-4.6-8.9-3.5-13.3-8.4-26.6c-4.1-11.1-6.1-17-11.6-22c-7.2-6.5-15.5-7.6-17.6-7.8h-0.2h-0.2c-1.9,0.2-10.3,1.5-17.6,7.8
					c-5.7,5-7.6,10.7-11.6,22c-4.8,13.4-3.7,17.7-8.4,26.6c-4.1,7.8-9.4,12.9-13.1,15.9c1.5,1.5,3.4,3.5,5.7,6.1
					c0,0,1.6,1.1,5.7,7.6c5.8,0.3,10.2,1.3,12,1.8C199.4,239.5,208.1,241.6,214,249.2z"/>
				<path class="st2" d="M273.1,288.2c-13.6-1.6-23.8,0.5-26.8,1.3c-8.4,1.9-17,4.1-22.9,11.6c-2.6,3.2-3.9,6.6-4.6,9l0,0
					c-0.6-2.4-2.1-5.7-4.6-9c-5.9-7.6-14.6-9.7-22.9-11.6c-3.1-0.8-13.3-2.9-26.8-1.3c-8.7,1.1-15.7,3.2-20.3,5.2h-0.2
					c0.2,5.2,0.6,10,1.1,14.4c0,0.6,0.2,1.3,0.3,1.9c4.6-1.8,11.1-3.7,19-4.6c13.6-1.6,23.8,0.5,26.8,1.3c8.4,1.9,17,4.1,22.9,11.6
					c2.6,3.2,3.9,6.6,4.6,9l0,0c0.6-2.4,2.1-5.7,4.6-9c5.9-7.6,14.6-9.7,22.9-11.6c3.1-0.8,13.3-2.9,26.8-1.3
					c8.1,0.9,14.7,2.9,19.4,4.6c0.2-0.6,0.2-1.5,0.3-2.1c0.5-4.4,0.9-9.2,1.1-14.2l-0.3-0.2C288.8,291.5,281.8,289.3,273.1,288.2z"
					/>
				<path class="st1" d="M273.1,271.2c-13.6-1.6-23.8,0.5-26.8,1.3c-8.4,1.9-17,4.1-22.9,11.6c-2.6,3.2-3.9,6.6-4.6,9l0,0
					c-0.6-2.4-2.1-5.7-4.6-9c-5.9-7.6-14.6-9.7-22.9-11.6c-3.1-0.8-13.3-2.9-26.8-1.3c-8.7,1.1-15.7,3.2-20.3,5.2l-0.3,0.3
					c0,5.7,0,11.3,0.2,16.8h0.2c4.6-1.9,11.8-4.1,20.3-5.2c13.6-1.6,23.8,0.5,26.8,1.3c8.4,1.9,17,4.1,22.9,11.6
					c2.6,3.2,3.9,6.6,4.6,9l0,0c0.6-2.4,2.1-5.7,4.6-9c5.9-7.6,14.6-9.7,22.9-11.6c3.1-0.8,13.3-2.9,26.8-1.3
					c8.7,1.1,15.7,3.2,20.3,5.2l0.3,0.2c0.2-5.5,0.3-11.1,0.3-16.8l-0.6-0.3C288.8,274.6,281.8,272.3,273.1,271.2z"/>
				<path class="st2" d="M293.4,259.4c-4.6-1.9-11.8-4.1-20.3-5.2c-13.6-1.6-23.8,0.5-26.8,1.3c-8.4,1.9-17,4.1-22.9,11.6
					c-2.6,3.2-3.9,6.6-4.6,9l0,0c-0.6-2.4-2.1-5.7-4.6-9c-5.9-7.6-14.6-9.7-22.9-11.6c-3.1-0.8-13.3-2.9-26.8-1.3
					c-8.7,1.1-15.7,3.2-20.3,5.2c-0.2,5.2-0.3,11.1-0.5,17.3l0.3-0.3c4.6-1.9,11.8-4.1,20.3-5.2c13.6-1.6,23.8,0.5,26.8,1.3
					c8.4,1.9,17,4.1,22.9,11.6c2.6,3.2,3.9,6.6,4.6,9l0,0c0.6-2.4,2.1-5.7,4.6-9c5.9-7.6,14.6-9.7,22.9-11.6
					c3.1-0.8,13.3-2.9,26.8-1.3c8.7,1.1,15.7,3.2,20.3,5.2l0.6,0.3C293.9,270.5,293.8,264.7,293.4,259.4L293.4,259.4z"/>
				<path class="st1" d="M292.5,310c-4.6-1.8-11.3-3.7-19.4-4.6c-13.6-1.6-23.8,0.5-26.8,1.3c-8.4,1.9-17,4.1-22.9,11.6
					c-2.6,3.2-3.9,6.6-4.6,9l0,0c-0.6-2.4-2.1-5.7-4.6-9c-5.9-7.6-14.6-9.7-22.9-11.6c-3.1-0.8-13.3-2.9-26.8-1.3
					c-7.9,0.9-14.4,2.9-19,4.6c0.6,4.5,1.9,9.8,5,15.2c0.3,0.5,0.5,0.8,0.8,1.3c1.1,1.8,5,7.8,12.6,12.4c0.2,0.2,0.3,0.2,0.5,0.3
					c5.8,3.5,11.1,4.6,16.3,5.8c4.5,0.9,10.5,1.9,17.9,1.8v4.6c0.3,1.3,0.8,2.9,1.9,4.8c2.1,3.5,5,5.3,6.5,6.1
					c4.8,2.9,9.7,3.2,12,3.1h0.2c2.2,0,7.1-0.2,12-3.1c1.5-0.8,4.2-2.6,6.5-6.1c1.1-1.9,1.6-3.7,1.9-4.8v-4.6
					c7.2,0.2,13.4-0.8,17.9-1.8c5.2-1.1,10.3-2.2,16.3-5.8c0.2-0.2,0.3-0.2,0.5-0.3c7.6-4.6,11.5-10.7,12.6-12.4
					c0.3-0.5,0.5-0.8,0.8-1.3l0,0C290.6,319.6,291.7,314.4,292.5,310z M173.6,321.6c-0.8,0-1.5,0-2.2,0
					C172.1,321.6,173,321.6,173.6,321.6z M197.4,325c2.1,0.6,4.1,1.3,6.1,2.1C201.4,326.3,199.4,325.7,197.4,325z M215.8,337.5
					c0.9,1.6,1.8,3.2,2.2,4.6C217.3,340.6,216.8,339.2,215.8,337.5z M218.6,344.1c0.5-1.8,1.5-4.1,2.9-6.5
					C220.1,340,219.2,342.3,218.6,344.1z M233.9,327.1c1.9-0.8,4.1-1.6,6.1-2.1C237.8,325.7,235.8,326.3,233.9,327.1z"/>
			</g>
			<g>
				<path class="st5" d="M162.5,297.4c-0.3,1.8-0.5,4.8,0.5,8.4c1.8,6.3,6.3,9.7,8.1,11.1c4.6,3.5,5.2,1.1,13.4,5.7
					c2.8,1.5,5.7,3.4,9.8,3.5c1.6,0.2,2.9,0,3.9-0.2v-9.9v-16.4l-19.9-7.4L162.5,297.4z"/>
				<path class="st4" d="M198.3,308.3c0-6.5,0-4.8,0-11.3c-1.5-1.1-3.5-2.6-6.1-4.2c-1.9-1.1-5.3-3.1-8.9-4.2
					c-7.9-2.4-15.2,0-17.1,0.6c-2.6,0.8-10,3.5-14.8,11.3c-0.2,0.2-0.3,0.3-0.5,0.8c-0.9,1.6-4.5,8.1-3.2,16.3
					c0.2,0.8,0.5,3.1,1.6,5.8c1.8,4.5,4.5,7.2,6.5,9.2c4.8,4.8,9.7,7.2,12.2,8.4c3.9,1.8,7,2.6,10.5,3.4c5.3,1.3,9.7,1.8,12.4,1.9
					c3.1,0.3,5.7,0.3,7.6,0.2v-9.7c-0.8,0-2.1,0-3.5,0c-3.1,0-9.2-0.2-15.7-1.9c-5.3-1.5-10.2-2.9-14.6-7.1
					c-1.5-1.6-5.7-5.7-6.3-12.4c-0.3-2.2-0.5-8.7,4.1-14.2c2.6-3.1,5.8-4.5,7.4-5.2c0.9-0.3,6.8-2.2,12.7,0.3
					c4.2,1.8,3.7,4.8,8.9,8.4C193.9,306.9,196.5,307.9,198.3,308.3z"/>
			</g>
			<g>
				<path class="st5" d="M275.1,297.4c0.3,1.8,0.5,4.8-0.5,8.4c-1.8,6.3-6.3,9.7-8.1,11.1c-4.6,3.5-5.2,1.1-13.4,5.7
					c-2.8,1.5-5.7,3.4-9.8,3.5c-1.6,0.2-2.9,0-3.9-0.2v-9.9v-16.4l19.9-7.4L275.1,297.4z"/>
				<path class="st4" d="M239.3,308.2c0-6.5-0.2-4.6-0.2-11.1c1.5-1.1,3.5-2.6,6.1-4.2c1.9-1.1,5.3-3.1,8.9-4.2
					c7.9-2.4,15.2,0,17.1,0.6c2.6,0.8,10,3.5,14.8,11.3c0.2,0.2,0.3,0.3,0.5,0.8c0.9,1.6,4.5,8.1,3.2,16.3c-0.2,0.8-0.5,3.1-1.6,5.8
					c-1.8,4.5-4.5,7.2-6.5,9.2c-4.8,4.8-9.7,7.2-12.2,8.4c-3.9,1.8-7,2.6-10.5,3.4c-5.3,1.3-9.7,1.8-12.4,1.9
					c-3.1,0.3-5.7,0.3-7.6,0.2v-9.7c0.8,0,2.1,0,3.5,0c3.1,0,9.2-0.2,15.7-1.9c5.3-1.5,10.2-2.9,14.6-7.1c1.5-1.6,5.7-5.7,6.3-12.4
					c0.3-2.2,0.5-8.7-4.1-14.2c-2.6-3.1-5.8-4.5-7.4-5.2c-0.9-0.3-6.8-2.2-12.7,0.3c-4.2,1.8-3.7,5-8.9,8.4
					C243.5,306.7,241.1,307.7,239.3,308.2z"/>
			</g>
		</g>
	</g>
	<path class="st4" d="M408.9,430.6c2.4-8,10.1-37.7-5.4-67c-3.6-6.8-11.7-21.7-29.5-31c-18.2-9.5-35.7-7.8-42.2-6.8
		c-7.6,1.2-12.8,3.4-20.9,6.8c-18.2,7.8-22.9,13.6-37,21.2c-10.8,5.9-31,17.3-56.3,16.6c-9.9-0.3-17.3-2.7-32.1-7.3
		c-24.7-7.8-45.1-19.1-49.9-21.9c-16.3-9.2-19-13-29.5-14.9c-14.2-2.9-26.1,0.5-30.7,2c-5.8,1.8-18.5,6.3-29.5,18
		c-14.3,14.8-17.4,32.1-19.5,43.6c-1.5,8.5-2.9,22.6,0.5,39.9"/>
	<path class="st5" d="M346.3,347.6c7.6,0.3,27.7,2.3,42.8,18.1c15.8,16.6,17.2,39.1,18,52.2c0.7,12.8-0.7,25.5-1.7,33.7
		c-2.3,19.9-5.3,23.5-3.6,34.9c0.8,5.1,2.2,8.3,11.8,17.8c4.8,4.8,6.9,4.3,11.2,9.4c1.6,2.1,8.4,11,7.7,22.7
		c-0.6,11-7.8,18.3-13.5,23.9c-13.6,13.7-29.3,18-33.8,19c-66.9,17.6-99.1,20.6-99.1,20.6c-67.9,6.1-65.5,3.3-148,7.6
		c0,0-33.3,1.7-75.6-7.1c-2.2-0.4-10.2-2.3-19.9-6.9c-9.1-4.6-30.5-15-32.2-32.6c-0.8-7.9,2.8-15,4.5-18.5c1-2,2-3.6,3.1-4.9
		c4.7-6.1,6.8-6,10.2-11.2c2.8-4.2,4-8.5,4.3-9.7c0.6-2,1-4.3,1.1-5c0.2-0.9,0.5-2.6,0.8-5.5c0.5-4.3,0.6-7.9,0.7-10.1
		c0.1-4.7,0.2-7.1-0.1-10.1c-0.6-5.7-2.5-9.7-3-11.4c-4.4-17.5-6.7-26.4-7.5-32.3c-0.8-7.9-2.6-23.8,4.2-41.2
		c2.7-6.7,9.1-23,26-31.7c10.4-5.3,20.1-5.5,25.5-5.3l53.2,13.2l50.5,12.6l75.1-4.9l39-16.9L346.3,347.6z"/>
	<path class="st1" d="M399.9,504.8c-0.3-6.1-2-10.7-2.5-12.4c-1-3.4-2.4,1.9-3.4-33.1c-0.5-21.9-0.9-32.8-0.9-38.5
		c0.2-14.9,0.9-20.4-2-29.4c-2-6.1-4.7-11.2-7.3-14.8c-1.8-1-3.4-2.2-4.9-3.1c-2.2,7.3-4.1,13.4-5.6,18.2
		c-0.7,2.2-3.9,11.7-10.5,30.7c-1.7,4.6-3.2,8.8-4.9,13.4c-1.5,4.1-4.4,13.4-9.9,21.1c-1,1.5-2.5,3.4-5.1,3.8
		c-3.1,0.5-5.6-1.8-6.5-2.5c-2.4-3.2-5.6-8.5-9-15.1c-5.9-11.9-7.8-20.5-12.2-35.5c-2-6.6-4.9-16.3-8.8-28
		c-5.4,2.2-12.1,5.1-21.9,9.5c-2.4,1-4.7,2-7,2.9c-0.3,1.8-0.7,3.6-1.2,5.6c-2.2,9.7-3.4,11-8.1,26.5c0,0-3.1,10.1-9.5,22.4
		c-0.7,1.2-2.2,3.9-4.6,4.4c-0.9,0.2-2.4,0-4.9-2.4c-4.1-3.9-5.6-9.2-6.1-11.2c-1.8-6.3-4.7-12.1-6.5-18.3
		c-1.7-5.4-3.9-12.8-7.6-21.9c-5.6-0.2-11.4-0.3-17.5-0.5c-0.9,0-1.8,0-2.7-0.2c-0.7,3.1-1.8,6.6-2.9,10.7
		c-1,3.4-4.4,14.4-10.1,27.8c-5.9,13.7-8.7,16.4-11.2,16.3c-1.5-0.2-2.5-1.2-3.6-2.5c-5.8-7-8.1-14.8-9.9-21.1
		c-4.7-15.9-4.6-13.4-5.9-19.5c-1.5-6.1-2.5-11.7-3.2-16.6c-5.9-1.7-12.1-3.6-18.2-6.3c-5.1-2.4-9-3.9-12.6-5.6
		c-4.1,13.9-7.3,25.1-9.3,32.6c-0.2,0.7-5.6,20.7-16.4,39.7c-2,3.6-5.6,9.5-9.5,9.2c-1.5-0.2-2.5-1.2-5.1-5.2
		C83,444,79.3,434.6,79.1,433.9c-1.2-3.1-2.2-5.6-2.9-7.8c-7.6-21.7-12.4-39.5-13.4-43.3c-0.9-3.8-1.8-7.3-2.5-10.3
		c-3.2,2-6.1,4.1-8.5,6.3c0,0.2-0.2,0.2-0.2,0.3c-3.6,6.5-5.8,13.2-7.3,28.1c-2.7,26.3,1,28.7-0.5,56.1c-1.2,18.9-1.9,25.5-3.1,30.5
		c-0.2,0.8-1,2.7-1.6,5.5c0,0-1.3,5.7-1.2,10.7c0.1,6.1,4.3,15.9,12.2,22.9c10.8,9.5,25.7,9.7,48.3,13c1.5,0.2,2.7,0.3,3.8,0.3
		c13.5,1.7,26.9,3.3,40.4,5c51.4,3.2,76,0.7,150.4,0.7c0,0,1.5,0,4.6,0c13.2-1.6,26.5-3.2,39.7-4.9c11.4-2.2,24.4-5.4,39-9.9
		c6.1-2,17-5.8,21.2-15.3C400.6,515.2,400.1,506.5,399.9,504.8z"/>
	<path class="st9" d="M421.5,376.5"/>
	<path class="st5" d="M65-1.8c0-88.8,68.2-160.9,152.6-160.9s152.6,72,152.6,160.9"/>
	<ellipse class="st4" cx="217.4" cy="5.8" rx="152.7" ry="125.3"/>
	<path class="st1" d="M362,5.8"/>
	<polyline class="st1" points="72.2,-19 62.6,-31.3 76,-24.1 67.5,-42.3 82.5,-30.8 73.7,-51.1 93.2,-41.6 80.2,-62.2 104.3,-49.6 
		90.3,-73.6 118.1,-57.1 100.5,-86.2 129.5,-63.5 115.1,-100.3 147.1,-69.9 132.7,-114.5 158.1,-76.5 153.9,-121.1 176.7,-80.4 
		178.4,-126.5 196.3,-83.7 201.8,-128.1 214.8,-86.5 228.6,-128.1 235.3,-86 257.9,-123.6 257.9,-82.9 285.2,-112.6 276.3,-76 
		306.4,-101.4 297.6,-68.3 326.9,-93.2 311.5,-60.1 336.9,-79.3 324.1,-53.2 349.1,-65.5 338,-43.7 358.2,-54.7 347.8,-34.6 
		366.7,-43 355.7,-27.2 368.3,-30.6 362.9,-19 	"/>
	<polyline class="st1" points="357.7,25.4 364.5,36.1 374.4,46.6 360.8,40.6 369.5,56.3 354.3,46.5 363.5,64 343.7,56 357.1,73.6 
		332.6,63.1 347.2,83.8 319.2,69.9 337.1,94.9 307.9,75.7 322.7,107.4 290.3,81.5 305.4,119.9 279.4,87.3 284.2,126 260.8,91 
		259.8,131.1 241.3,94.1 236.3,132.9 222.9,96.8 209.6,133.3 202.3,96.8 180.3,129.8 179.8,94.4 152.8,120.6 161.2,88.6 
		131.5,111.3 139.8,82.3 110.8,104.4 125.7,75.4 100.7,92.4 113.1,69.7 88.2,80.7 99.1,61.6 79,71.4 89.2,53.8 70.4,61.4 81.1,47.5 
		68.6,50.6 73.9,40.5 64,42.8 72.1,37.1 74.6,33.4 	"/>
	<ellipse class="st2" cx="217.4" cy="7.7" rx="152.7" ry="85.4"/>
	<ellipse class="st6" cx="217.6" cy="7.7" rx="68.6" ry="65.9"/>
	<g id="Ebene_2_1_">
	</g>
	<g id="Ebene_3">
	</g>
	<g>
		<path class="st0" d="M-80.3-37.5V521h558.5V-37.5H-80.3z M426.6,467.3c0,6.9-5.6,12.4-12.4,12.4H12.4c-6.9,0-12.4-5.6-12.4-12.4
			V12.4C0,5.6,5.6,0,12.4,0h401.7c6.9,0,12.4,5.6,12.4,12.4v454.9H426.6z"/>
	</g>
	
		<radialGradient id="SVGID_1_" cx="175.0026" cy="-1691.3082" r="27.2361" gradientTransform="matrix(0.9628 0 0 -1 16.7769 -1270.3112)" gradientUnits="userSpaceOnUse">
		<stop  offset="0" style="stop-color:#FFFFFF"/>
		<stop  offset="0.1427" style="stop-color:#FFFAFA"/>
		<stop  offset="0.306" style="stop-color:#FFECED"/>
		<stop  offset="0.4794" style="stop-color:#FFD5D6"/>
		<stop  offset="0.66" style="stop-color:#FFB5B7"/>
		<stop  offset="0.8442" style="stop-color:#FF8D8F"/>
		<stop  offset="1" style="stop-color:#FF6467"/>
	</radialGradient>
	
		<radialGradient id="SVGID_2_" cx="175.0147" cy="-1691.2261" r="27.8461" gradientTransform="matrix(0.9628 0 0 -1 16.7769 -1270.3112)" gradientUnits="userSpaceOnUse">
		<stop  offset="0" style="stop-color:#FFFFFF"/>
		<stop  offset="1" style="stop-color:#FF6467"/>
	</radialGradient>
	<path class="st10" d="M165.1,407.9c1.5,6.1,1.2,3.6,5.9,19.5c1.8,6.3,4.1,14.1,9.9,21.1c1,1.2,2.2,2.4,3.6,2.5
		c2.4,0.2,5.2-2.5,11.2-16.3c5.9-13.4,9.2-24.4,10.1-27.8c1-3.9,2.2-7.6,2.9-10.7c-17.7-0.7-32.2-1.5-46.8-5.1
		C162.6,396.2,163.7,401.6,165.1,407.9z"/>
	
		<radialGradient id="SVGID_3_" cx="81.8791" cy="-1683.6945" r="42.4791" gradientTransform="matrix(0.9628 0 0 -1 16.7769 -1270.3112)" gradientUnits="userSpaceOnUse">
		<stop  offset="0" style="stop-color:#FFFFFF"/>
		<stop  offset="0.1427" style="stop-color:#FFFAFA"/>
		<stop  offset="0.306" style="stop-color:#FFECED"/>
		<stop  offset="0.4794" style="stop-color:#FFD5D6"/>
		<stop  offset="0.66" style="stop-color:#FFB5B7"/>
		<stop  offset="0.8442" style="stop-color:#FF8D8F"/>
		<stop  offset="1" style="stop-color:#FF6467"/>
	</radialGradient>
	
		<radialGradient id="SVGID_4_" cx="81.8979" cy="-1683.6945" r="43.0184" gradientTransform="matrix(0.9628 0 0 -1 16.7769 -1270.3112)" gradientUnits="userSpaceOnUse">
		<stop  offset="0" style="stop-color:#FFFFFF"/>
		<stop  offset="1" style="stop-color:#FF6467"/>
	</radialGradient>
	<path class="st11" d="M83.2,365.8c-11,0.5-19,4.7-21.1,5.8c-0.7,0.3-1.2,0.7-1.8,1c0.7,3.1,1.7,6.5,2.5,10.3
		c0.9,3.6,5.6,21.7,13.4,43.3c0.7,2.2,1.7,4.7,2.9,7.8c0.3,0.9,4.1,10.1,11.7,21.9c2.5,3.8,3.4,5.1,5.1,5.2c3.8,0.5,7.6-5.6,9.5-9.2
		c10.8-19,16.3-39,16.4-39.7c2.2-7.8,5.2-19,9.3-32.6c-5.6-2.4-10.7-4.1-17.7-6.6C98.2,367,91.4,365.3,83.2,365.8z"/>
	
		<radialGradient id="SVGID_5_" cx="245.5414" cy="-1691.5536" r="27.4377" gradientTransform="matrix(0.9628 0 0 -1 16.7769 -1270.3112)" gradientUnits="userSpaceOnUse">
		<stop  offset="0" style="stop-color:#FFFFFF"/>
		<stop  offset="0.1427" style="stop-color:#FFFAFA"/>
		<stop  offset="0.306" style="stop-color:#FFECED"/>
		<stop  offset="0.4794" style="stop-color:#FFD5D6"/>
		<stop  offset="0.66" style="stop-color:#FFB5B7"/>
		<stop  offset="0.8442" style="stop-color:#FF8D8F"/>
		<stop  offset="1" style="stop-color:#FF6467"/>
	</radialGradient>
	
		<radialGradient id="SVGID_6_" cx="245.4825" cy="-1691.4338" r="28.095" gradientTransform="matrix(0.9628 0 0 -1 16.7769 -1270.3112)" gradientUnits="userSpaceOnUse">
		<stop  offset="0" style="stop-color:#FFFFFF"/>
		<stop  offset="1" style="stop-color:#FF6467"/>
	</radialGradient>
	<path class="st12" d="M228.8,397c3.6,8.8,5.9,16.4,7.6,21.9c1.8,6.3,4.9,12.1,6.5,18.3c0.5,2,2,7.3,6.1,11.2
		c2.4,2.2,3.9,2.4,4.9,2.4c2.4-0.3,3.9-3.1,4.6-4.4C265,434.2,268,424,268,424c4.9-15.3,5.9-16.8,8.1-26.5c0.5-2,0.9-3.9,1.2-5.6
		C263,396.8,247.6,397.4,228.8,397z"/>
	
		<radialGradient id="SVGID_7_" cx="338.4824" cy="-1683.551" r="42.8514" gradientTransform="matrix(0.9628 0 0 -1 16.7769 -1270.3112)" gradientUnits="userSpaceOnUse">
		<stop  offset="0" style="stop-color:#FFFFFF"/>
		<stop  offset="0.1427" style="stop-color:#FFFAFA"/>
		<stop  offset="0.306" style="stop-color:#FFECED"/>
		<stop  offset="0.4794" style="stop-color:#FFD5D6"/>
		<stop  offset="0.66" style="stop-color:#FFB5B7"/>
		<stop  offset="0.8442" style="stop-color:#FF8D8F"/>
		<stop  offset="1" style="stop-color:#FF6467"/>
	</radialGradient>
	
		<radialGradient id="SVGID_8_" cx="338.4657" cy="-1683.551" r="43.3998" gradientTransform="matrix(0.9628 0 0 -1 16.7769 -1270.3112)" gradientUnits="userSpaceOnUse">
		<stop  offset="0" style="stop-color:#FFFFFF"/>
		<stop  offset="1" style="stop-color:#FF6467"/>
	</radialGradient>
	<path class="st13" d="M354.5,365.8c-1.2,0-3.1,0.2-17.7,4.1c-2.5,0.7-8,2.2-10.7,2.9c-6.8,2-11.7,3.4-19.7,6.6
		c3.9,11.5,7,21.2,8.8,28c4.4,14.9,6.3,23.6,12.2,35.5c3.4,6.6,6.6,11.9,9,15.1c0.9,0.7,3.4,3.1,6.5,2.5c2.4-0.3,3.9-2.4,5.1-3.8
		c5.6-7.8,8.7-17,9.9-21.1c1.5-4.6,3.2-9,4.9-13.4c6.5-19,9.9-28.5,10.5-30.7c1.5-4.7,3.4-10.8,5.6-18.2c-2.4-1.2-4.6-2.4-6.3-3.1
		C366.4,367.7,361.3,365.5,354.5,365.8z"/>
	<path d="M379.7,371.8c-0.3-0.3-0.7-0.9-1-1c-3.4-3.6-9.3-10.1-19-13c-7.6-2.4-13.7-1.5-24.6,0.5c-4.1,0.7-9.7,2-31.9,9.5
		c-17.3,5.9-18,6.6-25.3,8.7c-10.7,2.9-19,3.9-26.5,4.9c-19.3,2.5-34.4,2.2-39.9,2.2c-12.4-0.3-25.4-0.7-41.9-4.9
		c-6.6-1.8-5.4-2-20.9-6.6c-12.1-3.6-22.4-6.8-34.6-9.5c-20.4-4.6-30.7-6.6-39.3-3.4c-6.6,2.5-11.7,6.6-15.5,10.7
		c-3.9,4.4-6.5,8.5-7.6,10.5c2.5-2.4,5.2-4.6,8.5-6.3c0.5-0.3,1.2-0.7,1.8-1c2.2-1.2,10.1-5.2,21.1-5.8c8.3-0.5,14.9,1.2,30.2,6.8
		c7.3,2.7,12.1,4.6,17.7,6.6c3.6,1.5,7.6,3.2,12.6,5.6c6.1,2.7,12.1,4.9,18.2,6.3c14.4,3.8,29.2,4.6,46.8,5.1c0.9,0,1.8,0,2.7,0.2
		c6.1,0.2,11.9,0.5,17.5,0.5c18.8,0.5,34.3-0.2,48.7-5.2c2.4-0.9,4.7-1.8,7-2.9c9.7-4.6,16.6-7.4,21.9-9.5
		c8.1-3.2,12.8-4.7,19.7-6.6c2.7-0.7,8-2.2,10.7-2.9c14.8-3.9,16.4-4.1,17.7-4.1c6.8-0.3,11.9,1.8,18.3,4.6c1.8,0.7,3.9,1.8,6.3,3.1
		c1.7,0.9,3.2,1.8,4.9,3.1C382.4,375,380.9,373.1,379.7,371.8z"/>
	<g>
		
			<linearGradient id="SVGID_9_" gradientUnits="userSpaceOnUse" x1="218.2853" y1="-1722.1218" x2="218.2853" y2="-1834.7957" gradientTransform="matrix(1 0 0 -1 0 -1270.3112)">
			<stop  offset="0" style="stop-color:#3B65FF"/>
			<stop  offset="0.1304" style="stop-color:#5C77FD"/>
			<stop  offset="0.2863" style="stop-color:#7C89FB"/>
			<stop  offset="0.4481" style="stop-color:#9596FA"/>
			<stop  offset="0.6162" style="stop-color:#A7A0F9"/>
			<stop  offset="0.7944" style="stop-color:#B2A6F8"/>
			<stop  offset="1" style="stop-color:#B5A8F8"/>
		</linearGradient>
		<path class="st14" d="M352,487.2c-2.7-5.9-7.9-15.4-17.6-24.3c-5.5-5.1-13.2-11.7-25.1-14.9c-11.5-3.1-20.7-0.9-31.9,1.7
			c-17.1,3.9-15.5,7.6-32.2,11.2c-18.5,3.9-32.8,2.2-36.3,1.7c-2.9-0.3-6.5-1.2-13.9-2.9c-14.1-3.1-19.5-4.9-26.7-6.6
			c-17.1-4.1-25.8-6.1-37.1-4.6c-18.8,2.6-30.9,14.2-33,16.3c-8,7.9-11.9,16.4-13.8,21.5c13,2.5,26.9,4.7,41.8,6.2
			c7,0.7,13.7,1.3,20.3,1.7c3.4,5.6,8.2,14.3,11.8,25.9c1.3,4.3,2,7.3,2.5,9c3.1,12.1,7.8,21.4,17.5,40.6
			c9.5,18.8,23.1,41.7,36.5,44.8c0.9,0.2,2.7,0.5,5.1,0.3c7.4-1,11.5-8.3,16.8-16.3c11-16.8,11.4-12.1,20-26.3
			c6.5-10.5,9.9-19.3,12.6-25.8c3.6-8.7,7.3-19.3,10.3-31.9c0.2-3.1,0.7-7.1,2.2-11.5c1.1-3.4,2.5-6.3,3.8-8.5
			c2.8,0.1,6.9,0.1,11.7-0.1c6.7-0.2,11.8-0.7,15-1.1C328.2,491.5,348.6,487.8,352,487.2z"/>
	</g>
	<path class="st5" d="M370.2,15.7"/>
	<circle cx="217.8" cy="7.7" r="22.9"/>
</g>
<g id="Ebene_2">
	<path class="st2" d="M308.7,508c-1.2-1-2.9-2.2-4.7-2c-4,0.5-5.9,7.6-6.8,10.8c-2.4,8.3-6.2,19.6-12.9,36.5c6.9,0.2,13,0,18.1-0.4
		c2-0.1,3.5-0.3,4.6-0.4c6.8-0.6,12.8-1.4,17.7-2.1c-1.5-5-2.8-9.2-3.7-12.3c-0.4-1.2-0.9-3.1-1.5-5.7c-0.2-0.8-0.4-1.6-0.6-2.7
		C318.1,525.5,315.9,514.3,308.7,508z"/>
	<path class="st2" d="M126.8,506.4c-1.2-1-2.9-2.2-4.7-2c-3.9,0.5-5.9,7.8-6.8,10.8c-2.2,7.8-5.8,18-11.5,32.6
		c13.9,1.6,19.2,2.4,22.1,2.9c0.8,0.2,1.9,0.4,3.5,0.7c6.8,1.1,12.4,1,16.1,0.7c-4.2-9.8-6.8-18.1-8.3-24
		C135.4,521.4,133.6,512.1,126.8,506.4z"/>
</g>
</svg>
