<?xml version="1.0" encoding="utf-8"?>
<!-- Generator: Adobe Illustrator 25.2.3, SVG Export Plug-In . SVG Version: 6.00 Build 0)  -->
<svg version="1.1" xmlns="http://www.w3.org/2000/svg" xmlns:xlink="http://www.w3.org/1999/xlink" x="0px" y="0px"
	 viewBox="0 0 430 479.7" style="enable-background:new 0 0 430 479.7;" xml:space="preserve">
<style type="text/css">
	.st0{fill:#1E1B3C;}
	.st1{fill:#FFFFFF;}
	.st2{fill:#3B65FF;}
	.st3{fill:#FC5E61;}
	.st4{fill:#B5A8F8;}
	.st5{fill:#0072EB;}
	.st6{fill:#1E1B3C;stroke:#1E1B3C;stroke-width:2;stroke-miterlimit:10;}
	.st7{fill:none;}
	.st8{fill:#FF6467;}
	.st9{fill:url(#SVGID_1_);stroke:url(#SVGID_2_);stroke-miterlimit:10;}
	.st10{fill:url(#SVGID_3_);stroke:url(#SVGID_4_);stroke-miterlimit:10;}
	.st11{fill:url(#SVGID_5_);stroke:url(#SVGID_6_);stroke-miterlimit:10;}
	.st12{fill:url(#SVGID_7_);stroke:url(#SVGID_8_);stroke-miterlimit:10;}
	.st13{fill:url(#SVGID_9_);}
	.st14{fill:#F5F5F5;}
	.st15{fill:url(#SVGID_10_);stroke:url(#SVGID_11_);stroke-miterlimit:10;}
	.st16{fill:url(#SVGID_12_);stroke:url(#SVGID_13_);stroke-miterlimit:10;}
	.st17{fill:url(#SVGID_14_);stroke:url(#SVGID_15_);stroke-miterlimit:10;}
	.st18{fill:url(#SVGID_16_);stroke:url(#SVGID_17_);stroke-miterlimit:10;}
	.st19{fill:url(#SVGID_18_);}
</style>
<g id="Ebene_1">
	<g id="Hintergrund">
		<rect x="-840.1" y="161.6" class="st0" width="430" height="479.7"/>
		<rect x="-840.1" y="572.6" class="st0" width="51.8" height="68.6"/>
		<rect x="-461.9" y="572.6" class="st0" width="51.8" height="68.6"/>
	</g>
	<g>
		<g id="Ebene_1_2_">
			<g id="Ebene_1_1_">
				<g id="Ebene_6">
				</g>
				<g>
					<path class="st1" d="M-622.8,540.3c-3.5-2.5-15.7-6.4-21.7-11.3c-17.3-14.2-30.5-26.6-50.2-45.9
						c-39.2-38.3-38.2-38.8-46.8-44.4c-15-9.5-31.3-19.6-52.5-17.3c-27.6,3.2-43.8,25-46,27.9c-5.4,7.7-8.8,19.5-14.8,42.7
						c-6.7,25.8-11.1,38.5-11.5,47.5c-0.6,11.5,0.9,18.2-4,26.3c-6.7,10.8-18.4,12.5-17.7,16.5c0.9,5.1,19.3,0.2,34.1,9.8
						c14.3,9.4,9.1,22.1,23.9,40.3c1.7,2,21.4,26.1,50.2,27.1c15.5,0.6,27-5.4,41.9-14c22.6-13,51.5-30,84.5-51.7L-622.8,540.3z"/>
					<path class="st2" d="M-622.6,670.9h102.7c63.8,56,80.6,136.7,49.6,187.6c-23.4,38.2-81,61.2-125.6,44.5
						c-12.1-4.6-20.8-11.9-26.6-17.9h-0.3c-5.9,6-14.6,13.5-26.6,17.9c-44.6,16.6-102.4-6.4-125.8-44.5
						c-30.9-51-14.1-131.8,49.7-187.6H-622.6L-622.6,670.9z"/>
					<path class="st1" d="M-622.8,540.3c3.5-2.5,15.7-6.4,21.7-11.3c17.3-14.2,30.5-26.6,50.2-45.9c39.2-38.3,38.2-38.8,46.8-44.4
						c15-9.5,31.3-19.6,52.5-17.3c27.5,3.2,43.8,24.9,45.9,27.9c5.4,7.7,8.8,19.5,14.8,42.7c6.7,25.8,11.1,38.5,11.5,47.5
						c0.6,11.5-0.9,18.2,4,26.3c6.7,10.8,18.4,12.5,17.7,16.5c-0.9,5.1-19.3,0.2-34.1,9.8c-14.3,9.4-9.1,22.1-23.9,40.3
						c-1.7,2-21.4,26.1-50.2,27.1c-15.5,0.6-27-5.4-41.9-14c-22.6-13-51.5-30-84.5-51.7L-622.8,540.3z"/>
					<path class="st1" d="M-726.8,691.5c-3.5,16.6-6.5,34.2-9.1,53.2c-3.2,22.8-4.7,43.9-5.6,63.8c1.7-1.8,4.2-4.4,7.3-7.9
						c3.3-3.8,5.6-6.5,6.4-7.4c8.6-9.5,18.7-18.7,18.7-18.7c6.2-3.6,14.8-5.6,24.9-8.8c14.3-4.4,21-5,30-5l-2.1-69.2L-726.8,691.5
						L-726.8,691.5z"/>
					<path class="st1" d="M-518.4,691.5c3.5,16.6,6.5,34.2,9.1,53.2c3.2,22.8,4.7,44.1,5.6,64c-1.7-1.8-12.1-4.2-15.1-7.7
						c-3.3-3.6-4.6-4.7-6.5-6.9c-8.6-9.5-13.1-15.1-13.1-15.1c-6.2-3.6-11.3-6.9-21.3-10c-14.3-4.4-22.2-6.2-31.4-6l2.1-71.4
						L-518.4,691.5L-518.4,691.5z"/>
					<polyline class="st0" points="-622.8,854.8 -650.5,853.9 -622.6,884.3 -622.6,884.8 -622.6,884.5 -622.4,884.8 -622.4,884.3 
						-594.7,853.9 -622.4,854.8 					"/>
					<path class="st2" d="M-622,268.9c0.6,1.5,1.2,3.3,1.7,5.4c0.3,1.7,0.3,3.2,0.3,4.4c-0.3,6.5,0,18.1,7.1,28.3
						c2.1,3.3,6,7.7,23.4,17.2c19.4,10.5,24.4,10.4,40,19c13,7.1,20.2,11.1,28.1,19.5c15.4,16.3,19.6,34.8,21,41.1
						c1.7,8.1,1.7,15.1,1.5,20L-622.5,509l-122.2-84.7c-0.2-4.7-0.2-11.9,1.5-20c1.2-6.2,5.4-24.6,21-41.1
						c7.9-8.4,15.1-12.4,28.1-19.5c15.7-8.8,20.7-8.4,40-19c17.3-9.5,21.1-13.9,23.4-17.2c7.1-10.2,7.4-21.7,7.1-28.3
						c0-1.2,0.2-2.7,0.3-4.4c0.3-2.1,1-4,1.7-5.4"/>
					<ellipse class="st3" cx="-622.6" cy="402.4" rx="34.2" ry="34.2"/>
					<path class="st4" d="M-622.8,884.8c-5.1-2.9-12.8-7.1-22.8-11.3c-13.8-5.6-17.2-5.2-25.5-9.4c-10.6-5.1-17.2-1-29.6-14.3
						c-8.9-9.5-14.2-17.9-27.3-29.9c-5.6-5.1-10.6-9.1-13.8-11.5h238.3c-3.3,2.4-8,6.4-13.8,11.5c-13.1,12.1-18.4,20.4-27.3,29.9
						c-12.4,13.3-19,9.3-29.6,14.3c-8.4,4-11.9,3.6-25.5,9.4c-9.8,4.2-17.7,8.1-22.8,11.3"/>
					<path class="st5" d="M-536.1,774.1c-22.8-14.8-45.4-16.3-54.9-16.5l-31.5-1.5l0,0l-31.5,1.5c-9.5,0-32.1,1.5-54.9,16.5
						c-17.9,11.5-27.8,26.1-32.6,34.1c14.6,7.3,26.3,13.9,34.4,18.5c25.4,14.6,33.3,21,48.9,25.2c14.3,4,27.1,3.5,35.7,2.5l0,0
						c8.6,0.9,21.3,1.2,35.7-2.5c15.5-4.2,23.4-10.8,48.9-25.2c8.1-4.7,20-11.3,34.4-18.5C-508.5,800.4-518.2,785.9-536.1,774.1z"/>
					<path class="st0" d="M-622.1,799.6c-48.3,0-88.7,4.2-119.4,8.6c30.6,4.4,70.7,8.8,119.2,8.8c47.4,0,88.6-4.4,118.9-8.8
						C-534,803.8-574.9,799.6-622.1,799.6z"/>
					<path class="st4" d="M-326.1,593.3c-1.5-0.2-2.9,23.5-15.8,56c0,0-4.2,11.1-26.9,38.3c-1.2,1.5-4,5-7.9,5
						c-2,0-4.6-0.9-11.3-9.5c-7.4-8.9-6.9-10.8-10.8-13.5c-4.6-3.3-11.1-4.7-16.9-3.3c-10.2,2.7-14.6,15-16.7,21.1
						c-7.1,20.7,1.7,39.2,3.8,43.9c3.8,8.4,8.6,18.2,19.2,22.5c10.8,4.2,21.1,0.2,25.8-1.7c3.8-1.5,18.5-7.9,33.5-34.7
						c5.1-9.1,12.1-23.7,18.1-55.1C-324.8,625.3-324.5,593.3-326.1,593.3z"/>
					<path class="st4" d="M-919.1,593.3c1.5-0.2,2.9,23.5,15.8,56c0,0,4.2,11.1,26.9,38.3c1.2,1.5,4,5,7.9,5c2,0,4.6-0.9,11.3-9.5
						c7.4-8.9,6.9-10.8,10.8-13.5c4.6-3.3,11.1-4.7,16.9-3.3c10.6,2.7,14.6,15,16.7,21.1c7.1,20.7-1.7,39.2-3.8,43.9
						c-3.8,8.4-8.6,18.2-19.2,22.5c-10.8,4.2-21.1,0.2-25.8-1.7c-3.8-1.5-18.5-7.9-33.5-34.7c-5.1-9.1-12.1-23.7-18.1-55.1
						C-920.8,625.3-921,593.3-919.1,593.3z"/>
					<path class="st0" d="M-723.5,856.1c1.2,1,2.9,2.4,5,2c4.2-0.6,6.2-8,7.1-11.1c2.4-8,6-18.5,12.1-33.7
						c-35-3.8-17.2-3.3-39.2-4.7c-0.9,0-1.8-0.2-2.7-0.2c4,10,6.4,18.5,7.7,25.2C-733,838.1-730.8,849.8-723.5,856.1z"/>
					<path class="st0" d="M-521.1,856.1c-1.2,1-2.9,2.4-5,2c-4.2-0.6-6.2-8-7.1-11.1c-2.4-8-6-18.5-12.1-33.7
						c35-3.8,17.2-3.3,39.2-4.7c0.9,0,1.8-0.2,2.7-0.2c-4,10-6.4,18.5-7.7,25.2C-511.8,838.1-513.9,849.8-521.1,856.1z"/>
					<path class="st2" d="M-800.8,561.6c-4.4,1-12.3,3.8-19.5,10.6c-11.1,10-13.9,22.6-14.6,26.9c-0.9,4.6-2.5,15.5,2.4,28.1
						c4.2,11.1,11.3,17.7,13.1,19.3c11.6,10.4,25.6,11.9,30.5,12.1l-9.4-9.1l-8.9-15.4l-11.4-29.1l14.2-19.4l10.3-12.3L-800.8,561.6
						z"/>
					<path class="st4" d="M-694.5,487.9c4.6,2.9,11.5,8.4,17.2,17.3c8,13,8.1,25.5,8.1,32.8c0,6.7-0.2,29-16.7,48.1
						c-14.8,17.3-33.7,21.7-40.1,23.1c-14.8,3.5-33.7,3.2-43.1-0.6c-0.9-0.3-3.2-1.2-6.4-1.5c-8.8-0.6-15.5,5-16.3,5.4
						c-7.4,6.4-8,15.8-8.1,19.2c-0.7,14.3,8.9,24.6,10.9,26.4c-4.4-1.7-15.1-6.4-23.1-18.1c-2.7-3.8-9.1-13.5-8.6-27.3
						c0.2-3.6,1.2-15.7,10.8-26.3c9.6-10.8,21.7-13,24.9-13.3L-694.5,487.9z"/>
					<path class="st3" d="M-901.6,437.9c3.5-1.7,6.9-2,7.7-4.4c0.3-1,0-2.1-0.3-2.7c-2.7-4.6-29.1-1.8-37.5,11.6
						c-2.5,4.2-4,9.5-4,9.5c-0.7,2.5-1.7,5.9-1,10.2c0.6,5.1,2.7,8.6,3.8,10.6c4.4,7.3,10.8,10.8,13.8,12.4c4,2.1,10.6,5,23.5,5.6
						c4.6,0.2,15.7,0.6,37.1-4.4c10.8-2.5,21.3-5,34.7-10.8c12.8-5.4,21-10.9,38.9-16.9c4.6-1.5,7.7-2.4,11.6-3.2
						c5.1-0.9,15.5-2.1,28.1,0.9c10.9,2.5,18.4,7.3,23.5,10.6c7.7,5,15.5,12.4,30.5,26.9c8.1,7.9,10.6,10.6,16,12.5
						c2.5,0.9,13.1,5.1,23.9-0.2c13.3-6.5,15.4-21.9,15.5-23.5c1.2-12.3-5.4-21.3-8.8-25.6c-3.4-4.3-6.5-7.3-9.8-9.6
						c-19.9-15-43-20-46.1-20.7c-4.2-0.9-21.9-4.2-45.6-0.7c-8,1-18.1,3.3-41.8,12.4c0,0-79.6,30.5-104.2,33.3
						c-2.4,0.2-7.4,0.6-12.5-2c-1.7-0.9-6-2.9-7.9-7.7c-2-5.1,0.3-10.2,1.8-13.1C-910.2,446.6-907.5,440.7-901.6,437.9z"/>
					<g>
						<ellipse class="st6" cx="-761.7" cy="523.1" rx="69" ry="69"/>
						<ellipse class="st1" cx="-762" cy="523.6" rx="59.8" ry="59.8"/>
						<ellipse class="st4" cx="-761.4" cy="523.1" rx="46.3" ry="46.3"/>
						<ellipse class="st2" cx="-761.3" cy="522.1" rx="30" ry="30"/>
						<ellipse class="st0" cx="-761.1" cy="522.1" rx="25.4" ry="25.4"/>
					</g>
					<path class="st2" d="M-447.2,561.6c4.4,1,12.3,3.8,19.5,10.6c11.1,10,13.9,22.6,14.6,26.9c0.9,4.6,2.4,15.5-2.4,28.1
						c-4.2,11.1-11.3,17.7-13.1,19.3c-11.6,10.4-25.6,11.9-30.5,12.1l9.4-9.1l8.9-15.4l11.3-29.1l-14.2-19.4l-10.4-12.3
						L-447.2,561.6z"/>
					<path class="st4" d="M-553.6,487.9c-4.6,2.9-11.5,8.4-17.2,17.3c-8,13-8.1,25.5-8.1,32.8c0,6.7,0.2,29,16.7,48.1
						c14.8,17.3,33.7,21.7,40.3,23.1c14.8,3.5,33.7,3.2,43.1-0.6c0.9-0.3,3.2-1.2,6.4-1.5c8.8-0.6,15.5,5,16.3,5.4
						c7.4,6.4,8,15.8,8.1,19.2c0.7,14.3-8.9,24.6-10.9,26.4c4.4-1.7,15.1-6.4,23.1-18.1c2.7-3.8,9.1-13.5,8.6-27.3
						c-0.2-3.6-1.2-15.7-10.6-26.3c-9.6-10.8-21.7-13-24.9-13.3L-553.6,487.9z"/>
					<g>
						<ellipse class="st6" cx="-486.4" cy="523.1" rx="69" ry="69"/>
						<ellipse class="st1" cx="-486.1" cy="523.6" rx="59.8" ry="59.8"/>
						<ellipse class="st4" cx="-486.7" cy="523.1" rx="46.3" ry="46.3"/>
						<ellipse class="st2" cx="-486.7" cy="522.1" rx="30" ry="30"/>
						<ellipse class="st0" cx="-486.7" cy="522.1" rx="25.2" ry="25.2"/>
					</g>
					<path class="st3" d="M-343.8,437.9c-3.5-1.7-6.9-2-7.7-4.4c-0.3-1,0-2.1,0.3-2.7c2.7-4.6,29.1-1.8,37.5,11.6
						c2.5,4.2,4,9.5,4,9.5c0.7,2.5,1.5,5.9,1,10.2c-0.6,5.1-2.7,8.6-3.8,10.6c-4.4,7.3-10.6,10.8-13.8,12.4c-4,2.1-10.6,5-23.5,5.6
						c-4.6,0.2-15.8,0.6-37.1-4.4c-10.8-2.5-21.3-5-34.7-10.8c-12.8-5.4-21-10.9-38.8-16.9c-4.6-1.5-7.7-2.4-11.6-3.2
						c-5.1-0.9-15.5-2.1-28.1,0.9c-10.9,2.5-18.4,7.3-23.5,10.6c-7.7,5-15.5,12.4-30.5,26.9c-8.1,7.9-10.6,10.6-16,12.5
						c-2.5,0.9-13.1,5.1-23.9-0.2c-13.3-6.5-15.4-21.9-15.5-23.5c-1.2-12.3,5.4-21.3,8.8-25.6c3.3-4.4,6.5-7.3,9.8-9.6
						c19.9-15,43-20,46.1-20.7c4.2-0.9,21.9-4.2,45.6-0.7c8,1,17.9,3.3,41.8,12.4c0,0,79.6,30.5,104.2,33.3c2.4,0.2,7.4,0.6,12.5-2
						c1.7-0.9,6-2.9,7.9-7.7c2-5.1-0.3-10.2-1.8-13.1C-335.2,446.6-337.9,440.7-343.8,437.9z"/>
					<g>
						<g>
							<path class="st7" d="M-667.4,593c-0.2,0-0.2,0-0.3,0C-667.6,593-667.6,593-667.4,593L-667.4,593z"/>
							<path class="st7" d="M-576.1,593c-0.6,0-1,0-1.8,0l0,0C-577.3,593-576.8,593-576.1,593z"/>
							<path class="st0" d="M-653.9,616.2c9.5,2.1,19.2,4.6,25.8,13.1c2.9,3.6,4.4,7.4,5.2,10.2l0,0c0.7-2.7,2.4-6.4,5.2-10.2
								c6.7-8.6,16.5-10.9,25.8-13.1c3.5-0.9,15-3.3,30.3-1.5c9.8,1.2,17.7,3.6,22.9,5.9l0.2,0.2c-0.3-11.1-1-19.5-1.2-21.9
								c-5.2-2-12.8-4.4-22.1-5.4c-5.4-0.7-10.6-0.7-14.8-0.6c-0.6,0-1.2,0-1.8,0.2l0,0c-6.7,0.3-11.6,1.5-13.8,2
								c-9.5,2.1-19.2,4.6-25.8,13.1c-2.9,3.6-4.4,7.4-5.2,10.2l0,0c-0.7-2.7-2.4-6.4-5.2-10.2c-6.7-8.6-16.5-10.9-25.8-13.1
								c-2-0.6-6.7-1.5-13.5-2l0,0c-0.2,0-0.2,0-0.3,0c-4.7-0.3-10.2-0.2-16.5,0.6c-9.1,1-16.5,3.3-21.7,5.2
								c-0.2,2.1-0.7,10.8-1.2,21.9c5.2-2.1,13.1-4.6,22.9-5.9C-668.9,613-657.4,615.6-653.9,616.2z"/>
							<path class="st0" d="M-628,609.1c2.9,3.6,4.4,7.4,5.2,10.2l0,0c0.7-2.7,2.4-6.4,5.2-10.2c6.7-8.6,16.5-10.9,25.8-13.1
								c2-0.6,6.9-1.5,13.8-2c4.6-7.4,6.4-8.6,6.4-8.6c2.4-2.9,4.7-5.2,6.4-6.9c-4.2-3.5-10.2-9.4-14.8-17.9c-5.2-10-4-15-9.5-30
								c-4.6-12.5-6.9-19.2-13.1-24.8c-8.1-7.3-17.5-8.6-19.9-8.8h-0.2h-0.2c-2.1,0.2-11.6,1.7-19.9,8.8
								c-6.4,5.6-8.6,12.1-13.1,24.8c-5.4,15.1-4.2,20-9.5,30c-4.6,8.8-10.6,14.6-14.8,17.9c1.7,1.7,3.8,4,6.4,6.9
								c0,0,1.8,1.2,6.4,8.6c6.5,0.3,11.5,1.5,13.5,2C-644.5,598.2-634.7,600.5-628,609.1z"/>
							<path class="st1" d="M-561.3,653.1c-15.4-1.8-26.9,0.6-30.3,1.5c-9.5,2.1-19.2,4.6-25.8,13.1c-2.9,3.6-4.4,7.4-5.2,10.2l0,0
								c-0.7-2.7-2.4-6.4-5.2-10.2c-6.7-8.6-16.5-10.9-25.8-13.1c-3.5-0.9-15-3.3-30.3-1.5c-9.8,1.2-17.7,3.6-22.9,5.9h-0.2
								c0.2,5.9,0.7,11.3,1.2,16.3c0,0.7,0.2,1.5,0.3,2.1c5.2-2,12.5-4.2,21.4-5.2c15.4-1.8,26.9,0.6,30.3,1.5
								c9.5,2.1,19.2,4.6,25.8,13.1c2.9,3.6,4.4,7.4,5.2,10.2l0,0c0.7-2.7,2.4-6.4,5.2-10.2c6.7-8.6,16.5-10.9,25.8-13.1
								c3.5-0.9,15-3.3,30.3-1.5c9.1,1,16.6,3.3,21.9,5.2c0.2-0.7,0.2-1.7,0.3-2.4c0.6-5,1-10.4,1.2-16l-0.3-0.2
								C-543.6,656.9-551.5,654.4-561.3,653.1z"/>
							<path class="st0" d="M-561.3,633.9c-15.4-1.8-26.9,0.6-30.3,1.5c-9.5,2.1-19.2,4.6-25.8,13.1c-2.9,3.6-4.4,7.4-5.2,10.2l0,0
								c-0.7-2.7-2.4-6.4-5.2-10.2c-6.7-8.6-16.5-10.9-25.8-13.1c-3.5-0.9-15-3.3-30.3-1.5c-9.8,1.2-17.7,3.6-22.9,5.9l-0.3,0.3
								c0,6.4,0,12.8,0.2,19h0.2c5.2-2.1,13.3-4.6,22.9-5.9c15.4-1.8,26.9,0.6,30.3,1.5c9.5,2.1,19.2,4.6,25.8,13.1
								c2.9,3.6,4.4,7.4,5.2,10.2l0,0c0.7-2.7,2.4-6.4,5.2-10.2c6.7-8.6,16.5-10.9,25.8-13.1c3.5-0.9,15-3.3,30.3-1.5
								c9.8,1.2,17.7,3.6,22.9,5.9l0.3,0.2c0.2-6.2,0.3-12.5,0.3-19l-0.7-0.3C-543.6,637.8-551.5,635.2-561.3,633.9z"/>
							<path class="st1" d="M-538.4,620.6c-5.2-2.1-13.3-4.6-22.9-5.9c-15.4-1.8-26.9,0.6-30.3,1.5c-9.5,2.1-19.2,4.6-25.8,13.1
								c-2.9,3.6-4.4,7.4-5.2,10.2l0,0c-0.7-2.7-2.4-6.4-5.2-10.2c-6.7-8.6-16.5-10.9-25.8-13.1c-3.5-0.9-15-3.3-30.3-1.5
								c-9.8,1.2-17.7,3.6-22.9,5.9c-0.2,5.9-0.3,12.5-0.6,19.5l0.3-0.3c5.2-2.1,13.3-4.6,22.9-5.9c15.4-1.8,26.9,0.6,30.3,1.5
								c9.5,2.1,19.2,4.6,25.8,13.1c2.9,3.6,4.4,7.4,5.2,10.2l0,0c0.7-2.7,2.4-6.4,5.2-10.2c6.7-8.6,16.5-10.9,25.8-13.1
								c3.5-0.9,15-3.3,30.3-1.5c9.8,1.2,17.7,3.6,22.9,5.9l0.7,0.3C-537.8,633.2-537.9,626.6-538.4,620.6L-538.4,620.6z"/>
							<path class="st0" d="M-539.4,677.7c-5.2-2-12.8-4.2-21.9-5.2c-15.4-1.8-26.9,0.6-30.3,1.5c-9.5,2.1-19.2,4.6-25.8,13.1
								c-2.9,3.6-4.4,7.4-5.2,10.2l0,0c-0.7-2.7-2.4-6.4-5.2-10.2c-6.7-8.6-16.5-10.9-25.8-13.1c-3.5-0.9-15-3.3-30.3-1.5
								c-8.9,1-16.3,3.3-21.4,5.2c0.7,5.1,2.1,11.1,5.6,17.2c0.3,0.6,0.6,0.9,0.9,1.5c1.2,2,5.6,8.8,14.2,14
								c0.2,0.2,0.3,0.2,0.6,0.3c6.5,4,12.5,5.2,18.4,6.5c5.1,1,11.9,2.1,20.2,2v5.2c0.3,1.5,0.9,3.3,2.1,5.4c2.4,4,5.6,6,7.3,6.9
								c5.4,3.3,10.9,3.6,13.5,3.5h0.2c2.5,0,8-0.2,13.5-3.5c1.7-0.9,4.7-2.9,7.3-6.9c1.2-2.1,1.8-4.2,2.1-5.4v-5.2
								c8.1,0.2,15.1-0.9,20.2-2c5.9-1.2,11.6-2.5,18.4-6.5c0.2-0.2,0.3-0.2,0.6-0.3c8.6-5.2,13-12.1,14.2-14
								c0.3-0.6,0.6-0.9,0.9-1.5l0,0C-541.6,688.6-540.3,682.7-539.4,677.7z M-673.6,690.8c-0.9,0-1.7,0-2.5,0
								C-675.3,690.8-674.3,690.8-673.6,690.8z M-646.8,694.7c2.4,0.7,4.6,1.5,6.9,2.4C-642.2,696.1-644.5,695.5-646.8,694.7z
								 M-626,708.8c1,1.8,2,3.6,2.5,5.2C-624.3,712.3-624.9,710.7-626,708.8z M-622.8,716.2c0.6-2,1.7-4.6,3.3-7.3
								C-621.1,711.6-622.1,714.2-622.8,716.2z M-605.6,697c2.1-0.9,4.6-1.8,6.9-2.4C-601.2,695.5-603.4,696.1-605.6,697z"/>
						</g>
						<g>
							<path class="st4" d="M-686.1,663.5c-0.3,2-0.6,5.4,0.6,9.5c2,7.1,7.1,10.9,9.1,12.5c5.2,4,5.9,1.2,15.1,6.4
								c3.2,1.7,6.4,3.8,11.1,4c1.8,0.2,3.3,0,4.4-0.2v-11.2V666l-22.5-8.4L-686.1,663.5z"/>
							<path class="st3" d="M-645.7,675.8c0-7.3,0-5.4,0-12.8c-1.7-1.2-4-2.9-6.9-4.7c-2.1-1.2-6-3.5-10-4.7
								c-8.9-2.7-17.2,0-19.3,0.7c-2.9,0.9-11.3,4-16.7,12.8c-0.2,0.2-0.3,0.3-0.6,0.9c-1,1.8-5.1,9.1-3.6,18.4
								c0.2,0.9,0.6,3.5,1.8,6.5c2,5.1,5.1,8.1,7.3,10.4c5.4,5.4,10.9,8.1,13.8,9.5c4.4,2,7.9,2.9,11.9,3.8c6,1.5,10.9,2,14,2.1
								c3.5,0.3,6.4,0.3,8.6,0.2V708c-0.9,0-2.4,0-4,0c-3.5,0-10.4-0.2-17.7-2.1c-6-1.7-11.5-3.3-16.5-8c-1.7-1.8-6.4-6.4-7.1-14
								c-0.3-2.5-0.6-9.8,4.6-16c2.9-3.5,6.5-5.1,8.4-5.9c1-0.3,7.7-2.5,14.3,0.3c4.7,2,4.2,5.4,10,9.5
								C-650.7,674.2-647.8,675.4-645.7,675.8z"/>
						</g>
						<g>
							<path class="st4" d="M-559.1,663.5c0.3,2,0.6,5.4-0.6,9.5c-2,7.1-7.1,10.9-9.1,12.5c-5.2,4-5.9,1.2-15.1,6.4
								c-3.2,1.7-6.4,3.8-11.1,4c-1.8,0.2-3.3,0-4.4-0.2v-11.2V666l22.5-8.4L-559.1,663.5z"/>
							<path class="st3" d="M-599.5,675.7c0-7.3-0.2-5.2-0.2-12.5c1.7-1.2,4-2.9,6.9-4.7c2.1-1.2,6-3.5,10-4.7
								c8.9-2.7,17.2,0,19.3,0.7c2.9,0.9,11.3,4,16.7,12.8c0.2,0.2,0.3,0.3,0.6,0.9c1,1.8,5.1,9.1,3.6,18.4
								c-0.2,0.9-0.6,3.5-1.8,6.5c-2,5.1-5.1,8.1-7.3,10.4c-5.4,5.4-10.9,8.1-13.8,9.5c-4.4,2-7.9,2.9-11.9,3.8
								c-6,1.5-10.9,2-14,2.1c-3.5,0.3-6.4,0.3-8.6,0.2v-10.9c0.9,0,2.4,0,4,0c3.5,0,10.4-0.2,17.7-2.1c6-1.7,11.5-3.3,16.5-8
								c1.7-1.8,6.4-6.4,7.1-14c0.3-2.5,0.6-9.8-4.6-16c-2.9-3.5-6.5-5.1-8.4-5.9c-1-0.3-7.7-2.5-14.3,0.3c-4.7,2-4.2,5.6-10,9.5
								C-594.7,674-597.4,675.1-599.5,675.7z"/>
						</g>
					</g>
				</g>
				<path class="st8" d="M-393.8,752.8"/>
				<path class="st4" d="M-796.2,325.8c0-100.2,77-181.6,172.2-181.6s172.2,81.3,172.2,181.6"/>
				<ellipse class="st3" cx="-624.2" cy="334.4" rx="172.4" ry="141.4"/>
				<path class="st0" d="M-461,334.4"/>
				<polyline class="st0" points="-788.1,306.4 -798.9,292.5 -783.8,300.6 -793.4,280.1 -776.4,293.1 -786.4,270.2 -764.4,280.9 
					-779,257.6 -751.8,271.9 -767.6,244.8 -736.3,263.4 -756.1,230.5 -723.4,256.2 -739.6,214.6 -703.5,248.9 -719.8,198.6 
					-691.1,241.5 -695.9,191.1 -670.1,237.1 -668.2,185.1 -648,233.4 -641.8,183.2 -627.1,230.2 -611.5,183.2 -604,230.8 
					-578.5,188.3 -578.5,234.3 -547.7,200.7 -557.7,242.1 -523.7,213.4 -533.7,250.7 -500.6,222.6 -518,260 -489.3,238.3 
					-503.7,267.8 -475.5,253.9 -488.1,278.5 -465.3,266.1 -477,288.8 -455.7,279.3 -468.1,297.1 -453.9,293.3 -459.9,306.4 				"/>
				<polyline class="st0" points="-465.8,356.5 -458.1,368.6 -447,380.4 -462.3,373.7 -452.5,391.4 -469.7,380.3 -459.3,400.1 
					-481.6,391 -466.5,410.9 -494.1,399.1 -477.7,422.4 -509.3,406.7 -489.1,435 -522,413.3 -505.3,449.1 -541.9,419.8 
					-524.8,463.2 -554.2,426.4 -548.8,470.1 -575.2,430.6 -576.3,475.8 -597.2,434.1 -602.8,477.8 -618,437.1 -633,478.3 
					-641.2,437.1 -666.1,474.3 -666.6,434.4 -697.1,464 -687.6,427.8 -721.1,453.5 -711.8,420.7 -744.5,445.7 -727.7,412.9 
					-755.9,432.1 -741.9,406.5 -770,418.9 -757.7,397.4 -780.4,408.4 -768.9,388.6 -790.1,397.1 -778,381.5 -792.1,385 
					-786.2,373.6 -797.3,376.1 -788.2,369.7 -785.4,365.5 				"/>
				<ellipse class="st1" cx="-624.2" cy="336.5" rx="172.4" ry="96.4"/>
				<ellipse class="st5" cx="-624" cy="336.5" rx="77.4" ry="74.4"/>
				<g id="Ebene_2_1_">
				</g>
				<g id="Ebene_3">
				</g>
				<path class="st4" d="M-451.7,345.6"/>
				<circle cx="-623.7" cy="336.5" r="25.8"/>
			</g>
		</g>
		<g>
			<path class="st3" d="M-407.9,831c2.7-9,11.4-42.6-6.1-75.6c-4.1-7.7-13.2-24.5-33.3-35c-20.5-10.7-40.3-8.8-47.6-7.7
				c-8.6,1.4-14.4,3.8-23.6,7.7c-20.5,8.8-25.8,15.4-41.8,23.9c-12.2,6.7-35,19.5-63.5,18.7c-11.2-0.3-19.5-3-36.2-8.2
				c-27.9-8.8-50.9-21.6-56.3-24.7c-18.4-10.4-21.4-14.7-33.3-16.8c-16-3.3-29.5,0.6-34.7,2.3c-6.5,2-20.9,7.1-33.3,20.3
				c-16.2,16.7-19.7,36.2-22.1,49.2c-1.7,9.6-3.3,25.5,0.6,45"/>
			<path class="st4" d="M-478.6,737.4c31.6,3.6,45.4,17.4,48.3,20.4c17.7,18.6,19.6,45.8,20.3,58.9c0.8,14.4-0.8,28.8-1.9,38
				c-2.6,22.5-6,26.5-4.1,39.4c0.9,5.8,2.5,9.4,13.3,20.1c5.4,5.4,7.8,4.9,12.6,10.6c1.8,2.4,9.5,12.4,8.7,25.6
				c-0.7,12.4-8.8,20.7-15.2,27c-15.4,15.5-33.1,20.3-38.2,21.4c-75.5,19.9-111.9,23.3-111.9,23.3c-76.6,6.9-73.9,3.7-167.1,8.6
				c0,0-37.6,1.9-85.3-8c-2.5-0.5-11.5-2.6-22.5-7.8c-10.3-5.2-34.4-16.9-36.3-36.8c-0.9-8.9,3.2-16.9,5.1-20.9
				c1.1-2.3,2.3-4.1,3.5-5.5c5.3-6.9,7.7-6.8,11.5-12.6c3.2-4.7,4.5-9.6,4.9-10.9c0.7-2.3,1.1-4.9,1.2-5.6c0.2-1,0.6-2.9,0.9-6.2
				c0.6-4.9,0.7-8.9,0.8-11.4c0.1-5.3,0.2-8-0.1-11.4c-0.7-6.4-2.8-10.9-3.4-12.9c-5-19.8-7.6-29.8-8.5-36.5
				c-0.9-8.9-2.9-26.9,4.7-46.5c8.1-20.9,23.8-32.1,29.3-35.8c16.5-11.1,33.4-13.4,46.2-14.1c66.5-3.6,91.3,35.3,146.7,32.3
				C-555.8,776.6-541.3,730.2-478.6,737.4z"/>
			<path class="st0" d="M-418.1,914.8c-0.3-6.9-2.3-12.1-2.8-14c-1.1-3.8-2.7,2.1-3.8-37.4c-0.6-24.7-1-37-1-43.5
				c0.2-16.8,1-23-2.3-33.2c-2.3-6.9-5.3-12.6-8.2-16.7c-2-1.1-3.8-2.5-5.5-3.5c-2.5,8.2-4.6,15.1-6.3,20.5
				c-0.8,2.5-4.4,13.2-11.9,34.7c-1.9,5.2-3.6,9.9-5.5,15.1c-1.7,4.6-5,15.1-11.2,23.8c-1.1,1.7-2.8,3.8-5.8,4.3
				c-3.5,0.6-6.3-2-7.3-2.8c-2.7-3.6-6.3-9.6-10.2-17c-6.7-13.4-8.8-23.1-13.8-40.1c-2.3-7.4-5.5-18.4-9.9-31.6
				c-6.1,2.5-13.7,5.8-24.7,10.7c-2.7,1.1-5.3,2.3-7.9,3.3c-0.3,2-0.8,4.1-1.4,6.3c-2.5,10.9-3.8,12.4-9.1,29.9
				c0,0-3.5,11.4-10.7,25.3c-0.8,1.4-2.5,4.4-5.2,5c-1,0.2-2.7,0-5.5-2.7c-4.6-4.4-6.3-10.4-6.9-12.6c-2-7.1-5.3-13.7-7.3-20.7
				c-1.9-6.1-4.4-14.4-8.6-24.7c-6.3-0.2-12.9-0.3-19.8-0.6c-1,0-2,0-3-0.2c-0.8,3.5-2,7.4-3.3,12.1c-1.1,3.8-5,16.3-11.4,31.4
				c-6.7,15.5-9.8,18.5-12.6,18.4c-1.7-0.2-2.8-1.4-4.1-2.8c-6.5-7.9-9.1-16.7-11.2-23.8c-5.3-17.9-5.2-15.1-6.7-22
				c-1.7-6.9-2.8-13.2-3.6-18.7c-6.7-1.9-13.7-4.1-20.5-7.1c-5.8-2.7-10.2-4.4-14.2-6.3c-4.6,15.7-8.2,28.3-10.5,36.8
				c-0.2,0.8-6.3,23.4-18.5,44.8c-2.3,4.1-6.3,10.7-10.7,10.4c-1.7-0.2-2.8-1.4-5.8-5.9c-8.9-13.4-13.1-24-13.3-24.8
				c-1.4-3.5-2.5-6.3-3.3-8.8c-8.6-24.5-14-44.6-15.1-48.9c-1-4.3-2-8.2-2.8-11.6c-3.6,2.3-6.9,4.6-9.6,7.1c0,0.2-0.2,0.2-0.2,0.3
				c-4.1,7.3-6.5,14.9-8.2,31.7c-3,29.7,1.1,32.4-0.6,63.3c-1.4,21.3-2.1,28.8-3.5,34.4c-0.2,0.9-1.1,3-1.8,6.2
				c0,0-1.5,6.4-1.4,12.1c0.1,6.9,4.9,17.9,13.8,25.8c12.2,10.7,29,10.9,54.5,14.7c1.7,0.2,3,0.3,4.3,0.3
				c15.2,1.9,30.4,3.7,45.6,5.6c58,3.6,85.8,0.8,169.8,0.8c0,0,1.7,0,5.2,0c14.9-1.8,29.9-3.6,44.8-5.5c12.9-2.5,27.5-6.1,44-11.2
				c6.9-2.3,19.2-6.5,23.9-17.3C-417.3,926.5-417.9,916.7-418.1,914.8z"/>
			
				<radialGradient id="SVGID_1_" cx="-660.501" cy="-2991.1191" r="30.688" gradientTransform="matrix(0.9628 0 0 -1 -24.3775 -2170.811)" gradientUnits="userSpaceOnUse">
				<stop  offset="0" style="stop-color:#FFFFFF"/>
				<stop  offset="0.1427" style="stop-color:#FFFAFA"/>
				<stop  offset="0.306" style="stop-color:#FFECED"/>
				<stop  offset="0.4794" style="stop-color:#FFD5D6"/>
				<stop  offset="0.66" style="stop-color:#FFB5B7"/>
				<stop  offset="0.8442" style="stop-color:#FF8D8F"/>
				<stop  offset="1" style="stop-color:#FF6467"/>
			</radialGradient>
			
				<radialGradient id="SVGID_2_" cx="-660.4877" cy="-2991.041" r="31.2989" gradientTransform="matrix(0.9628 0 0 -1 -24.3775 -2170.811)" gradientUnits="userSpaceOnUse">
				<stop  offset="0" style="stop-color:#FFFFFF"/>
				<stop  offset="1" style="stop-color:#FF6467"/>
			</radialGradient>
			<path class="st9" d="M-683.1,805.4c1.7,6.9,1.4,4.1,6.7,22c2,7.1,4.6,15.9,11.2,23.8c1.1,1.4,2.5,2.7,4.1,2.8
				c2.7,0.2,5.9-2.8,12.6-18.4c6.7-15.1,10.4-27.5,11.4-31.4c1.1-4.4,2.5-8.6,3.3-12.1c-20-0.8-36.3-1.7-52.8-5.8
				C-685.9,792.2-684.7,798.3-683.1,805.4z"/>
			
				<radialGradient id="SVGID_3_" cx="-765.6696" cy="-2982.4272" r="47.9374" gradientTransform="matrix(0.9628 0 0 -1 -24.3775 -2170.811)" gradientUnits="userSpaceOnUse">
				<stop  offset="0" style="stop-color:#FFFFFF"/>
				<stop  offset="0.1427" style="stop-color:#FFFAFA"/>
				<stop  offset="0.306" style="stop-color:#FFECED"/>
				<stop  offset="0.4794" style="stop-color:#FFD5D6"/>
				<stop  offset="0.66" style="stop-color:#FFB5B7"/>
				<stop  offset="0.8442" style="stop-color:#FF8D8F"/>
				<stop  offset="1" style="stop-color:#FF6467"/>
			</radialGradient>
			
				<radialGradient id="SVGID_4_" cx="-765.6506" cy="-2982.4272" r="48.4771" gradientTransform="matrix(0.9628 0 0 -1 -24.3775 -2170.811)" gradientUnits="userSpaceOnUse">
				<stop  offset="0" style="stop-color:#FFFFFF"/>
				<stop  offset="1" style="stop-color:#FF6467"/>
			</radialGradient>
			<path class="st10" d="M-775.6,757.9c-12.4,0.6-21.4,5.3-23.8,6.5c-0.8,0.3-1.4,0.8-2,1.1c0.8,3.5,1.9,7.3,2.8,11.6
				c1,4.1,6.3,24.5,15.1,48.9c0.8,2.5,1.9,5.3,3.3,8.8c0.3,1,4.6,11.4,13.2,24.7c2.8,4.3,3.8,5.8,5.8,5.9c4.3,0.6,8.6-6.3,10.7-10.4
				c12.2-21.4,18.4-44,18.5-44.8c2.5-8.8,5.9-21.4,10.5-36.8c-6.3-2.7-12.1-4.6-20-7.4C-758.6,759.2-766.3,757.3-775.6,757.9z"/>
			
				<radialGradient id="SVGID_5_" cx="-580.9385" cy="-2991.3611" r="31.0291" gradientTransform="matrix(0.9628 0 0 -1 -24.3775 -2170.811)" gradientUnits="userSpaceOnUse">
				<stop  offset="0" style="stop-color:#FFFFFF"/>
				<stop  offset="0.1427" style="stop-color:#FFFAFA"/>
				<stop  offset="0.306" style="stop-color:#FFECED"/>
				<stop  offset="0.4794" style="stop-color:#FFD5D6"/>
				<stop  offset="0.66" style="stop-color:#FFB5B7"/>
				<stop  offset="0.8442" style="stop-color:#FF8D8F"/>
				<stop  offset="1" style="stop-color:#FF6467"/>
			</radialGradient>
			
				<radialGradient id="SVGID_6_" cx="-580.9976" cy="-2991.2341" r="31.6825" gradientTransform="matrix(0.9628 0 0 -1 -24.3775 -2170.811)" gradientUnits="userSpaceOnUse">
				<stop  offset="0" style="stop-color:#FFFFFF"/>
				<stop  offset="1" style="stop-color:#FF6467"/>
			</radialGradient>
			<path class="st11" d="M-611.2,793.1c4.1,9.9,6.7,18.5,8.6,24.7c2,7.1,5.5,13.7,7.3,20.7c0.6,2.3,2.3,8.2,6.9,12.6
				c2.7,2.5,4.4,2.7,5.5,2.7c2.7-0.3,4.4-3.5,5.2-5c7.3-13.8,10.7-25.3,10.7-25.3c5.5-17.3,6.7-19,9.1-29.9c0.6-2.3,1-4.4,1.4-6.3
				C-572.6,792.9-590,793.6-611.2,793.1z"/>
			
				<radialGradient id="SVGID_7_" cx="-475.9789" cy="-2982.1558" r="48.393" gradientTransform="matrix(0.9628 0 0 -1 -24.3775 -2170.811)" gradientUnits="userSpaceOnUse">
				<stop  offset="0" style="stop-color:#FFFFFF"/>
				<stop  offset="0.1427" style="stop-color:#FFFAFA"/>
				<stop  offset="0.306" style="stop-color:#FFECED"/>
				<stop  offset="0.4794" style="stop-color:#FFD5D6"/>
				<stop  offset="0.66" style="stop-color:#FFB5B7"/>
				<stop  offset="0.8442" style="stop-color:#FF8D8F"/>
				<stop  offset="1" style="stop-color:#FF6467"/>
			</radialGradient>
			
				<radialGradient id="SVGID_8_" cx="-475.9931" cy="-2982.1558" r="48.9399" gradientTransform="matrix(0.9628 0 0 -1 -24.3775 -2170.811)" gradientUnits="userSpaceOnUse">
				<stop  offset="0" style="stop-color:#FFFFFF"/>
				<stop  offset="1" style="stop-color:#FF6467"/>
			</radialGradient>
			<path class="st12" d="M-469.3,757.9c-1.4,0-3.5,0.2-20,4.6c-2.8,0.8-9,2.5-12.1,3.3c-7.7,2.3-13.2,3.8-22.2,7.4
				c4.4,13,7.9,23.9,9.9,31.6c5,16.8,7.1,26.6,13.8,40.1c3.8,7.4,7.4,13.4,10.2,17c1,0.8,3.8,3.5,7.3,2.8c2.7-0.3,4.4-2.7,5.8-4.3
				c6.3-8.8,9.8-19.2,11.2-23.8c1.7-5.2,3.6-10.2,5.5-15.1c7.3-21.4,11.2-32.2,11.9-34.7c1.7-5.3,3.8-12.2,6.3-20.5
				c-2.7-1.4-5.2-2.7-7.1-3.5C-455.9,760-461.7,757.6-469.3,757.9z"/>
			<g>
				
					<linearGradient id="SVGID_9_" gradientUnits="userSpaceOnUse" x1="-625.9" y1="-3091.8875" x2="-625.9" y2="-3219.0664" gradientTransform="matrix(1 0 0 -1 0 -2170.811)">
					<stop  offset="0" style="stop-color:#3B65FF"/>
					<stop  offset="0.1304" style="stop-color:#5C77FD"/>
					<stop  offset="0.2863" style="stop-color:#7C89FB"/>
					<stop  offset="0.4481" style="stop-color:#9596FA"/>
					<stop  offset="0.6162" style="stop-color:#A7A0F9"/>
					<stop  offset="0.7944" style="stop-color:#B2A6F8"/>
					<stop  offset="1" style="stop-color:#B5A8F8"/>
				</linearGradient>
				<path class="st13" d="M-474.9,961c-3-6.7-8.9-17.4-19.9-27.4c-6.2-5.8-14.9-13.2-28.3-16.8c-13-3.5-23.4-1-36,1.9
					c-19.3,4.4-17.5,8.6-36.3,12.6c-20.9,4.4-37,2.5-41,1.9c-3.3-0.3-7.3-1.4-15.7-3.3c-15.9-3.5-22-5.5-30.1-7.4
					c-19.3-4.6-29.1-6.9-41.9-5.2c-21.2,2.9-34.9,16-37.2,18.4c-9,8.9-13.4,18.5-15.6,24.3c14.7,2.8,30.4,5.3,47.2,7
					c7.9,0.8,15.5,1.5,22.9,1.9c3.8,6.3,9.3,16.1,13.3,29.2c1.5,4.9,2.3,8.2,2.8,10.2c3.5,13.7,8.8,24.2,19.8,45.8
					c10.7,21.2,26.1,47.1,41.2,50.6c1,0.2,3,0.6,5.8,0.3c8.4-1.1,13-9.4,19-18.4c12.4-19,12.9-13.7,22.6-29.7
					c7.3-11.9,11.2-21.8,14.2-29.1c4.1-9.8,8.2-21.8,11.6-36c0.2-3.5,0.8-8,2.5-13c1.2-3.8,2.8-7.1,4.3-9.6
					c3.2,0.1,7.8,0.1,13.2-0.1c7.6-0.2,13.3-0.8,16.9-1.2C-501.7,965.8-478.7,961.6-474.9,961z"/>
			</g>
		</g>
	</g>
	<g id="Ebene_1_3_">
		<rect x="-9" y="-12.3" class="st14" width="444.7" height="502.8"/>
		<g id="Ebene_6_1_">
		</g>
		<path class="st0" d="M106.9,102.5L99.3-0.1C56.5-18,13.6-35.9-29.2-53.7C-63.5-3.2-98,47.3-132.4,97.9l88.9,94.3l-6.7,84.3
			l-106.6,23.2c47.4,64.8,94.6,129.7,142,194.5c56.5,2.6,113,5.2,169.5,7.9l20-317.4L106.9,102.5z"/>
		<path class="st0" d="M484.7,276.6l-6.9-84l88.9-94.3C532.9,42.1,499.1-14.2,465.2-70.5c-43.9,18.6-87.8,37.4-131.7,56
			c-1.9,39-3.8,78-5.7,116.9L260,184.6L279.9,502c56.6-2.3,113.2-4.6,169.8-7.1c47.3-65.1,94.5-130.2,141.8-195.3L484.7,276.6z"/>
		<g>
			<path class="st1" d="M220,187.9c-3.1-2.2-14-5.7-19.3-10.1c-15.4-12.7-27.2-23.8-44.8-41c-35-34.2-34.1-34.7-41.8-39.6
				c-13.4-8.5-27.9-17.5-46.9-15.4c-24.6,2.8-39.1,22.3-41,24.9c-4.8,6.9-7.9,17.4-13.2,38.1c-6,23.1-9.9,34.3-10.3,42.4
				c-0.5,10.3,0.8,16.2-3.5,23.5c-5.9,9.7-16.4,11.2-15.8,14.7c0.8,4.5,17.2,0.2,30.4,8.8c12.8,8.4,8.2,19.8,21.4,36
				c1.5,1.8,19.1,23.3,44.8,24.2c13.8,0.5,24.1-4.8,37.4-12.5c20.2-11.6,46-26.8,75.5-46.2L220,187.9z"/>
			<path class="st2" d="M220.2,304.5h91.7c56.9,50,71.9,122,44.2,167.5c-20.9,34.1-72.4,54.6-112.2,39.7
				c-10.8-4.1-18.5-10.6-23.8-16h-0.3c-5.2,5.3-13,12.1-23.8,16c-39.6,14.9-91.2-5.7-112-39.7c-27.6-45.4-12.6-117.6,44.3-167.5
				H220.2L220.2,304.5z"/>
			<path class="st1" d="M220,187.9c3.1-2.2,14-5.7,19.3-10.1c15.4-12.7,27.2-23.8,44.8-41c35-34.2,34.1-34.7,41.8-39.6
				c13.4-8.5,27.9-17.5,46.9-15.4c24.6,2.8,39.1,22.3,41,24.9c4.8,6.9,7.9,17.4,13.2,38.1c5.9,23.1,9.9,34.4,10.3,42.4
				c0.5,10.3-0.8,16.2,3.5,23.5c5.9,9.7,16.4,11.2,15.8,14.7c-0.8,4.5-17.2,0.2-30.4,8.8c-12.8,8.4-8.2,19.8-21.4,36
				c-1.5,1.8-19.1,23.3-44.8,24.2c-13.8,0.5-24.1-4.8-37.4-12.5c-20.2-11.6-46-26.8-75.5-46.2L220,187.9z"/>
			<path class="st1" d="M127.2,322.9c-3.1,14.8-5.8,30.5-8.2,47.5c-2.8,20.4-4.2,39.2-5,56.9c1.5-1.6,3.7-3.9,6.6-7.1
				c2.9-3.4,5-5.8,5.7-6.7c7.7-8.5,16.7-16.7,16.7-16.7c5.5-3.2,13.2-5,22.3-7.9c12.8-3.9,18.7-4.4,26.8-4.4l-1.9-61.8L127.2,322.9
				L127.2,322.9z"/>
			<path class="st1" d="M313.2,322.9c3.1,14.8,5.8,30.5,8.2,47.5c2.8,20.4,4.2,39.4,5,57.1c-1.5-1.6-10.8-3.7-13.5-6.9
				c-2.9-3.2-4.1-4.2-5.8-6.1c-7.7-8.5-11.7-13.5-11.7-13.5c-5.5-3.2-10.1-6.1-19-9c-12.8-3.9-19.9-5.5-28-5.3l1.9-63.8L313.2,322.9
				L313.2,322.9z"/>
			<polyline class="st0" points="220,468.8 195.3,467.9 220.2,495.1 220.2,495.5 220.2,495.3 220.4,495.5 220.4,495.1 245.1,467.9 
				220.4,468.8 			"/>
			<path class="st2" d="M220.7-54.3c0.5,1.3,1.1,2.9,1.5,4.8c0.3,1.5,0.3,2.8,0.3,3.9c-0.3,5.8,0,16.1,6.3,25.3
				c1.9,2.9,5.3,6.9,20.9,15.3c17.3,9.4,21.8,9.3,35.7,16.9c11.6,6.3,18,9.9,25.1,17.4c13.7,14.5,17.5,31,18.7,36.7
				c1.5,7.3,1.5,13.5,1.3,17.8L220.2,160l-109-75.6c-0.2-4.2-0.2-10.6,1.3-17.8c1.1-5.5,4.8-22,18.7-36.7
				c7.1-7.5,13.5-11.1,25.1-17.4c14-7.9,18.4-7.5,35.7-16.9c15.4-8.5,18.8-12.4,20.9-15.3c6.3-9.1,6.7-19.3,6.3-25.3
				c0-1.1,0.2-2.4,0.3-3.9c0.3-1.9,0.9-3.5,1.5-4.8"/>
			<ellipse class="st3" cx="220.2" cy="64.9" rx="30.5" ry="30.5"/>
			<path class="st4" d="M220,495.5c-4.5-2.6-11.4-6.3-20.4-10.1c-12.3-5-15.3-4.6-22.8-8.4c-9.5-4.5-15.3-0.9-26.4-12.8
				c-8-8.5-12.7-16-24.4-26.7c-5-4.5-9.5-8.2-12.3-10.3h212.7c-2.9,2.1-7.2,5.7-12.3,10.3c-11.7,10.8-16.4,18.2-24.4,26.7
				c-11.1,11.9-16.9,8.3-26.4,12.8c-7.5,3.5-10.6,3.2-22.8,8.4c-8.8,3.7-15.8,7.3-20.4,10.1"/>
			<path class="st5" d="M297.4,396.7c-20.4-13.2-40.5-14.5-49-14.7l-28.1-1.3l0,0l-28.1,1.3c-8.5,0-28.6,1.3-49,14.7
				c-16,10.3-24.8,23.3-29.1,30.4c13,6.6,23.5,12.4,30.7,16.5c22.7,13,29.7,18.7,43.6,22.5c12.8,3.5,24.2,3.1,31.8,2.2l0,0
				c7.7,0.8,19,1.1,31.8-2.2c13.8-3.7,20.9-9.7,43.6-22.5c7.3-4.2,17.8-10.1,30.7-16.5C322.1,420.2,313.4,407.2,297.4,396.7z"/>
			<path class="st0" d="M220.6,419.5c-43.1,0-79.2,3.7-106.6,7.7c27.3,3.9,63.1,7.9,106.4,7.9c42.3,0,79.1-3.9,106.1-7.9
				C299.3,423.2,262.8,419.5,220.6,419.5z"/>
			<path class="st4" d="M484.9,235.3c-1.3-0.2-2.6,21-14.1,50c0,0-3.7,9.9-24,34.2c-1.1,1.3-3.5,4.4-7.1,4.4
				c-1.8,0-4.1-0.8-10.1-8.5c-6.7-8-6.1-9.7-9.7-12.1c-4.1-2.9-9.9-4.2-15.1-2.9c-9.1,2.4-13,13.4-14.9,18.8
				c-6.3,18.4,1.5,35,3.4,39.2c3.4,7.5,7.7,16.2,17.1,20.1c9.7,3.7,18.8,0.2,23.1-1.5c3.4-1.3,16.5-7.1,29.9-30.9
				c4.5-8.2,10.8-21.2,16.1-49.2C486.1,263.8,486.4,235.3,484.9,235.3z"/>
			<path class="st4" d="M-44.5,235.3c1.3-0.2,2.6,21,14.1,50c0,0,3.7,9.9,24,34.2c1.1,1.3,3.5,4.4,7.1,4.4c1.8,0,4.1-0.8,10.1-8.5
				c6.7-8,6.1-9.7,9.7-12.1c4.1-2.9,9.9-4.2,15.1-2.9c9.5,2.4,13,13.4,14.9,18.8c6.3,18.4-1.5,35-3.4,39.2
				c-3.4,7.5-7.7,16.2-17.1,20.1c-9.7,3.7-18.8,0.2-23.1-1.5c-3.4-1.3-16.5-7.1-29.9-30.9c-4.5-8.2-10.8-21.2-16.1-49.2
				C-46,263.8-46.2,235.3-44.5,235.3z"/>
			<path class="st0" d="M130.1,469.9c1.1,0.9,2.6,2.1,4.4,1.8c3.7-0.5,5.5-7.2,6.3-9.9c2.1-7.2,5.3-16.5,10.8-30.1
				c-31.2-3.4-15.3-2.9-35-4.2c-0.8,0-1.6-0.2-2.4-0.2c3.5,9,5.7,16.5,6.9,22.5C121.7,453.8,123.6,464.2,130.1,469.9z"/>
			<path class="st0" d="M310.8,469.9c-1.1,0.9-2.6,2.1-4.4,1.8c-3.7-0.5-5.5-7.2-6.3-9.9c-2.1-7.2-5.3-16.5-10.8-30.1
				c31.2-3.4,15.3-2.9,35-4.2c0.8,0,1.6-0.2,2.4-0.2c-3.5,9-5.7,16.5-6.9,22.5C319.2,453.8,317.3,464.2,310.8,469.9z"/>
			<path class="st2" d="M61.1,207c-3.9,0.9-11,3.4-17.4,9.5c-9.9,9-12.4,20.2-13,24c-0.8,4.1-2.2,13.8,2.1,25.1
				c3.7,9.9,10.1,15.8,11.7,17.2c10.4,9.3,22.9,10.6,27.2,10.8l-8.4-8.2l-8-13.7l-10.2-26l12.7-17.2l9.3-11L61.1,207z"/>
			<path class="st4" d="M156,141.2c4.1,2.6,10.3,7.5,15.3,15.4c7.2,11.6,7.3,22.8,7.3,29.3c0,5.9-0.2,25.9-14.9,42.9
				c-13.2,15.4-30.1,19.3-35.8,20.7c-13.2,3.1-30.1,2.8-38.5-0.5c-0.8-0.3-2.8-1.1-5.7-1.3c-7.9-0.5-13.8,4.4-14.5,4.8
				c-6.7,5.7-7.2,14.1-7.3,17.1c-0.6,12.8,8,22,9.8,23.6c-3.9-1.5-13.5-5.7-20.7-16.1c-2.4-3.4-8.2-12.1-7.7-24.4
				c0.2-3.2,1.1-14,9.7-23.5c8.6-9.7,19.3-11.6,22.3-11.9L156,141.2z"/>
			<path class="st3" d="M-28.9,96.5c3.1-1.5,6.1-1.8,6.9-3.9c0.3-0.9,0-1.9-0.3-2.4c-2.4-4.1-26-1.6-33.5,10.4
				c-2.2,3.7-3.5,8.5-3.5,8.5c-0.6,2.2-1.5,5.2-0.9,9.1c0.5,4.5,2.4,7.7,3.4,9.5c3.9,6.6,9.7,9.7,12.3,11.1c3.5,1.9,9.5,4.4,21,5
				c4.1,0.2,14,0.5,33.2-3.9c9.7-2.2,19-4.4,30.9-9.7c11.4-4.8,18.7-9.8,34.8-15.1c4.1-1.3,6.9-2.1,10.4-2.8
				c4.5-0.8,13.8-1.9,25.1,0.8c9.8,2.2,16.4,6.6,21,9.5c6.9,4.4,13.8,11.1,27.2,24c7.3,7.1,9.5,9.5,14.3,11.2
				c2.2,0.8,11.7,4.5,21.4-0.2c11.9-5.8,13.7-19.5,13.8-21c1.1-11-4.8-19-7.9-22.9c-3-3.8-5.8-6.6-8.8-8.6
				c-17.7-13.4-38.4-17.8-41.1-18.4c-3.7-0.8-19.5-3.7-40.7-0.6C102.9,87,94,89,72.8,97.2c0,0-71,27.2-93,29.7
				c-2.1,0.2-6.7,0.5-11.2-1.8c-1.5-0.8-5.3-2.6-7.1-6.9c-1.8-4.5,0.3-9.1,1.6-11.7C-36.5,104.3-34.1,99-28.9,96.5z"/>
			<g>
				<ellipse class="st6" cx="96.1" cy="172.6" rx="61.6" ry="61.6"/>
				<ellipse class="st1" cx="95.8" cy="173" rx="53.4" ry="53.4"/>
				<ellipse class="st4" cx="96.4" cy="172.6" rx="41.3" ry="41.3"/>
			</g>
			<path class="st2" d="M376.8,207c3.9,0.9,11,3.4,17.4,9.5c9.9,9,12.4,20.2,13,24c0.8,4.1,2.1,13.8-2.1,25.1
				c-3.7,9.9-10.1,15.8-11.7,17.2c-10.4,9.3-22.9,10.6-27.2,10.8l8.4-8.2l8-13.7l10.1-26L380,228.5l-9.3-11L376.8,207z"/>
			<path class="st4" d="M281.8,141.2c-4.1,2.6-10.3,7.5-15.3,15.4c-7.2,11.6-7.3,22.8-7.3,29.3c0,5.9,0.2,25.9,14.9,42.9
				c13.2,15.4,30.1,19.3,36,20.7c13.2,3.1,30.1,2.8,38.5-0.5c0.8-0.3,2.8-1.1,5.7-1.3c7.9-0.5,13.8,4.4,14.5,4.8
				c6.7,5.7,7.2,14.1,7.3,17.1c0.6,12.8-8,22-9.8,23.6c3.9-1.5,13.5-5.7,20.7-16.1c2.4-3.4,8.2-12.1,7.7-24.4
				c-0.2-3.2-1.1-14-9.5-23.5c-8.6-9.7-19.3-11.6-22.3-11.9L281.8,141.2z"/>
			<g>
				<ellipse class="st6" cx="341.9" cy="172.6" rx="61.6" ry="61.6"/>
				<ellipse class="st1" cx="342.1" cy="173" rx="53.4" ry="53.4"/>
				<ellipse class="st4" cx="341.5" cy="172.6" rx="41.3" ry="41.3"/>
			</g>
			<path class="st3" d="M469.1,96.5c-3.1-1.5-6.1-1.8-6.9-3.9c-0.3-0.9,0-1.9,0.3-2.4c2.4-4.1,26-1.6,33.5,10.4
				c2.2,3.7,3.5,8.5,3.5,8.5c0.6,2.2,1.3,5.2,0.9,9.1c-0.5,4.5-2.4,7.7-3.4,9.5c-3.9,6.6-9.5,9.7-12.3,11.1c-3.5,1.9-9.5,4.4-21,5
				c-4.1,0.2-14.1,0.5-33.2-3.9c-9.7-2.2-19-4.4-30.9-9.7c-11.4-4.8-18.7-9.8-34.7-15.1c-4.1-1.3-6.9-2.1-10.4-2.8
				c-4.5-0.8-13.8-1.9-25.1,0.8c-9.8,2.2-16.4,6.6-21,9.5c-6.9,4.4-13.8,11.1-27.2,24c-7.3,7.1-9.5,9.5-14.3,11.2
				c-2.2,0.8-11.7,4.5-21.4-0.2c-11.9-5.8-13.7-19.5-13.8-21c-1.1-11,4.8-19,7.9-22.9c2.9-3.9,5.8-6.6,8.8-8.6
				c17.7-13.4,38.4-17.8,41.1-18.4c3.7-0.8,19.5-3.7,40.7-0.6c7.2,0.9,16,2.9,37.3,11.1c0,0,71,27.2,93,29.7
				c2.1,0.2,6.7,0.5,11.2-1.8c1.5-0.8,5.3-2.6,7.1-6.9c1.8-4.5-0.3-9.1-1.6-11.7C476.8,104.3,474.4,99,469.1,96.5z"/>
			<g>
				<g>
					<path class="st7" d="M180.2,235c-0.2,0-0.2,0-0.3,0C180,235,180,235,180.2,235L180.2,235z"/>
					<path class="st7" d="M261.7,235c-0.5,0-0.9,0-1.6,0l0,0C260.6,235,261.1,235,261.7,235z"/>
					<path class="st0" d="M192.3,255.7c8.5,1.9,17.1,4.1,23.1,11.7c2.6,3.2,3.9,6.7,4.6,9.1l0,0c0.6-2.4,2.1-5.7,4.6-9.1
						c5.9-7.7,14.7-9.8,23.1-11.7c3.1-0.8,13.4-2.9,27-1.3c8.8,1.1,15.8,3.2,20.5,5.2l0.2,0.2c-0.3-9.9-0.9-17.4-1.1-19.5
						c-4.6-1.8-11.4-3.9-19.8-4.8c-4.8-0.6-9.5-0.6-13.2-0.5c-0.5,0-1.1,0-1.6,0.2l0,0c-5.9,0.3-10.4,1.3-12.3,1.8
						c-8.5,1.9-17.1,4.1-23.1,11.7c-2.6,3.2-3.9,6.7-4.6,9.1l0,0c-0.6-2.4-2.1-5.7-4.6-9.1c-5.9-7.7-14.7-9.8-23.1-11.7
						c-1.8-0.5-5.9-1.3-12.1-1.8l0,0c-0.2,0-0.2,0-0.3,0c-4.2-0.3-9.1-0.2-14.7,0.5c-8.2,0.9-14.7,2.9-19.3,4.6
						c-0.2,1.9-0.6,9.7-1.1,19.5c4.6-1.9,11.7-4.1,20.5-5.2C178.9,252.8,189.2,255.1,192.3,255.7z"/>
					<path class="st0" d="M215.4,249.4c2.6,3.2,3.9,6.7,4.6,9.1l0,0c0.6-2.4,2.1-5.7,4.6-9.1c5.9-7.7,14.7-9.8,23.1-11.7
						c1.8-0.5,6.1-1.3,12.3-1.8c4.1-6.7,5.7-7.7,5.7-7.7c2.1-2.6,4.2-4.6,5.7-6.1c-3.7-3.1-9.1-8.4-13.2-16
						c-4.6-9-3.5-13.4-8.5-26.8c-4.1-11.2-6.1-17.1-11.7-22.2c-7.3-6.6-15.6-7.7-17.7-7.9h-0.2H220c-1.9,0.2-10.4,1.5-17.7,7.9
						c-5.7,5-7.7,10.8-11.7,22.2c-4.8,13.5-3.7,17.8-8.5,26.8c-4.1,7.9-9.5,13-13.2,16c1.5,1.5,3.4,3.5,5.7,6.1c0,0,1.6,1.1,5.7,7.7
						c5.8,0.3,10.3,1.3,12.1,1.8C200.7,239.6,209.4,241.7,215.4,249.4z"/>
					<path class="st1" d="M274.9,288.7c-13.7-1.6-24,0.5-27,1.3c-8.5,1.9-17.1,4.1-23.1,11.7c-2.6,3.2-3.9,6.7-4.6,9.1l0,0
						c-0.6-2.4-2.1-5.7-4.6-9.1c-5.9-7.7-14.7-9.8-23.1-11.7c-3.1-0.8-13.4-2.9-27-1.3c-8.8,1.1-15.8,3.2-20.5,5.2h-0.2
						c0.2,5.2,0.6,10.1,1.1,14.5c0,0.6,0.2,1.3,0.3,1.9c4.6-1.8,11.2-3.7,19.1-4.6c13.7-1.6,24,0.5,27,1.3
						c8.5,1.9,17.1,4.1,23.1,11.7c2.6,3.2,3.9,6.7,4.6,9.1l0,0c0.6-2.4,2.1-5.7,4.6-9.1c5.9-7.7,14.7-9.8,23.1-11.7
						c3.1-0.8,13.4-2.9,27-1.3c8.2,0.9,14.8,2.9,19.5,4.6c0.2-0.6,0.2-1.5,0.3-2.1c0.5-4.4,0.9-9.3,1.1-14.3l-0.3-0.2
						C290.8,292,283.7,289.8,274.9,288.7z"/>
					<path class="st0" d="M274.9,271.5c-13.7-1.6-24,0.5-27,1.3c-8.5,1.9-17.1,4.1-23.1,11.7c-2.6,3.2-3.9,6.7-4.6,9.1l0,0
						c-0.6-2.4-2.1-5.7-4.6-9.1c-5.9-7.7-14.7-9.8-23.1-11.7c-3.1-0.8-13.4-2.9-27-1.3c-8.8,1.1-15.8,3.2-20.5,5.2l-0.3,0.3
						c0,5.7,0,11.4,0.2,16.9h0.2c4.6-1.9,11.9-4.1,20.5-5.2c13.7-1.6,24,0.5,27,1.3c8.5,1.9,17.1,4.1,23.1,11.7
						c2.6,3.2,3.9,6.7,4.6,9.1l0,0c0.6-2.4,2.1-5.7,4.6-9.1c5.9-7.7,14.7-9.8,23.1-11.7c3.1-0.8,13.4-2.9,27-1.3
						c8.8,1.1,15.8,3.2,20.5,5.2l0.3,0.2c0.2-5.5,0.3-11.2,0.3-16.9l-0.6-0.3C290.8,275,283.7,272.7,274.9,271.5z"/>
					<path class="st1" d="M295.4,259.7c-4.6-1.9-11.9-4.1-20.5-5.2c-13.7-1.6-24,0.5-27,1.3c-8.5,1.9-17.1,4.1-23.1,11.7
						c-2.6,3.2-3.9,6.7-4.6,9.1l0,0c-0.6-2.4-2.1-5.7-4.6-9.1c-5.9-7.7-14.7-9.8-23.1-11.7c-3.1-0.8-13.4-2.9-27-1.3
						c-8.8,1.1-15.8,3.2-20.5,5.2c-0.2,5.2-0.3,11.2-0.5,17.4l0.3-0.3c4.6-1.9,11.9-4.1,20.5-5.2c13.7-1.6,24,0.5,27,1.3
						c8.5,1.9,17.1,4.1,23.1,11.7c2.6,3.2,3.9,6.7,4.6,9.1l0,0c0.6-2.4,2.1-5.7,4.6-9.1c5.9-7.7,14.7-9.8,23.1-11.7
						c3.1-0.8,13.4-2.9,27-1.3c8.8,1.1,15.8,3.2,20.5,5.2l0.6,0.3C295.9,270.8,295.8,265,295.4,259.7L295.4,259.7z"/>
					<path class="st0" d="M294.5,310.6c-4.6-1.8-11.4-3.7-19.5-4.6c-13.7-1.6-24,0.5-27,1.3c-8.5,1.9-17.1,4.1-23.1,11.7
						c-2.6,3.2-3.9,6.7-4.6,9.1l0,0c-0.6-2.4-2.1-5.7-4.6-9.1c-5.9-7.7-14.7-9.8-23.1-11.7c-3.1-0.8-13.4-2.9-27-1.3
						c-8,0.9-14.5,2.9-19.1,4.6c0.6,4.5,1.9,9.9,5,15.3c0.3,0.5,0.5,0.8,0.8,1.3c1.1,1.8,5,7.9,12.7,12.5c0.2,0.2,0.3,0.2,0.5,0.3
						c5.8,3.5,11.2,4.6,16.4,5.8c4.5,0.9,10.6,1.9,18,1.8v4.6c0.3,1.3,0.8,2.9,1.9,4.8c2.1,3.5,5,5.3,6.6,6.1
						c4.8,2.9,9.8,3.2,12.1,3.1h0.2c2.2,0,7.2-0.2,12.1-3.1c1.5-0.8,4.2-2.6,6.6-6.1c1.1-1.9,1.6-3.7,1.9-4.8v-4.6
						c7.3,0.2,13.5-0.8,18-1.8c5.2-1.1,10.4-2.2,16.4-5.8c0.2-0.2,0.3-0.2,0.5-0.3c7.7-4.6,11.6-10.8,12.7-12.5
						c0.3-0.5,0.5-0.8,0.8-1.3l0,0C292.6,320.3,293.7,315.1,294.5,310.6z M174.7,322.3c-0.8,0-1.5,0-2.2,0
						C173.2,322.3,174.1,322.3,174.7,322.3z M198.7,325.8c2.1,0.6,4.1,1.3,6.1,2.1C202.7,327.1,200.7,326.5,198.7,325.8z
						 M217.2,338.4c0.9,1.6,1.8,3.2,2.2,4.6C218.7,341.5,218.2,340.1,217.2,338.4z M220,345c0.5-1.8,1.5-4.1,2.9-6.6
						C221.5,340.9,220.6,343.2,220,345z M235.4,327.9c1.9-0.8,4.1-1.6,6.1-2.1C239.4,326.5,237.4,327.1,235.4,327.9z"/>
				</g>
				<g>
					<path class="st4" d="M163.5,297.9c-0.3,1.8-0.5,4.8,0.5,8.5c1.8,6.3,6.3,9.8,8.2,11.2c4.6,3.5,5.2,1.1,13.5,5.7
						c2.8,1.5,5.7,3.4,9.9,3.5c1.6,0.2,2.9,0,3.9-0.2v-10v-16.5l-20.1-7.5L163.5,297.9z"/>
					<path class="st3" d="M199.6,308.9c0-6.6,0-4.8,0-11.4c-1.5-1.1-3.5-2.6-6.1-4.2c-1.9-1.1-5.3-3.1-9-4.2c-8-2.4-15.3,0-17.2,0.6
						c-2.6,0.8-10.1,3.5-14.9,11.4c-0.2,0.2-0.3,0.3-0.5,0.8c-0.9,1.6-4.5,8.2-3.2,16.4c0.2,0.8,0.5,3.1,1.6,5.8
						c1.8,4.5,4.5,7.3,6.6,9.3c4.8,4.8,9.8,7.3,12.3,8.5c3.9,1.8,7.1,2.6,10.6,3.4c5.3,1.3,9.8,1.8,12.5,1.9
						c3.1,0.3,5.7,0.3,7.7,0.2v-9.8c-0.8,0-2.1,0-3.5,0c-3.1,0-9.3-0.2-15.8-1.9c-5.3-1.5-10.3-2.9-14.7-7.2
						c-1.5-1.6-5.7-5.7-6.3-12.5c-0.3-2.2-0.5-8.8,4.1-14.3c2.6-3.1,5.8-4.5,7.5-5.2c0.9-0.3,6.9-2.2,12.8,0.3
						c4.2,1.8,3.7,4.8,9,8.5C195.1,307.5,197.8,308.5,199.6,308.9z"/>
				</g>
				<g>
					<path class="st4" d="M277,297.9c0.3,1.8,0.5,4.8-0.5,8.5c-1.8,6.3-6.3,9.8-8.2,11.2c-4.6,3.5-5.2,1.1-13.5,5.7
						c-2.8,1.5-5.7,3.4-9.9,3.5c-1.6,0.2-2.9,0-3.9-0.2v-10v-16.5l20.1-7.5L277,297.9z"/>
					<path class="st3" d="M240.9,308.8c0-6.5-0.2-4.6-0.2-11.2c1.5-1.1,3.5-2.6,6.1-4.2c1.9-1.1,5.3-3.1,9-4.2
						c8-2.4,15.3,0,17.2,0.6c2.6,0.8,10.1,3.5,14.9,11.4c0.2,0.2,0.3,0.3,0.5,0.8c0.9,1.6,4.5,8.2,3.2,16.4
						c-0.2,0.8-0.5,3.1-1.6,5.8c-1.8,4.5-4.5,7.3-6.6,9.3c-4.8,4.8-9.8,7.3-12.3,8.5c-3.9,1.8-7.1,2.6-10.6,3.4
						c-5.3,1.3-9.8,1.8-12.5,1.9c-3.1,0.3-5.7,0.3-7.7,0.2v-9.8c0.8,0,2.1,0,3.5,0c3.1,0,9.3-0.2,15.8-1.9
						c5.3-1.5,10.3-2.9,14.7-7.2c1.5-1.6,5.7-5.7,6.3-12.5c0.3-2.2,0.5-8.8-4.1-14.3c-2.6-3.1-5.8-4.5-7.5-5.2
						c-0.9-0.3-6.9-2.2-12.8,0.3c-4.2,1.8-3.7,5-9,8.5C245.1,307.3,242.7,308.3,240.9,308.8z"/>
				</g>
			</g>
		</g>
		<path class="st3" d="M411.8,432.2c2.4-8.1,10.2-38-5.4-67.5c-3.6-6.9-11.8-21.9-29.7-31.2c-18.3-9.6-36-7.9-42.5-6.9
			c-7.7,1.2-12.9,3.4-21.1,6.9c-18.3,7.9-23.1,13.7-37.3,21.4c-10.9,5.9-31.2,17.4-56.7,16.7c-10-0.3-17.4-2.7-32.3-7.4
			c-24.9-7.9-45.4-19.2-50.3-22.1c-16.4-9.3-19.1-13.1-29.7-15c-14.3-2.9-26.3,0.5-30.9,2c-5.8,1.8-18.6,6.3-29.7,18.1
			c-14.4,14.9-17.5,32.3-19.7,43.9c-1.5,8.6-2.9,22.8,0.5,40.2"/>
		<path class="st4" d="M348.7,348.5c3.8,0.1,26.3,1,43.1,18.2c15.8,16.2,17.3,37.3,18.1,52.6c0.7,12.9-0.7,25.7-1.7,34
			c-2.3,20.1-5.3,23.7-3.6,35.2c0.8,5.1,2.2,8.4,11.9,17.9c4.8,4.8,7,4.3,11.3,9.5c1.6,2.1,8.5,11.1,7.8,22.9
			c-0.6,11.1-7.9,18.4-13.6,24.1c-13.7,13.8-29.5,18.1-34.1,19.1c-67.4,17.7-99.9,20.8-99.9,20.8c-68.4,6.1-66,3.3-149.1,7.7
			c0,0-33.6,1.7-76.2-7.2c-2.2-0.4-10.3-2.3-20.1-7c-9.2-4.6-30.7-15.1-32.4-32.9c-0.8-8,2.8-15.1,4.5-18.6c1-2,2-3.6,3.1-4.9
			c4.7-6.1,6.9-6,10.3-11.3c2.8-4.2,4-8.6,4.3-9.8c0.6-2,1-4.3,1.1-5c0.2-0.9,0.5-2.6,0.8-5.5c0.5-4.3,0.6-8,0.7-10.2
			c0.1-4.7,0.2-7.2-0.1-10.2c-0.6-5.7-2.5-9.8-3-11.5c-4.4-17.6-6.8-26.6-7.6-32.5c-0.8-8-2.6-24,4.2-41.5
			c2.7-6.8,9.2-23.2,26.2-31.9c10.5-5.3,20.3-5.5,25.7-5.3l53.6,13.3l50.9,12.7l75.7-4.9l39.3-17
			C302.7,366.3,320.5,347.8,348.7,348.5z"/>
		<path class="st0" d="M402.7,506.9c-0.3-6.1-2-10.8-2.5-12.5c-1-3.4-2.4,1.9-3.4-33.4c-0.5-22.1-0.9-33.1-0.9-38.8
			c0.2-15,0.9-20.6-2-29.6c-2-6.1-4.7-11.3-7.4-14.9c-1.8-1-3.4-2.2-4.9-3.1c-2.2,7.4-4.1,13.5-5.6,18.3
			c-0.7,2.2-3.9,11.8-10.6,30.9c-1.7,4.6-3.2,8.9-4.9,13.5c-1.5,4.1-4.4,13.5-10,21.3c-1,1.5-2.5,3.4-5.1,3.8
			c-3.1,0.5-5.6-1.8-6.6-2.5c-2.4-3.2-5.6-8.6-9.1-15.2c-5.9-12-7.9-20.7-12.3-35.8c-2-6.7-4.9-16.4-8.9-28.2
			c-5.4,2.2-12.2,5.1-22.1,9.6c-2.4,1-4.7,2-7.1,2.9c-0.3,1.8-0.7,3.6-1.2,5.6c-2.2,9.8-3.4,11.1-8.2,26.7c0,0-3.1,10.2-9.6,22.6
			c-0.7,1.2-2.2,3.9-4.6,4.4c-0.9,0.2-2.4,0-4.9-2.4c-4.1-3.9-5.6-9.3-6.1-11.3c-1.8-6.3-4.7-12.2-6.6-18.4
			c-1.7-5.4-3.9-12.9-7.7-22.1c-5.6-0.2-11.5-0.3-17.6-0.5c-0.9,0-1.8,0-2.7-0.2c-0.7,3.1-1.8,6.7-2.9,10.8c-1,3.4-4.4,14.5-10.2,28
			c-5.9,13.8-8.8,16.5-11.3,16.4c-1.5-0.2-2.5-1.2-3.6-2.5c-5.8-7.1-8.2-14.9-10-21.3c-4.7-16-4.6-13.5-5.9-19.7
			c-1.5-6.1-2.5-11.8-3.2-16.7c-5.9-1.7-12.2-3.6-18.3-6.3c-5.1-2.4-9.1-3.9-12.7-5.6c-4.1,14-7.4,25.3-9.4,32.9
			c-0.2,0.7-5.6,20.9-16.5,40c-2,3.6-5.6,9.6-9.6,9.3c-1.5-0.2-2.5-1.2-5.1-5.2c-8-12-11.7-21.5-11.9-22.2c-1.2-3.1-2.2-5.6-2.9-7.9
			C68.9,405.8,64,387.8,63,384c-0.9-3.8-1.8-7.4-2.5-10.4c-3.2,2-6.1,4.1-8.6,6.3c0,0.2-0.2,0.2-0.2,0.3c-3.6,6.6-5.8,13.3-7.4,28.3
			c-2.7,26.5,1,28.9-0.5,56.5c-1.2,19-1.9,25.7-3.1,30.7c-0.2,0.8-1,2.7-1.6,5.5c0,0-1.3,5.7-1.2,10.8c0.1,6.1,4.3,16,12.3,23.1
			c10.9,9.6,25.9,9.8,48.7,13.1c1.5,0.2,2.7,0.3,3.8,0.3c13.6,1.7,27.1,3.3,40.7,5c51.8,3.2,76.6,0.7,151.6,0.7c0,0,1.5,0,4.6,0
			c13.3-1.6,26.7-3.2,40-4.9c11.5-2.2,24.6-5.4,39.3-10c6.1-2,17.1-5.8,21.4-15.4C403.4,517.4,402.9,508.7,402.7,506.9z"/>
		<path class="st8" d="M424.5,377.7"/>
		<path class="st4" d="M65.2-3.6C65.2-93,134-165.7,219-165.7S372.8-93.1,372.8-3.6"/>
		<ellipse class="st3" cx="218.8" cy="4.1" rx="153.9" ry="126.3"/>
		<path class="st0" d="M364.5,4.1"/>
		<polyline class="st0" points="72.5,-20.9 62.8,-33.3 76.3,-26 67.8,-44.4 82.9,-32.8 74,-53.2 93.7,-43.7 80.6,-64.4 104.8,-51.7 
			90.7,-75.9 118.7,-59.3 101,-88.6 130.2,-65.7 115.7,-102.8 148,-72.2 133.5,-117.1 159.1,-78.8 154.8,-123.8 177.8,-82.8 
			179.5,-129.2 197.5,-86.1 203.1,-130.8 216.2,-88.9 230.1,-130.8 236.8,-88.4 259.6,-126.3 259.6,-85.3 287.1,-115.2 278.2,-78.3 
			308.5,-103.9 299.6,-70.6 329.2,-95.7 313.6,-62.3 339.2,-81.6 326.3,-55.3 351.5,-67.7 340.3,-45.8 360.7,-56.9 350.2,-36.6 
			369.3,-45.1 358.2,-29.1 370.9,-32.6 365.4,-20.9 		"/>
		<polyline class="st0" points="360.2,23.9 367,34.6 377,45.2 363.3,39.2 372.1,55 356.8,45.1 366,62.8 346.1,54.7 359.6,72.4 
			334.9,61.8 349.6,82.7 321.4,68.7 339.4,93.9 310,74.5 324.9,106.5 292.3,80.4 307.5,119.1 281.3,86.2 286.1,125.2 262.5,90 
			261.5,130.4 242.9,93.1 237.9,132.2 224.4,95.8 211,132.6 203.6,95.8 181.4,129.1 180.9,93.4 153.7,119.8 162.2,87.5 132.3,110.4 
			140.6,81.2 111.4,103.5 126.4,74.2 101.2,91.4 113.7,68.5 88.6,79.6 99.6,60.3 79.3,70.2 89.6,52.5 70.7,60.1 81.5,46.1 
			68.9,49.2 74.2,39.1 64.2,41.4 72.4,35.6 74.9,31.9 		"/>
		<ellipse class="st1" cx="218.8" cy="6" rx="153.9" ry="86.1"/>
		<ellipse class="st5" cx="219" cy="6" rx="69.1" ry="66.4"/>
		<g id="Ebene_2_3_">
		</g>
		<g id="Ebene_3_1_">
		</g>
		
			<radialGradient id="SVGID_10_" cx="197.5714" cy="2810.8662" r="27.3942" gradientTransform="matrix(0.9628 0 0 1 -3.7575 -2388.311)" gradientUnits="userSpaceOnUse">
			<stop  offset="0" style="stop-color:#FFFFFF"/>
			<stop  offset="0.1427" style="stop-color:#FFFAFA"/>
			<stop  offset="0.306" style="stop-color:#FFECED"/>
			<stop  offset="0.4794" style="stop-color:#FFD5D6"/>
			<stop  offset="0.66" style="stop-color:#FFB5B7"/>
			<stop  offset="0.8442" style="stop-color:#FF8D8F"/>
			<stop  offset="1" style="stop-color:#FF6467"/>
		</radialGradient>
		
			<radialGradient id="SVGID_11_" cx="197.5847" cy="2810.7256" r="28.041" gradientTransform="matrix(0.9628 0 0 1 -3.7575 -2388.311)" gradientUnits="userSpaceOnUse">
			<stop  offset="0" style="stop-color:#FFFFFF"/>
			<stop  offset="1" style="stop-color:#FF6467"/>
		</radialGradient>
		<path class="st15" d="M166.1,409.3c1.5,6.1,1.2,3.6,5.9,19.7c1.8,6.3,4.1,14.2,10,21.3c1,1.2,2.2,2.4,3.6,2.5
			c2.4,0.2,5.2-2.5,11.3-16.4c5.9-13.5,9.3-24.6,10.2-28c1-3.9,2.2-7.7,2.9-10.8c-17.8-0.7-32.4-1.5-47.2-5.1
			C163.6,397.5,164.7,403,166.1,409.3z"/>
		
			<radialGradient id="SVGID_12_" cx="103.7676" cy="2803.1843" r="42.7588" gradientTransform="matrix(0.9628 0 0 1 -3.7575 -2388.311)" gradientUnits="userSpaceOnUse">
			<stop  offset="0" style="stop-color:#FFFFFF"/>
			<stop  offset="0.1427" style="stop-color:#FFFAFA"/>
			<stop  offset="0.306" style="stop-color:#FFECED"/>
			<stop  offset="0.4794" style="stop-color:#FFD5D6"/>
			<stop  offset="0.66" style="stop-color:#FFB5B7"/>
			<stop  offset="0.8442" style="stop-color:#FF8D8F"/>
			<stop  offset="1" style="stop-color:#FF6467"/>
		</radialGradient>
		
			<radialGradient id="SVGID_13_" cx="103.786" cy="2803.1843" r="43.2983" gradientTransform="matrix(0.9628 0 0 1 -3.7575 -2388.311)" gradientUnits="userSpaceOnUse">
			<stop  offset="0" style="stop-color:#FFFFFF"/>
			<stop  offset="1" style="stop-color:#FF6467"/>
		</radialGradient>
		<path class="st16" d="M83.6,366.9c-11.1,0.5-19.1,4.7-21.3,5.8c-0.7,0.3-1.2,0.7-1.8,1c0.7,3.1,1.7,6.6,2.5,10.4
			c0.9,3.6,5.6,21.9,13.5,43.6c0.7,2.2,1.7,4.7,2.9,7.9c0.3,0.9,4.1,10.2,11.8,22.1c2.5,3.8,3.4,5.1,5.1,5.2
			c3.8,0.5,7.7-5.6,9.6-9.3c10.9-19.1,16.4-39.3,16.5-40c2.2-7.9,5.2-19.1,9.4-32.9c-5.6-2.4-10.8-4.1-17.8-6.7
			C98.7,368.1,91.8,366.4,83.6,366.9z"/>
		
			<radialGradient id="SVGID_14_" cx="268.6208" cy="2811.0552" r="27.6488" gradientTransform="matrix(0.9628 0 0 1 -3.7575 -2388.311)" gradientUnits="userSpaceOnUse">
			<stop  offset="0" style="stop-color:#FFFFFF"/>
			<stop  offset="0.1427" style="stop-color:#FFFAFA"/>
			<stop  offset="0.306" style="stop-color:#FFECED"/>
			<stop  offset="0.4794" style="stop-color:#FFD5D6"/>
			<stop  offset="0.66" style="stop-color:#FFB5B7"/>
			<stop  offset="0.8442" style="stop-color:#FF8D8F"/>
			<stop  offset="1" style="stop-color:#FF6467"/>
		</radialGradient>
		
			<radialGradient id="SVGID_15_" cx="268.562" cy="2810.9353" r="28.3061" gradientTransform="matrix(0.9628 0 0 1 -3.7575 -2388.311)" gradientUnits="userSpaceOnUse">
			<stop  offset="0" style="stop-color:#FFFFFF"/>
			<stop  offset="1" style="stop-color:#FF6467"/>
		</radialGradient>
		<path class="st17" d="M230.3,398.3c3.6,8.9,5.9,16.5,7.7,22.1c1.8,6.3,4.9,12.2,6.6,18.4c0.5,2,2,7.4,6.1,11.3
			c2.4,2.2,3.9,2.4,4.9,2.4c2.4-0.3,3.9-3.1,4.6-4.4c6.6-12.3,9.6-22.6,9.6-22.6c4.9-15.4,5.9-16.9,8.2-26.7c0.5-2,0.9-3.9,1.2-5.6
			C264.8,398.1,249.2,398.7,230.3,398.3z"/>
		
			<radialGradient id="SVGID_16_" cx="362.2845" cy="2802.9451" r="43.2148" gradientTransform="matrix(0.9628 0 0 1 -3.7575 -2388.311)" gradientUnits="userSpaceOnUse">
			<stop  offset="0" style="stop-color:#FFFFFF"/>
			<stop  offset="0.1427" style="stop-color:#FFFAFA"/>
			<stop  offset="0.306" style="stop-color:#FFECED"/>
			<stop  offset="0.4794" style="stop-color:#FFD5D6"/>
			<stop  offset="0.66" style="stop-color:#FFB5B7"/>
			<stop  offset="0.8442" style="stop-color:#FF8D8F"/>
			<stop  offset="1" style="stop-color:#FF6467"/>
		</radialGradient>
		
			<radialGradient id="SVGID_17_" cx="362.2715" cy="2802.9451" r="43.7615" gradientTransform="matrix(0.9628 0 0 1 -3.7575 -2388.311)" gradientUnits="userSpaceOnUse">
			<stop  offset="0" style="stop-color:#FFFFFF"/>
			<stop  offset="1" style="stop-color:#FF6467"/>
		</radialGradient>
		<path class="st18" d="M357,366.9c-1.2,0-3.1,0.2-17.8,4.1c-2.5,0.7-8.1,2.2-10.8,2.9c-6.9,2-11.8,3.4-19.9,6.7
			c3.9,11.6,7.1,21.4,8.9,28.2c4.4,15,6.3,23.8,12.3,35.8c3.4,6.7,6.7,12,9.1,15.2c0.9,0.7,3.4,3.1,6.6,2.5c2.4-0.3,3.9-2.4,5.1-3.8
			c5.6-7.9,8.8-17.1,10-21.3c1.5-4.6,3.2-9.1,4.9-13.5c6.6-19.1,10-28.7,10.6-30.9c1.5-4.7,3.4-10.9,5.6-18.3
			c-2.4-1.2-4.6-2.4-6.3-3.1C369,368.8,363.8,366.6,357,366.9z"/>
		<path class="st0" d="M382.4,372.9c-0.3-0.3-0.7-0.9-1-1c-3.4-3.6-9.4-10.2-19.1-13.1c-7.7-2.4-13.8-1.5-24.8,0.5
			c-4.1,0.7-9.8,2-32.1,9.6c-17.4,5.9-18.1,6.7-25.5,8.8c-10.8,2.9-19.1,3.9-26.7,4.9c-19.4,2.5-34.7,2.2-40.2,2.2
			c-12.5-0.3-25.6-0.7-42.2-4.9c-6.7-1.8-5.4-2-21.1-6.7c-12.2-3.6-22.6-6.9-34.9-9.6c-20.6-4.6-30.9-6.7-39.6-3.4
			c-6.7,2.5-11.8,6.7-15.6,10.8c-3.9,4.4-6.6,8.6-7.7,10.6c2.5-2.4,5.2-4.6,8.6-6.3c0.5-0.3,1.2-0.7,1.8-1
			c2.2-1.2,10.2-5.2,21.3-5.8c8.4-0.5,15,1.2,30.4,6.9c7.4,2.7,12.2,4.6,17.8,6.7c3.6,1.5,7.7,3.2,12.7,5.6
			c6.1,2.7,12.2,4.9,18.3,6.3c14.5,3.8,29.4,4.6,47.2,5.1c0.9,0,1.8,0,2.7,0.2c6.1,0.2,12,0.5,17.6,0.5c18.9,0.5,34.6-0.2,49.1-5.2
			c2.4-0.9,4.7-1.8,7.1-2.9c9.8-4.6,16.7-7.5,22.1-9.6c8.2-3.2,12.9-4.7,19.9-6.7c2.7-0.7,8.1-2.2,10.8-2.9
			c14.9-3.9,16.5-4.1,17.8-4.1c6.9-0.3,12,1.8,18.4,4.6c1.8,0.7,3.9,1.8,6.3,3.1c1.7,0.9,3.2,1.8,4.9,3.1
			C385.1,376.1,383.6,374.2,382.4,372.9z"/>
		<g>
			
				<linearGradient id="SVGID_18_" gradientUnits="userSpaceOnUse" x1="219.6" y1="2841.8586" x2="219.6" y2="2955.3992" gradientTransform="matrix(1 0 0 1 0 -2388.311)">
				<stop  offset="0" style="stop-color:#3B65FF"/>
				<stop  offset="0.1304" style="stop-color:#5C77FD"/>
				<stop  offset="0.2863" style="stop-color:#7C89FB"/>
				<stop  offset="0.4481" style="stop-color:#9596FA"/>
				<stop  offset="0.6162" style="stop-color:#A7A0F9"/>
				<stop  offset="0.7944" style="stop-color:#B2A6F8"/>
				<stop  offset="1" style="stop-color:#B5A8F8"/>
			</linearGradient>
			<path class="st19" d="M354.4,489.2c-2.7-5.9-8-15.5-17.7-24.5c-5.5-5.1-13.3-11.8-25.3-15c-11.6-3.1-20.9-0.9-32.1,1.7
				c-17.2,3.9-15.6,7.7-32.4,11.3c-18.6,3.9-33.1,2.2-36.6,1.7c-2.9-0.3-6.6-1.2-14-2.9c-14.2-3.1-19.7-4.9-26.9-6.7
				c-17.2-4.1-26-6.1-37.4-4.6c-18.9,2.6-31.1,14.3-33.3,16.4c-8.1,8-12,16.5-13.9,21.7c13.1,2.5,27.1,4.7,42.1,6.2
				c7.1,0.7,13.8,1.3,20.5,1.7c3.4,5.6,8.3,14.4,11.9,26.1c1.3,4.3,2,7.4,2.5,9.1c3.1,12.2,7.9,21.6,17.6,40.9
				c9.6,18.9,23.3,42,36.8,45.1c0.9,0.2,2.7,0.5,5.1,0.3c7.5-1,11.6-8.4,16.9-16.4c11.1-16.9,11.5-12.2,20.2-26.5
				c6.6-10.6,10-19.4,12.7-26c3.6-8.8,7.4-19.4,10.4-32.1c0.2-3.1,0.7-7.2,2.2-11.6c1.1-3.4,2.5-6.3,3.8-8.6c2.8,0.1,7,0.1,11.8-0.1
				c6.8-0.2,11.9-0.7,15.1-1.1C330.5,493.5,351,489.8,354.4,489.2z"/>
		</g>
		<path class="st4" d="M372.8,14.1"/>
		<circle class="st0" cx="219.2" cy="6" r="23.1"/>
	</g>
	<g id="Ebene_2_2_">
		<path class="st1" d="M310.8,510.2c-1.2-1-2.9-2.2-4.7-2c-4,0.5-5.9,7.7-6.9,10.9c-2.4,8.4-6.2,19.8-13,36.8c7,0.2,13.1,0,18.2-0.4
			c2-0.1,3.5-0.3,4.6-0.4c6.9-0.6,12.9-1.4,17.8-2.1c-1.5-5-2.8-9.3-3.7-12.4c-0.4-1.2-0.9-3.1-1.5-5.7c-0.2-0.8-0.4-1.6-0.6-2.7
			C320.3,527.8,318.1,516.5,310.8,510.2z"/>
		<path class="st1" d="M127.5,508.6c-1.2-1-2.9-2.2-4.7-2c-3.9,0.5-5.9,7.9-6.9,10.9c-2.2,7.9-5.8,18.1-11.6,32.9
			c14,1.6,19.3,2.4,22.3,2.9c0.8,0.2,1.9,0.4,3.5,0.7c6.9,1.1,12.5,1,16.2,0.7c-4.2-9.9-6.9-18.2-8.4-24.2
			C136.2,523.7,134.4,514.3,127.5,508.6z"/>
	</g>
</g>
<g id="Ebene_2">
	<ellipse class="st2" cx="96.4" cy="171.7" rx="26.8" ry="26.8"/>
	<ellipse class="st0" cx="96.6" cy="171.7" rx="22.7" ry="22.7"/>
	<ellipse class="st2" cx="341.5" cy="171.7" rx="26.8" ry="26.8"/>
	<ellipse class="st0" cx="341.5" cy="171.7" rx="22.5" ry="22.5"/>
</g>
</svg>
