<?xml version="1.0" encoding="utf-8"?>
<!-- Generator: Adobe Illustrator 25.2.3, SVG Export Plug-In . SVG Version: 6.00 Build 0)  -->
<svg version="1.1" xmlns="http://www.w3.org/2000/svg" xmlns:xlink="http://www.w3.org/1999/xlink" x="0px" y="0px"
	 viewBox="0 0 430 479.7" style="enable-background:new 0 0 430 479.7;" xml:space="preserve">
<style type="text/css">
	.st0{fill:#1E1B3C;}
	.st1{fill:#FFFFFF;}
	.st2{fill:#3B65FF;}
	.st3{fill:#FC5E61;}
	.st4{fill:#B5A8F8;}
	.st5{fill:#0072EB;}
	.st6{fill:#1E1B3C;stroke:#1E1B3C;stroke-width:2;stroke-miterlimit:10;}
	.st7{fill:none;}
	.st8{fill:#FF6467;}
</style>
<g id="Hintergrund">
	<rect y="2.6" class="st0" width="430" height="477.1"/>
	<g>
		<path d="M-66.4-36.8V519h562.7V-36.8H-66.4z M430,427.9c0,28.6-23.2,51.8-51.8,51.8H51.8C23.2,479.6,0,456.4,0,427.9V54.4
			C0,25.8,23.2,2.6,51.8,2.6h326.5c28.6,0,51.8,23.2,51.8,51.8V427.9z"/>
	</g>
	<rect y="411.4" class="st0" width="51.8" height="68.2"/>
	<rect x="378.2" y="411.4" class="st0" width="51.8" height="68.2"/>
</g>
<g id="Ebene_1">
	<g id="Ebene_1_1_">
		<g id="Ebene_6">
		</g>
		<g>
			<path class="st1" d="M220.3,188.2c-3.1-2.2-13.9-5.7-19.2-10c-15.3-12.6-27-23.6-44.5-40.7c-34.7-33.9-33.8-34.4-41.5-39.3
				c-13.3-8.4-27.7-17.4-46.5-15.3c-24.4,2.8-38.8,22.1-40.7,24.7c-4.8,6.8-7.8,17.3-13.1,37.8C8.9,168.3,5,179.5,4.6,187.5
				c-0.5,10.2,0.8,16.1-3.5,23.3c-5.9,9.6-16.3,11.1-15.7,14.6c0.8,4.5,17.1,0.2,30.2,8.7c12.7,8.3,8.1,19.6,21.2,35.7
				c1.5,1.8,19,23.1,44.5,24c13.7,0.5,23.9-4.8,37.1-12.4c20-11.5,45.6-26.6,74.9-45.8L220.3,188.2z"/>
			<path class="st2" d="M220.5,303.9h91c56.5,49.6,71.4,121.1,43.9,166.2c-20.7,33.8-71.8,54.2-111.3,39.4
				c-10.7-4.1-18.4-10.5-23.6-15.9h-0.3c-5.2,5.3-12.9,12-23.6,15.9c-39.4,14.8-90.6-5.6-111.3-39.4c-27.4-45.1-12.5-116.7,44-166.2
				L220.5,303.9L220.5,303.9z"/>
			<path class="st1" d="M220.3,188.2c3.1-2.2,13.9-5.7,19.2-10c15.3-12.6,27-23.6,44.5-40.7c34.7-33.9,33.8-34.4,41.5-39.3
				c13.3-8.4,27.7-17.4,46.5-15.3c24.4,2.8,38.8,22.1,40.7,24.7c4.8,6.8,7.8,17.3,13.1,37.8c5.9,22.9,9.8,34.1,10.2,42.1
				c0.5,10.2-0.8,16.1,3.5,23.3c5.9,9.6,16.3,11.1,15.7,14.6c-0.8,4.5-17.1,0.2-30.2,8.7c-12.7,8.3-8.1,19.6-21.2,35.7
				c-1.5,1.8-19,23.1-44.5,24c-13.7,0.5-23.9-4.8-37.1-12.4c-20-11.5-45.6-26.6-74.9-45.8L220.3,188.2z"/>
			<path class="st1" d="M128.2,322.2c-3.1,14.7-5.8,30.3-8.1,47.1c-2.8,20.2-4.2,38.9-5,56.5c1.5-1.6,3.7-3.9,6.5-7
				c2.9-3.4,5-5.8,5.7-6.6c7.6-8.4,16.6-16.6,16.6-16.6c5.5-3.2,13.1-5,22.1-7.8c12.7-3.9,18.6-4.4,26.6-4.4l-1.9-61.3L128.2,322.2
				L128.2,322.2z"/>
			<path class="st1" d="M312.8,322.2c3.1,14.7,5.8,30.3,8.1,47.1c2.8,20.2,4.2,39.1,5,56.7c-1.5-1.6-10.7-3.7-13.4-6.8
				c-2.9-3.2-4.1-4.2-5.8-6.1c-7.6-8.4-11.6-13.4-11.6-13.4c-5.5-3.2-10-6.1-18.9-8.9c-12.7-3.9-19.7-5.5-27.8-5.3l1.9-63.3
				L312.8,322.2L312.8,322.2z"/>
			<polyline class="st0" points="220.3,466.9 195.8,466.1 220.5,493 220.5,493.4 220.5,493.2 220.7,493.4 220.7,493 245.2,466.1 
				220.7,466.9 			"/>
			<path class="st2" d="M221-52.2c0.5,1.3,1.1,2.9,1.5,4.8c0.3,1.5,0.3,2.8,0.3,3.9c-0.3,5.8,0,16,6.3,25.1
				c1.9,2.9,5.3,6.8,20.7,15.2C267,6.1,271.4,6,285.2,13.6c11.5,6.3,17.9,9.8,24.9,17.3c13.6,14.4,17.4,30.8,18.6,36.4
				c1.5,7.2,1.5,13.4,1.3,17.7l-109.5,75.5l-108.2-75c-0.2-4.2-0.2-10.5,1.3-17.7c1.1-5.5,4.8-21.8,18.6-36.4
				c7-7.4,13.4-11,24.9-17.3c13.9-7.8,18.3-7.4,35.4-16.8c15.3-8.4,18.7-12.3,20.7-15.2c6.3-9,6.6-19.2,6.3-25.1
				c0-1.1,0.2-2.4,0.3-3.9c0.3-1.9,0.9-3.5,1.5-4.8"/>
			<ellipse class="st3" cx="220.5" cy="66.1" rx="30.3" ry="30.3"/>
			<path class="st4" d="M220.3,493.4c-4.5-2.6-11.3-6.3-20.2-10c-12.2-5-15.2-4.6-22.6-8.3c-9.4-4.5-15.2-0.9-26.2-12.7
				c-7.9-8.4-12.6-15.9-24.2-26.5c-5-4.5-9.4-8.1-12.2-10.2H326c-2.9,2.1-7.1,5.7-12.2,10.2c-11.6,10.7-16.3,18.1-24.2,26.5
				c-11,11.8-16.8,8.2-26.2,12.7c-7.4,3.5-10.5,3.2-22.6,8.3c-8.7,3.7-15.7,7.2-20.2,10"/>
			<path class="st5" d="M297.1,395.4c-20.2-13.1-40.2-14.4-48.6-14.6l-27.9-1.3l0,0l-27.9,1.3c-8.4,0-28.4,1.3-48.6,14.6
				c-15.9,10.2-24.6,23.1-28.9,30.2c12.9,6.5,23.3,12.3,30.5,16.4c22.5,12.9,29.5,18.6,43.3,22.3c12.7,3.5,24,3.1,31.6,2.2l0,0
				c7.6,0.8,18.9,1.1,31.6-2.2c13.7-3.7,20.7-9.6,43.3-22.3c7.2-4.2,17.7-10,30.5-16.4C321.6,418.7,313,405.8,297.1,395.4z"/>
			<path class="st0" d="M220.9,418c-42.8,0-78.6,3.7-105.8,7.6c27.1,3.9,62.6,7.8,105.6,7.8c42,0,78.5-3.9,105.3-7.8
				C299,421.7,262.8,418,220.9,418z"/>
			<path class="st4" d="M483.2,235.2c-1.3-0.2-2.6,20.8-14,49.6c0,0-3.7,9.8-23.8,33.9c-1.1,1.3-3.5,4.4-7,4.4
				c-1.8,0-4.1-0.8-10-8.4c-6.6-7.9-6.1-9.6-9.6-12c-4.1-2.9-9.8-4.2-15-2.9c-9,2.4-12.9,13.3-14.8,18.7
				c-6.3,18.3,1.5,34.7,3.4,38.9c3.4,7.4,7.6,16.1,17,19.9c9.6,3.7,18.7,0.2,22.9-1.5c3.4-1.3,16.4-7,29.7-30.7
				c4.5-8.1,10.7-21,16-48.8C484.3,263.5,484.6,235.2,483.2,235.2z"/>
			<path class="st4" d="M-42.2,235.2c1.3-0.2,2.6,20.8,14,49.6c0,0,3.7,9.8,23.8,33.9c1.1,1.3,3.5,4.4,7,4.4c1.8,0,4.1-0.8,10-8.4
				c6.6-7.9,6.1-9.6,9.6-12c4.1-2.9,9.8-4.2,15-2.9c9.4,2.4,12.9,13.3,14.8,18.7c6.3,18.3-1.5,34.7-3.4,38.9
				c-3.4,7.4-7.6,16.1-17,19.9c-9.6,3.7-18.7,0.2-22.9-1.5c-3.4-1.3-16.4-7-29.7-30.7c-4.5-8.1-10.7-21-16-48.8
				C-43.7,263.5-43.9,235.2-42.2,235.2z"/>
			<path class="st0" d="M131.1,468c1.1,0.9,2.6,2.1,4.4,1.8c3.7-0.5,5.5-7.1,6.3-9.8c2.1-7.1,5.3-16.4,10.7-29.9
				c-31-3.4-15.2-2.9-34.7-4.2c-0.8,0-1.6-0.2-2.4-0.2c3.5,8.9,5.7,16.4,6.8,22.3C122.7,452.1,124.6,462.4,131.1,468z"/>
			<path class="st0" d="M310.4,468c-1.1,0.9-2.6,2.1-4.4,1.8c-3.7-0.5-5.5-7.1-6.3-9.8c-2.1-7.1-5.3-16.4-10.7-29.9
				c31-3.4,15.2-2.9,34.7-4.2c0.8,0,1.6-0.2,2.4-0.2c-3.5,8.9-5.7,16.4-6.8,22.3C318.7,452.1,316.8,462.4,310.4,468z"/>
			<path class="st2" d="M62.6,207.1c-3.9,0.9-10.9,3.4-17.3,9.4c-9.8,8.9-12.3,20-12.9,23.8c-0.8,4.1-2.2,13.7,2.1,24.9
				c3.7,9.8,10,15.7,11.6,17.1c10.3,9.2,22.7,10.5,27,10.7l-8.3-8.1l-7.9-13.6l-10.1-25.8l12.6-17.1l9.2-10.9L62.6,207.1z"/>
			<path class="st4" d="M156.8,141.8c4.1,2.6,10.2,7.4,15.2,15.3c7.1,11.5,7.2,22.6,7.2,29.1c0,5.9-0.2,25.7-14.8,42.6
				c-13.1,15.3-29.9,19.2-35.5,20.5c-13.1,3.1-29.9,2.8-38.2-0.5c-0.8-0.3-2.8-1.1-5.7-1.3c-7.8-0.5-13.7,4.4-14.4,4.8
				c-6.6,5.7-7.1,14-7.2,17c-0.6,12.7,7.9,21.8,9.7,23.4c-3.9-1.5-13.4-5.7-20.5-16c-2.4-3.4-8.1-12-7.6-24.2
				c0.2-3.2,1.1-13.9,9.6-23.3c8.5-9.6,19.2-11.5,22.1-11.8L156.8,141.8z"/>
			<path class="st3" d="M-26.7,97.5c3.1-1.5,6.1-1.8,6.8-3.9c0.3-0.9,0-1.9-0.3-2.4c-2.4-4.1-25.8-1.6-33.2,10.3
				c-2.2,3.7-3.5,8.4-3.5,8.4c-0.6,2.2-1.5,5.2-0.9,9c0.5,4.5,2.4,7.6,3.4,9.4c3.9,6.5,9.6,9.6,12.2,11c3.5,1.9,9.4,4.4,20.8,5
				c4.1,0.2,13.9,0.5,32.9-3.9c9.6-2.2,18.9-4.4,30.7-9.6c11.3-4.8,18.6-9.7,34.5-15c4.1-1.3,6.8-2.1,10.3-2.8
				c4.5-0.8,13.7-1.9,24.9,0.8c9.7,2.2,16.3,6.5,20.8,9.4c6.8,4.4,13.7,11,27,23.8c7.2,7,9.4,9.4,14.2,11.1
				c2.2,0.8,11.6,4.5,21.2-0.2c11.8-5.8,13.6-19.4,13.7-20.8c1.1-10.9-4.8-18.9-7.8-22.7s-5.8-6.5-8.7-8.5
				c-17.6-13.3-38.1-17.7-40.8-18.3c-3.7-0.8-19.4-3.7-40.4-0.6c-7.1,0.9-16,2.9-37,11c0,0-70.5,27-92.3,29.5
				c-2.1,0.2-6.6,0.5-11.1-1.8c-1.5-0.8-5.3-2.6-7-6.8c-1.8-4.5,0.3-9,1.6-11.6C-34.3,105.2-31.9,100-26.7,97.5z"/>
			<g>
				<ellipse class="st6" cx="97.3" cy="173" rx="61.1" ry="61.1"/>
				<ellipse class="st1" cx="97" cy="173.4" rx="53" ry="53"/>
				<ellipse class="st4" cx="97.6" cy="173" rx="41" ry="41"/>
				<ellipse class="st2" cx="97.6" cy="172.1" rx="26.6" ry="26.6"/>
				<ellipse class="st0" cx="97.8" cy="172.1" rx="22.5" ry="22.5"/>
			</g>
			<path class="st2" d="M375.9,207.1c3.9,0.9,10.9,3.4,17.3,9.4c9.8,8.9,12.3,20,12.9,23.8c0.8,4.1,2.1,13.7-2.1,24.9
				c-3.7,9.8-10,15.7-11.6,17.1c-10.3,9.2-22.7,10.5-27,10.7l8.3-8.1l7.9-13.6l10-25.8L379,228.4l-9.2-10.9L375.9,207.1z"/>
			<path class="st4" d="M281.6,141.8c-4.1,2.6-10.2,7.4-15.2,15.3c-7.1,11.5-7.2,22.6-7.2,29.1c0,5.9,0.2,25.7,14.8,42.6
				c13.1,15.3,29.9,19.2,35.7,20.5c13.1,3.1,29.9,2.8,38.2-0.5c0.8-0.3,2.8-1.1,5.7-1.3c7.8-0.5,13.7,4.4,14.4,4.8
				c6.6,5.7,7.1,14,7.2,17c0.6,12.7-7.9,21.8-9.7,23.4c3.9-1.5,13.4-5.7,20.5-16c2.4-3.4,8.1-12,7.6-24.2
				c-0.2-3.2-1.1-13.9-9.4-23.3c-8.5-9.6-19.2-11.5-22.1-11.8L281.6,141.8z"/>
			<g>
				<ellipse class="st6" cx="341.2" cy="173" rx="61.1" ry="61.1"/>
				<ellipse class="st1" cx="341.4" cy="173.4" rx="53" ry="53"/>
				<ellipse class="st4" cx="340.9" cy="173" rx="41" ry="41"/>
				<ellipse class="st2" cx="340.9" cy="172.1" rx="26.6" ry="26.6"/>
				<ellipse class="st0" cx="340.9" cy="172.1" rx="22.3" ry="22.3"/>
			</g>
			<path class="st3" d="M467.5,97.5c-3.1-1.5-6.1-1.8-6.8-3.9c-0.3-0.9,0-1.9,0.3-2.4c2.4-4.1,25.8-1.6,33.2,10.3
				c2.2,3.7,3.5,8.4,3.5,8.4c0.6,2.2,1.3,5.2,0.9,9c-0.5,4.5-2.4,7.6-3.4,9.4c-3.9,6.5-9.4,9.6-12.2,11c-3.5,1.9-9.4,4.4-20.8,5
				c-4.1,0.2-14,0.5-32.9-3.9c-9.6-2.2-18.9-4.4-30.7-9.6c-11.3-4.8-18.6-9.7-34.4-15c-4.1-1.3-6.8-2.1-10.3-2.8
				c-4.5-0.8-13.7-1.9-24.9,0.8c-9.7,2.2-16.3,6.5-20.8,9.4c-6.8,4.4-13.7,11-27,23.8c-7.2,7-9.4,9.4-14.2,11.1
				c-2.2,0.8-11.6,4.5-21.2-0.2c-11.8-5.8-13.6-19.4-13.7-20.8c-1.1-10.9,4.8-18.9,7.8-22.7c2.9-3.9,5.8-6.5,8.7-8.5
				c17.6-13.3,38.1-17.7,40.8-18.3c3.7-0.8,19.4-3.7,40.4-0.6c7.1,0.9,15.9,2.9,37,11c0,0,70.5,27,92.3,29.5
				c2.1,0.2,6.6,0.5,11.1-1.8c1.5-0.8,5.3-2.6,7-6.8c1.8-4.5-0.3-9-1.6-11.6C475.1,105.2,472.7,100,467.5,97.5z"/>
			<g>
				<g>
					<path class="st7" d="M180.8,234.9c-0.2,0-0.2,0-0.3,0C180.6,234.9,180.6,234.9,180.8,234.9L180.8,234.9z"/>
					<path class="st7" d="M261.7,234.9c-0.5,0-0.9,0-1.6,0l0,0C260.6,234.9,261.1,234.9,261.7,234.9z"/>
					<path class="st0" d="M192.8,255.5c8.4,1.9,17,4.1,22.9,11.6c2.6,3.2,3.9,6.6,4.6,9l0,0c0.6-2.4,2.1-5.7,4.6-9
						c5.9-7.6,14.6-9.7,22.9-11.6c3.1-0.8,13.3-2.9,26.8-1.3c8.7,1.1,15.7,3.2,20.3,5.2l0.2,0.2c-0.3-9.8-0.9-17.3-1.1-19.4
						c-4.6-1.8-11.3-3.9-19.6-4.8c-4.8-0.6-9.4-0.6-13.1-0.5c-0.5,0-1.1,0-1.6,0.2l0,0c-5.9,0.3-10.3,1.3-12.2,1.8
						c-8.4,1.9-17,4.1-22.9,11.6c-2.6,3.2-3.9,6.6-4.6,9l0,0c-0.6-2.4-2.1-5.7-4.6-9c-5.9-7.6-14.6-9.7-22.9-11.6
						c-1.8-0.5-5.9-1.3-12-1.8l0,0c-0.2,0-0.2,0-0.3,0c-4.2-0.3-9-0.2-14.6,0.5c-8.1,0.9-14.6,2.9-19.2,4.6
						c-0.2,1.9-0.6,9.6-1.1,19.4c4.6-1.9,11.6-4.1,20.3-5.2C179.5,252.6,189.7,254.9,192.8,255.5z"/>
					<path class="st0" d="M215.7,249.2c2.6,3.2,3.9,6.6,4.6,9l0,0c0.6-2.4,2.1-5.7,4.6-9c5.9-7.6,14.6-9.7,22.9-11.6
						c1.8-0.5,6.1-1.3,12.2-1.8c4.1-6.6,5.7-7.6,5.7-7.6c2.1-2.6,4.2-4.6,5.7-6.1c-3.7-3.1-9-8.3-13.1-15.9
						c-4.6-8.9-3.5-13.3-8.4-26.6c-4.1-11.1-6.1-17-11.6-22c-7.2-6.5-15.5-7.6-17.6-7.8h-0.2h-0.2c-1.9,0.2-10.3,1.5-17.6,7.8
						c-5.7,5-7.6,10.7-11.6,22c-4.8,13.4-3.7,17.7-8.4,26.6c-4.1,7.8-9.4,12.9-13.1,15.9c1.5,1.5,3.4,3.5,5.7,6.1
						c0,0,1.6,1.1,5.7,7.6c5.8,0.3,10.2,1.3,12,1.8C201.1,239.5,209.8,241.6,215.7,249.2z"/>
					<path class="st1" d="M274.8,288.2c-13.6-1.6-23.8,0.5-26.8,1.3c-8.4,1.9-17,4.1-22.9,11.6c-2.6,3.2-3.9,6.6-4.6,9l0,0
						c-0.6-2.4-2.1-5.7-4.6-9c-5.9-7.6-14.6-9.7-22.9-11.6c-3.1-0.8-13.3-2.9-26.8-1.3c-8.7,1.1-15.7,3.2-20.3,5.2h-0.2
						c0.2,5.2,0.6,10,1.1,14.4c0,0.6,0.2,1.3,0.3,1.9c4.6-1.8,11.1-3.7,19-4.6c13.6-1.6,23.8,0.5,26.8,1.3c8.4,1.9,17,4.1,22.9,11.6
						c2.6,3.2,3.9,6.6,4.6,9l0,0c0.6-2.4,2.1-5.7,4.6-9c5.9-7.6,14.6-9.7,22.9-11.6c3.1-0.8,13.3-2.9,26.8-1.3
						c8.1,0.9,14.7,2.9,19.4,4.6c0.2-0.6,0.2-1.5,0.3-2.1c0.5-4.4,0.9-9.2,1.1-14.2l-0.3-0.2C290.5,291.5,283.5,289.3,274.8,288.2z"
						/>
					<path class="st0" d="M274.8,271.2c-13.6-1.6-23.8,0.5-26.8,1.3c-8.4,1.9-17,4.1-22.9,11.6c-2.6,3.2-3.9,6.6-4.6,9l0,0
						c-0.6-2.4-2.1-5.7-4.6-9c-5.9-7.6-14.6-9.7-22.9-11.6c-3.1-0.8-13.3-2.9-26.8-1.3c-8.7,1.1-15.7,3.2-20.3,5.2l-0.3,0.3
						c0,5.7,0,11.3,0.2,16.8h0.2c4.6-1.9,11.8-4.1,20.3-5.2c13.6-1.6,23.8,0.5,26.8,1.3c8.4,1.9,17,4.1,22.9,11.6
						c2.6,3.2,3.9,6.6,4.6,9l0,0c0.6-2.4,2.1-5.7,4.6-9c5.9-7.6,14.6-9.7,22.9-11.6c3.1-0.8,13.3-2.9,26.8-1.3
						c8.7,1.1,15.7,3.2,20.3,5.2l0.3,0.2c0.2-5.5,0.3-11.1,0.3-16.8l-0.6-0.3C290.5,274.6,283.5,272.3,274.8,271.2z"/>
					<path class="st1" d="M295.1,259.4c-4.6-1.9-11.8-4.1-20.3-5.2c-13.6-1.6-23.8,0.5-26.8,1.3c-8.4,1.9-17,4.1-22.9,11.6
						c-2.6,3.2-3.9,6.6-4.6,9l0,0c-0.6-2.4-2.1-5.7-4.6-9c-5.9-7.6-14.6-9.7-22.9-11.6c-3.1-0.8-13.3-2.9-26.8-1.3
						c-8.7,1.1-15.7,3.2-20.3,5.2c-0.2,5.2-0.3,11.1-0.5,17.3l0.3-0.3c4.6-1.9,11.8-4.1,20.3-5.2c13.6-1.6,23.8,0.5,26.8,1.3
						c8.4,1.9,17,4.1,22.9,11.6c2.6,3.2,3.9,6.6,4.6,9l0,0c0.6-2.4,2.1-5.7,4.6-9c5.9-7.6,14.6-9.7,22.9-11.6
						c3.1-0.8,13.3-2.9,26.8-1.3c8.7,1.1,15.7,3.2,20.3,5.2l0.6,0.3C295.6,270.5,295.5,264.7,295.1,259.4L295.1,259.4z"/>
					<path class="st0" d="M294.2,310c-4.6-1.8-11.3-3.7-19.4-4.6c-13.6-1.6-23.8,0.5-26.8,1.3c-8.4,1.9-17,4.1-22.9,11.6
						c-2.6,3.2-3.9,6.6-4.6,9l0,0c-0.6-2.4-2.1-5.7-4.6-9c-5.9-7.6-14.6-9.7-22.9-11.6c-3.1-0.8-13.3-2.9-26.8-1.3
						c-7.9,0.9-14.4,2.9-19,4.6c0.6,4.5,1.9,9.8,5,15.2c0.3,0.5,0.5,0.8,0.8,1.3c1.1,1.8,5,7.8,12.6,12.4c0.2,0.2,0.3,0.2,0.5,0.3
						c5.8,3.5,11.1,4.6,16.3,5.8c4.5,0.9,10.5,1.9,17.9,1.8v4.6c0.3,1.3,0.8,2.9,1.9,4.8c2.1,3.5,5,5.3,6.5,6.1
						c4.8,2.9,9.7,3.2,12,3.1h0.2c2.2,0,7.1-0.2,12-3.1c1.5-0.8,4.2-2.6,6.5-6.1c1.1-1.9,1.6-3.7,1.9-4.8v-4.6
						c7.2,0.2,13.4-0.8,17.9-1.8c5.2-1.1,10.3-2.2,16.3-5.8c0.2-0.2,0.3-0.2,0.5-0.3c7.6-4.6,11.5-10.7,12.6-12.4
						c0.3-0.5,0.5-0.8,0.8-1.3l0,0C292.3,319.6,293.4,314.4,294.2,310z M175.3,321.6c-0.8,0-1.5,0-2.2,0
						C173.8,321.6,174.7,321.6,175.3,321.6z M199.1,325c2.1,0.6,4.1,1.3,6.1,2.1C203.1,326.3,201.1,325.7,199.1,325z M217.5,337.5
						c0.9,1.6,1.8,3.2,2.2,4.6C219,340.6,218.5,339.2,217.5,337.5z M220.3,344.1c0.5-1.8,1.5-4.1,2.9-6.5
						C221.8,340,220.9,342.3,220.3,344.1z M235.6,327.1c1.9-0.8,4.1-1.6,6.1-2.1C239.5,325.7,237.5,326.3,235.6,327.1z"/>
				</g>
				<g>
					<path class="st4" d="M164.2,297.4c-0.3,1.8-0.5,4.8,0.5,8.4c1.8,6.3,6.3,9.7,8.1,11.1c4.6,3.5,5.2,1.1,13.4,5.7
						c2.8,1.5,5.7,3.4,9.8,3.5c1.6,0.2,2.9,0,3.9-0.2V316v-16.4l-19.9-7.4L164.2,297.4z"/>
					<path class="st3" d="M200,308.3c0-6.5,0-4.8,0-11.3c-1.5-1.1-3.5-2.6-6.1-4.2c-1.9-1.1-5.3-3.1-8.9-4.2
						c-7.9-2.4-15.2,0-17.1,0.6c-2.6,0.8-10,3.5-14.8,11.3c-0.2,0.2-0.3,0.3-0.5,0.8c-0.9,1.6-4.5,8.1-3.2,16.3
						c0.2,0.8,0.5,3.1,1.6,5.8c1.8,4.5,4.5,7.2,6.5,9.2c4.8,4.8,9.7,7.2,12.2,8.4c3.9,1.8,7,2.6,10.5,3.4c5.3,1.3,9.7,1.8,12.4,1.9
						c3.1,0.3,5.7,0.3,7.6,0.2v-9.7c-0.8,0-2.1,0-3.5,0c-3.1,0-9.2-0.2-15.7-1.9c-5.3-1.5-10.2-2.9-14.6-7.1
						c-1.5-1.6-5.7-5.7-6.3-12.4c-0.3-2.2-0.5-8.7,4.1-14.2c2.6-3.1,5.8-4.5,7.4-5.2c0.9-0.3,6.8-2.2,12.7,0.3
						c4.2,1.8,3.7,4.8,8.9,8.4C195.6,306.9,198.2,307.9,200,308.3z"/>
				</g>
				<g>
					<path class="st4" d="M276.8,297.4c0.3,1.8,0.5,4.8-0.5,8.4c-1.8,6.3-6.3,9.7-8.1,11.1c-4.6,3.5-5.2,1.1-13.4,5.7
						c-2.8,1.5-5.7,3.4-9.8,3.5c-1.6,0.2-2.9,0-3.9-0.2V316v-16.4l19.9-7.4L276.8,297.4z"/>
					<path class="st3" d="M241,308.2c0-6.5-0.2-4.6-0.2-11.1c1.5-1.1,3.5-2.6,6.1-4.2c1.9-1.1,5.3-3.1,8.9-4.2
						c7.9-2.4,15.2,0,17.1,0.6c2.6,0.8,10,3.5,14.8,11.3c0.2,0.2,0.3,0.3,0.5,0.8c0.9,1.6,4.5,8.1,3.2,16.3
						c-0.2,0.8-0.5,3.1-1.6,5.8c-1.8,4.5-4.5,7.2-6.5,9.2c-4.8,4.8-9.7,7.2-12.2,8.4c-3.9,1.8-7,2.6-10.5,3.4
						c-5.3,1.3-9.7,1.8-12.4,1.9c-3.1,0.3-5.7,0.3-7.6,0.2v-9.7c0.8,0,2.1,0,3.5,0c3.1,0,9.2-0.2,15.7-1.9
						c5.3-1.5,10.2-2.9,14.6-7.1c1.5-1.6,5.7-5.7,6.3-12.4c0.3-2.2,0.5-8.7-4.1-14.2c-2.6-3.1-5.8-4.5-7.4-5.2
						c-0.9-0.3-6.8-2.2-12.7,0.3c-4.2,1.8-3.7,5-8.9,8.4C245.2,306.7,242.8,307.7,241,308.2z"/>
				</g>
			</g>
		</g>
		<path class="st8" d="M423.2,376.5"/>
		<path class="st4" d="M66.7-1.8c0-88.8,68.2-160.9,152.6-160.9s152.6,72,152.6,160.9"/>
		<ellipse class="st3" cx="219.1" cy="5.8" rx="152.7" ry="125.3"/>
		<path class="st0" d="M363.7,5.8"/>
		<polyline class="st0" points="73.9,-19 64.3,-31.3 77.7,-24.1 69.2,-42.3 84.2,-30.8 75.4,-51.1 94.9,-41.6 81.9,-62.2 106,-49.6 
			92,-73.6 119.8,-57.1 102.2,-86.2 131.2,-63.5 116.8,-100.3 148.8,-69.9 134.4,-114.5 159.8,-76.5 155.6,-121.1 178.4,-80.4 
			180.1,-126.5 198,-83.7 203.5,-128.1 216.5,-86.5 230.3,-128.1 237,-86 259.6,-123.6 259.6,-82.9 286.9,-112.6 278,-76 
			308.1,-101.4 299.3,-68.3 328.6,-93.2 313.2,-60.1 338.6,-79.3 325.8,-53.2 350.8,-65.5 339.7,-43.7 359.9,-54.7 349.5,-34.6 
			368.4,-43 357.4,-27.2 370,-30.6 364.6,-19 		"/>
		<polyline class="st0" points="359.4,25.4 366.2,36.1 376.1,46.6 362.5,40.6 371.2,56.3 356,46.5 365.2,64 345.4,56 358.8,73.6 
			334.3,63.1 348.9,83.8 320.9,69.9 338.8,94.9 309.6,75.7 324.4,107.4 292,81.5 307.1,119.9 281.1,87.3 285.9,126 262.5,91 
			261.5,131.1 243,94.1 238,132.9 224.6,96.8 211.3,133.3 204,96.8 182,129.8 181.5,94.4 154.5,120.6 162.9,88.6 133.2,111.3 
			141.5,82.3 112.5,104.4 127.4,75.4 102.4,92.4 114.8,69.7 89.9,80.7 100.8,61.6 80.7,71.4 90.9,53.8 72.1,61.4 82.8,47.5 
			70.3,50.6 75.6,40.5 65.7,42.8 73.8,37.1 76.3,33.4 		"/>
		<ellipse class="st1" cx="219.1" cy="7.7" rx="152.7" ry="85.4"/>
		<ellipse class="st5" cx="219.3" cy="7.7" rx="68.6" ry="65.9"/>
		<g id="Ebene_2_1_">
		</g>
		<g id="Ebene_3">
		</g>
		<path class="st4" d="M371.9,15.7"/>
		<circle cx="219.5" cy="7.7" r="22.9"/>
	</g>
</g>
</svg>
